%TF.GenerationSoftware,KiCad,Pcbnew,9.0.7*%
%TF.CreationDate,2026-03-08T23:24:15-05:00*%
%TF.ProjectId,Evil_Beeper_Circuit,4576696c-5f42-4656-9570-65725f436972,rev?*%
%TF.SameCoordinates,Original*%
%TF.FileFunction,Legend,Bot*%
%TF.FilePolarity,Positive*%
%FSLAX46Y46*%
G04 Gerber Fmt 4.6, Leading zero omitted, Abs format (unit mm)*
G04 Created by KiCad (PCBNEW 9.0.7) date 2026-03-08 23:24:15*
%MOMM*%
%LPD*%
G01*
G04 APERTURE LIST*
%ADD10C,0.100000*%
G04 APERTURE END LIST*
D10*
X176862782Y-54359113D02*
X176719925Y-54406732D01*
X176719925Y-54406732D02*
X176672306Y-54454351D01*
X176672306Y-54454351D02*
X176624687Y-54549589D01*
X176624687Y-54549589D02*
X176624687Y-54692446D01*
X176624687Y-54692446D02*
X176672306Y-54787684D01*
X176672306Y-54787684D02*
X176719925Y-54835304D01*
X176719925Y-54835304D02*
X176815163Y-54882923D01*
X176815163Y-54882923D02*
X177196115Y-54882923D01*
X177196115Y-54882923D02*
X177196115Y-53882923D01*
X177196115Y-53882923D02*
X176862782Y-53882923D01*
X176862782Y-53882923D02*
X176767544Y-53930542D01*
X176767544Y-53930542D02*
X176719925Y-53978161D01*
X176719925Y-53978161D02*
X176672306Y-54073399D01*
X176672306Y-54073399D02*
X176672306Y-54168637D01*
X176672306Y-54168637D02*
X176719925Y-54263875D01*
X176719925Y-54263875D02*
X176767544Y-54311494D01*
X176767544Y-54311494D02*
X176862782Y-54359113D01*
X176862782Y-54359113D02*
X177196115Y-54359113D01*
X176196115Y-54359113D02*
X175862782Y-54359113D01*
X175719925Y-54882923D02*
X176196115Y-54882923D01*
X176196115Y-54882923D02*
X176196115Y-53882923D01*
X176196115Y-53882923D02*
X175719925Y-53882923D01*
X175291353Y-54359113D02*
X174958020Y-54359113D01*
X174815163Y-54882923D02*
X175291353Y-54882923D01*
X175291353Y-54882923D02*
X175291353Y-53882923D01*
X175291353Y-53882923D02*
X174815163Y-53882923D01*
X174386591Y-54882923D02*
X174386591Y-53882923D01*
X174386591Y-53882923D02*
X174005639Y-53882923D01*
X174005639Y-53882923D02*
X173910401Y-53930542D01*
X173910401Y-53930542D02*
X173862782Y-53978161D01*
X173862782Y-53978161D02*
X173815163Y-54073399D01*
X173815163Y-54073399D02*
X173815163Y-54216256D01*
X173815163Y-54216256D02*
X173862782Y-54311494D01*
X173862782Y-54311494D02*
X173910401Y-54359113D01*
X173910401Y-54359113D02*
X174005639Y-54406732D01*
X174005639Y-54406732D02*
X174386591Y-54406732D01*
X172291353Y-54359113D02*
X172148496Y-54406732D01*
X172148496Y-54406732D02*
X172100877Y-54454351D01*
X172100877Y-54454351D02*
X172053258Y-54549589D01*
X172053258Y-54549589D02*
X172053258Y-54692446D01*
X172053258Y-54692446D02*
X172100877Y-54787684D01*
X172100877Y-54787684D02*
X172148496Y-54835304D01*
X172148496Y-54835304D02*
X172243734Y-54882923D01*
X172243734Y-54882923D02*
X172624686Y-54882923D01*
X172624686Y-54882923D02*
X172624686Y-53882923D01*
X172624686Y-53882923D02*
X172291353Y-53882923D01*
X172291353Y-53882923D02*
X172196115Y-53930542D01*
X172196115Y-53930542D02*
X172148496Y-53978161D01*
X172148496Y-53978161D02*
X172100877Y-54073399D01*
X172100877Y-54073399D02*
X172100877Y-54168637D01*
X172100877Y-54168637D02*
X172148496Y-54263875D01*
X172148496Y-54263875D02*
X172196115Y-54311494D01*
X172196115Y-54311494D02*
X172291353Y-54359113D01*
X172291353Y-54359113D02*
X172624686Y-54359113D01*
X171624686Y-54359113D02*
X171291353Y-54359113D01*
X171148496Y-54882923D02*
X171624686Y-54882923D01*
X171624686Y-54882923D02*
X171624686Y-53882923D01*
X171624686Y-53882923D02*
X171148496Y-53882923D01*
X170719924Y-54359113D02*
X170386591Y-54359113D01*
X170243734Y-54882923D02*
X170719924Y-54882923D01*
X170719924Y-54882923D02*
X170719924Y-53882923D01*
X170719924Y-53882923D02*
X170243734Y-53882923D01*
X169815162Y-54882923D02*
X169815162Y-53882923D01*
X169815162Y-53882923D02*
X169434210Y-53882923D01*
X169434210Y-53882923D02*
X169338972Y-53930542D01*
X169338972Y-53930542D02*
X169291353Y-53978161D01*
X169291353Y-53978161D02*
X169243734Y-54073399D01*
X169243734Y-54073399D02*
X169243734Y-54216256D01*
X169243734Y-54216256D02*
X169291353Y-54311494D01*
X169291353Y-54311494D02*
X169338972Y-54359113D01*
X169338972Y-54359113D02*
X169434210Y-54406732D01*
X169434210Y-54406732D02*
X169815162Y-54406732D01*
X167719924Y-54359113D02*
X167577067Y-54406732D01*
X167577067Y-54406732D02*
X167529448Y-54454351D01*
X167529448Y-54454351D02*
X167481829Y-54549589D01*
X167481829Y-54549589D02*
X167481829Y-54692446D01*
X167481829Y-54692446D02*
X167529448Y-54787684D01*
X167529448Y-54787684D02*
X167577067Y-54835304D01*
X167577067Y-54835304D02*
X167672305Y-54882923D01*
X167672305Y-54882923D02*
X168053257Y-54882923D01*
X168053257Y-54882923D02*
X168053257Y-53882923D01*
X168053257Y-53882923D02*
X167719924Y-53882923D01*
X167719924Y-53882923D02*
X167624686Y-53930542D01*
X167624686Y-53930542D02*
X167577067Y-53978161D01*
X167577067Y-53978161D02*
X167529448Y-54073399D01*
X167529448Y-54073399D02*
X167529448Y-54168637D01*
X167529448Y-54168637D02*
X167577067Y-54263875D01*
X167577067Y-54263875D02*
X167624686Y-54311494D01*
X167624686Y-54311494D02*
X167719924Y-54359113D01*
X167719924Y-54359113D02*
X168053257Y-54359113D01*
X167053257Y-54359113D02*
X166719924Y-54359113D01*
X166577067Y-54882923D02*
X167053257Y-54882923D01*
X167053257Y-54882923D02*
X167053257Y-53882923D01*
X167053257Y-53882923D02*
X166577067Y-53882923D01*
X166148495Y-54359113D02*
X165815162Y-54359113D01*
X165672305Y-54882923D02*
X166148495Y-54882923D01*
X166148495Y-54882923D02*
X166148495Y-53882923D01*
X166148495Y-53882923D02*
X165672305Y-53882923D01*
X165243733Y-54882923D02*
X165243733Y-53882923D01*
X165243733Y-53882923D02*
X164862781Y-53882923D01*
X164862781Y-53882923D02*
X164767543Y-53930542D01*
X164767543Y-53930542D02*
X164719924Y-53978161D01*
X164719924Y-53978161D02*
X164672305Y-54073399D01*
X164672305Y-54073399D02*
X164672305Y-54216256D01*
X164672305Y-54216256D02*
X164719924Y-54311494D01*
X164719924Y-54311494D02*
X164767543Y-54359113D01*
X164767543Y-54359113D02*
X164862781Y-54406732D01*
X164862781Y-54406732D02*
X165243733Y-54406732D01*
X163148495Y-54359113D02*
X163005638Y-54406732D01*
X163005638Y-54406732D02*
X162958019Y-54454351D01*
X162958019Y-54454351D02*
X162910400Y-54549589D01*
X162910400Y-54549589D02*
X162910400Y-54692446D01*
X162910400Y-54692446D02*
X162958019Y-54787684D01*
X162958019Y-54787684D02*
X163005638Y-54835304D01*
X163005638Y-54835304D02*
X163100876Y-54882923D01*
X163100876Y-54882923D02*
X163481828Y-54882923D01*
X163481828Y-54882923D02*
X163481828Y-53882923D01*
X163481828Y-53882923D02*
X163148495Y-53882923D01*
X163148495Y-53882923D02*
X163053257Y-53930542D01*
X163053257Y-53930542D02*
X163005638Y-53978161D01*
X163005638Y-53978161D02*
X162958019Y-54073399D01*
X162958019Y-54073399D02*
X162958019Y-54168637D01*
X162958019Y-54168637D02*
X163005638Y-54263875D01*
X163005638Y-54263875D02*
X163053257Y-54311494D01*
X163053257Y-54311494D02*
X163148495Y-54359113D01*
X163148495Y-54359113D02*
X163481828Y-54359113D01*
X162481828Y-54359113D02*
X162148495Y-54359113D01*
X162005638Y-54882923D02*
X162481828Y-54882923D01*
X162481828Y-54882923D02*
X162481828Y-53882923D01*
X162481828Y-53882923D02*
X162005638Y-53882923D01*
X161577066Y-54359113D02*
X161243733Y-54359113D01*
X161100876Y-54882923D02*
X161577066Y-54882923D01*
X161577066Y-54882923D02*
X161577066Y-53882923D01*
X161577066Y-53882923D02*
X161100876Y-53882923D01*
X160672304Y-54882923D02*
X160672304Y-53882923D01*
X160672304Y-53882923D02*
X160291352Y-53882923D01*
X160291352Y-53882923D02*
X160196114Y-53930542D01*
X160196114Y-53930542D02*
X160148495Y-53978161D01*
X160148495Y-53978161D02*
X160100876Y-54073399D01*
X160100876Y-54073399D02*
X160100876Y-54216256D01*
X160100876Y-54216256D02*
X160148495Y-54311494D01*
X160148495Y-54311494D02*
X160196114Y-54359113D01*
X160196114Y-54359113D02*
X160291352Y-54406732D01*
X160291352Y-54406732D02*
X160672304Y-54406732D01*
X158577066Y-54359113D02*
X158434209Y-54406732D01*
X158434209Y-54406732D02*
X158386590Y-54454351D01*
X158386590Y-54454351D02*
X158338971Y-54549589D01*
X158338971Y-54549589D02*
X158338971Y-54692446D01*
X158338971Y-54692446D02*
X158386590Y-54787684D01*
X158386590Y-54787684D02*
X158434209Y-54835304D01*
X158434209Y-54835304D02*
X158529447Y-54882923D01*
X158529447Y-54882923D02*
X158910399Y-54882923D01*
X158910399Y-54882923D02*
X158910399Y-53882923D01*
X158910399Y-53882923D02*
X158577066Y-53882923D01*
X158577066Y-53882923D02*
X158481828Y-53930542D01*
X158481828Y-53930542D02*
X158434209Y-53978161D01*
X158434209Y-53978161D02*
X158386590Y-54073399D01*
X158386590Y-54073399D02*
X158386590Y-54168637D01*
X158386590Y-54168637D02*
X158434209Y-54263875D01*
X158434209Y-54263875D02*
X158481828Y-54311494D01*
X158481828Y-54311494D02*
X158577066Y-54359113D01*
X158577066Y-54359113D02*
X158910399Y-54359113D01*
X157910399Y-54359113D02*
X157577066Y-54359113D01*
X157434209Y-54882923D02*
X157910399Y-54882923D01*
X157910399Y-54882923D02*
X157910399Y-53882923D01*
X157910399Y-53882923D02*
X157434209Y-53882923D01*
X157005637Y-54359113D02*
X156672304Y-54359113D01*
X156529447Y-54882923D02*
X157005637Y-54882923D01*
X157005637Y-54882923D02*
X157005637Y-53882923D01*
X157005637Y-53882923D02*
X156529447Y-53882923D01*
X156100875Y-54882923D02*
X156100875Y-53882923D01*
X156100875Y-53882923D02*
X155719923Y-53882923D01*
X155719923Y-53882923D02*
X155624685Y-53930542D01*
X155624685Y-53930542D02*
X155577066Y-53978161D01*
X155577066Y-53978161D02*
X155529447Y-54073399D01*
X155529447Y-54073399D02*
X155529447Y-54216256D01*
X155529447Y-54216256D02*
X155577066Y-54311494D01*
X155577066Y-54311494D02*
X155624685Y-54359113D01*
X155624685Y-54359113D02*
X155719923Y-54406732D01*
X155719923Y-54406732D02*
X156100875Y-54406732D01*
X154005637Y-54359113D02*
X153862780Y-54406732D01*
X153862780Y-54406732D02*
X153815161Y-54454351D01*
X153815161Y-54454351D02*
X153767542Y-54549589D01*
X153767542Y-54549589D02*
X153767542Y-54692446D01*
X153767542Y-54692446D02*
X153815161Y-54787684D01*
X153815161Y-54787684D02*
X153862780Y-54835304D01*
X153862780Y-54835304D02*
X153958018Y-54882923D01*
X153958018Y-54882923D02*
X154338970Y-54882923D01*
X154338970Y-54882923D02*
X154338970Y-53882923D01*
X154338970Y-53882923D02*
X154005637Y-53882923D01*
X154005637Y-53882923D02*
X153910399Y-53930542D01*
X153910399Y-53930542D02*
X153862780Y-53978161D01*
X153862780Y-53978161D02*
X153815161Y-54073399D01*
X153815161Y-54073399D02*
X153815161Y-54168637D01*
X153815161Y-54168637D02*
X153862780Y-54263875D01*
X153862780Y-54263875D02*
X153910399Y-54311494D01*
X153910399Y-54311494D02*
X154005637Y-54359113D01*
X154005637Y-54359113D02*
X154338970Y-54359113D01*
X153338970Y-54359113D02*
X153005637Y-54359113D01*
X152862780Y-54882923D02*
X153338970Y-54882923D01*
X153338970Y-54882923D02*
X153338970Y-53882923D01*
X153338970Y-53882923D02*
X152862780Y-53882923D01*
X152434208Y-54359113D02*
X152100875Y-54359113D01*
X151958018Y-54882923D02*
X152434208Y-54882923D01*
X152434208Y-54882923D02*
X152434208Y-53882923D01*
X152434208Y-53882923D02*
X151958018Y-53882923D01*
X151529446Y-54882923D02*
X151529446Y-53882923D01*
X151529446Y-53882923D02*
X151148494Y-53882923D01*
X151148494Y-53882923D02*
X151053256Y-53930542D01*
X151053256Y-53930542D02*
X151005637Y-53978161D01*
X151005637Y-53978161D02*
X150958018Y-54073399D01*
X150958018Y-54073399D02*
X150958018Y-54216256D01*
X150958018Y-54216256D02*
X151005637Y-54311494D01*
X151005637Y-54311494D02*
X151053256Y-54359113D01*
X151053256Y-54359113D02*
X151148494Y-54406732D01*
X151148494Y-54406732D02*
X151529446Y-54406732D01*
X175338972Y-55969057D02*
X175196115Y-56016676D01*
X175196115Y-56016676D02*
X175148496Y-56064295D01*
X175148496Y-56064295D02*
X175100877Y-56159533D01*
X175100877Y-56159533D02*
X175100877Y-56302390D01*
X175100877Y-56302390D02*
X175148496Y-56397628D01*
X175148496Y-56397628D02*
X175196115Y-56445248D01*
X175196115Y-56445248D02*
X175291353Y-56492867D01*
X175291353Y-56492867D02*
X175672305Y-56492867D01*
X175672305Y-56492867D02*
X175672305Y-55492867D01*
X175672305Y-55492867D02*
X175338972Y-55492867D01*
X175338972Y-55492867D02*
X175243734Y-55540486D01*
X175243734Y-55540486D02*
X175196115Y-55588105D01*
X175196115Y-55588105D02*
X175148496Y-55683343D01*
X175148496Y-55683343D02*
X175148496Y-55778581D01*
X175148496Y-55778581D02*
X175196115Y-55873819D01*
X175196115Y-55873819D02*
X175243734Y-55921438D01*
X175243734Y-55921438D02*
X175338972Y-55969057D01*
X175338972Y-55969057D02*
X175672305Y-55969057D01*
X174672305Y-55969057D02*
X174338972Y-55969057D01*
X174196115Y-56492867D02*
X174672305Y-56492867D01*
X174672305Y-56492867D02*
X174672305Y-55492867D01*
X174672305Y-55492867D02*
X174196115Y-55492867D01*
X173767543Y-55969057D02*
X173434210Y-55969057D01*
X173291353Y-56492867D02*
X173767543Y-56492867D01*
X173767543Y-56492867D02*
X173767543Y-55492867D01*
X173767543Y-55492867D02*
X173291353Y-55492867D01*
X172862781Y-56492867D02*
X172862781Y-55492867D01*
X172862781Y-55492867D02*
X172481829Y-55492867D01*
X172481829Y-55492867D02*
X172386591Y-55540486D01*
X172386591Y-55540486D02*
X172338972Y-55588105D01*
X172338972Y-55588105D02*
X172291353Y-55683343D01*
X172291353Y-55683343D02*
X172291353Y-55826200D01*
X172291353Y-55826200D02*
X172338972Y-55921438D01*
X172338972Y-55921438D02*
X172386591Y-55969057D01*
X172386591Y-55969057D02*
X172481829Y-56016676D01*
X172481829Y-56016676D02*
X172862781Y-56016676D01*
X170767543Y-55969057D02*
X170624686Y-56016676D01*
X170624686Y-56016676D02*
X170577067Y-56064295D01*
X170577067Y-56064295D02*
X170529448Y-56159533D01*
X170529448Y-56159533D02*
X170529448Y-56302390D01*
X170529448Y-56302390D02*
X170577067Y-56397628D01*
X170577067Y-56397628D02*
X170624686Y-56445248D01*
X170624686Y-56445248D02*
X170719924Y-56492867D01*
X170719924Y-56492867D02*
X171100876Y-56492867D01*
X171100876Y-56492867D02*
X171100876Y-55492867D01*
X171100876Y-55492867D02*
X170767543Y-55492867D01*
X170767543Y-55492867D02*
X170672305Y-55540486D01*
X170672305Y-55540486D02*
X170624686Y-55588105D01*
X170624686Y-55588105D02*
X170577067Y-55683343D01*
X170577067Y-55683343D02*
X170577067Y-55778581D01*
X170577067Y-55778581D02*
X170624686Y-55873819D01*
X170624686Y-55873819D02*
X170672305Y-55921438D01*
X170672305Y-55921438D02*
X170767543Y-55969057D01*
X170767543Y-55969057D02*
X171100876Y-55969057D01*
X170100876Y-55969057D02*
X169767543Y-55969057D01*
X169624686Y-56492867D02*
X170100876Y-56492867D01*
X170100876Y-56492867D02*
X170100876Y-55492867D01*
X170100876Y-55492867D02*
X169624686Y-55492867D01*
X169196114Y-55969057D02*
X168862781Y-55969057D01*
X168719924Y-56492867D02*
X169196114Y-56492867D01*
X169196114Y-56492867D02*
X169196114Y-55492867D01*
X169196114Y-55492867D02*
X168719924Y-55492867D01*
X168291352Y-56492867D02*
X168291352Y-55492867D01*
X168291352Y-55492867D02*
X167910400Y-55492867D01*
X167910400Y-55492867D02*
X167815162Y-55540486D01*
X167815162Y-55540486D02*
X167767543Y-55588105D01*
X167767543Y-55588105D02*
X167719924Y-55683343D01*
X167719924Y-55683343D02*
X167719924Y-55826200D01*
X167719924Y-55826200D02*
X167767543Y-55921438D01*
X167767543Y-55921438D02*
X167815162Y-55969057D01*
X167815162Y-55969057D02*
X167910400Y-56016676D01*
X167910400Y-56016676D02*
X168291352Y-56016676D01*
X166196114Y-55969057D02*
X166053257Y-56016676D01*
X166053257Y-56016676D02*
X166005638Y-56064295D01*
X166005638Y-56064295D02*
X165958019Y-56159533D01*
X165958019Y-56159533D02*
X165958019Y-56302390D01*
X165958019Y-56302390D02*
X166005638Y-56397628D01*
X166005638Y-56397628D02*
X166053257Y-56445248D01*
X166053257Y-56445248D02*
X166148495Y-56492867D01*
X166148495Y-56492867D02*
X166529447Y-56492867D01*
X166529447Y-56492867D02*
X166529447Y-55492867D01*
X166529447Y-55492867D02*
X166196114Y-55492867D01*
X166196114Y-55492867D02*
X166100876Y-55540486D01*
X166100876Y-55540486D02*
X166053257Y-55588105D01*
X166053257Y-55588105D02*
X166005638Y-55683343D01*
X166005638Y-55683343D02*
X166005638Y-55778581D01*
X166005638Y-55778581D02*
X166053257Y-55873819D01*
X166053257Y-55873819D02*
X166100876Y-55921438D01*
X166100876Y-55921438D02*
X166196114Y-55969057D01*
X166196114Y-55969057D02*
X166529447Y-55969057D01*
X165529447Y-55969057D02*
X165196114Y-55969057D01*
X165053257Y-56492867D02*
X165529447Y-56492867D01*
X165529447Y-56492867D02*
X165529447Y-55492867D01*
X165529447Y-55492867D02*
X165053257Y-55492867D01*
X164624685Y-55969057D02*
X164291352Y-55969057D01*
X164148495Y-56492867D02*
X164624685Y-56492867D01*
X164624685Y-56492867D02*
X164624685Y-55492867D01*
X164624685Y-55492867D02*
X164148495Y-55492867D01*
X163719923Y-56492867D02*
X163719923Y-55492867D01*
X163719923Y-55492867D02*
X163338971Y-55492867D01*
X163338971Y-55492867D02*
X163243733Y-55540486D01*
X163243733Y-55540486D02*
X163196114Y-55588105D01*
X163196114Y-55588105D02*
X163148495Y-55683343D01*
X163148495Y-55683343D02*
X163148495Y-55826200D01*
X163148495Y-55826200D02*
X163196114Y-55921438D01*
X163196114Y-55921438D02*
X163243733Y-55969057D01*
X163243733Y-55969057D02*
X163338971Y-56016676D01*
X163338971Y-56016676D02*
X163719923Y-56016676D01*
X161624685Y-55969057D02*
X161481828Y-56016676D01*
X161481828Y-56016676D02*
X161434209Y-56064295D01*
X161434209Y-56064295D02*
X161386590Y-56159533D01*
X161386590Y-56159533D02*
X161386590Y-56302390D01*
X161386590Y-56302390D02*
X161434209Y-56397628D01*
X161434209Y-56397628D02*
X161481828Y-56445248D01*
X161481828Y-56445248D02*
X161577066Y-56492867D01*
X161577066Y-56492867D02*
X161958018Y-56492867D01*
X161958018Y-56492867D02*
X161958018Y-55492867D01*
X161958018Y-55492867D02*
X161624685Y-55492867D01*
X161624685Y-55492867D02*
X161529447Y-55540486D01*
X161529447Y-55540486D02*
X161481828Y-55588105D01*
X161481828Y-55588105D02*
X161434209Y-55683343D01*
X161434209Y-55683343D02*
X161434209Y-55778581D01*
X161434209Y-55778581D02*
X161481828Y-55873819D01*
X161481828Y-55873819D02*
X161529447Y-55921438D01*
X161529447Y-55921438D02*
X161624685Y-55969057D01*
X161624685Y-55969057D02*
X161958018Y-55969057D01*
X160958018Y-55969057D02*
X160624685Y-55969057D01*
X160481828Y-56492867D02*
X160958018Y-56492867D01*
X160958018Y-56492867D02*
X160958018Y-55492867D01*
X160958018Y-55492867D02*
X160481828Y-55492867D01*
X160053256Y-55969057D02*
X159719923Y-55969057D01*
X159577066Y-56492867D02*
X160053256Y-56492867D01*
X160053256Y-56492867D02*
X160053256Y-55492867D01*
X160053256Y-55492867D02*
X159577066Y-55492867D01*
X159148494Y-56492867D02*
X159148494Y-55492867D01*
X159148494Y-55492867D02*
X158767542Y-55492867D01*
X158767542Y-55492867D02*
X158672304Y-55540486D01*
X158672304Y-55540486D02*
X158624685Y-55588105D01*
X158624685Y-55588105D02*
X158577066Y-55683343D01*
X158577066Y-55683343D02*
X158577066Y-55826200D01*
X158577066Y-55826200D02*
X158624685Y-55921438D01*
X158624685Y-55921438D02*
X158672304Y-55969057D01*
X158672304Y-55969057D02*
X158767542Y-56016676D01*
X158767542Y-56016676D02*
X159148494Y-56016676D01*
X157053256Y-55969057D02*
X156910399Y-56016676D01*
X156910399Y-56016676D02*
X156862780Y-56064295D01*
X156862780Y-56064295D02*
X156815161Y-56159533D01*
X156815161Y-56159533D02*
X156815161Y-56302390D01*
X156815161Y-56302390D02*
X156862780Y-56397628D01*
X156862780Y-56397628D02*
X156910399Y-56445248D01*
X156910399Y-56445248D02*
X157005637Y-56492867D01*
X157005637Y-56492867D02*
X157386589Y-56492867D01*
X157386589Y-56492867D02*
X157386589Y-55492867D01*
X157386589Y-55492867D02*
X157053256Y-55492867D01*
X157053256Y-55492867D02*
X156958018Y-55540486D01*
X156958018Y-55540486D02*
X156910399Y-55588105D01*
X156910399Y-55588105D02*
X156862780Y-55683343D01*
X156862780Y-55683343D02*
X156862780Y-55778581D01*
X156862780Y-55778581D02*
X156910399Y-55873819D01*
X156910399Y-55873819D02*
X156958018Y-55921438D01*
X156958018Y-55921438D02*
X157053256Y-55969057D01*
X157053256Y-55969057D02*
X157386589Y-55969057D01*
X156386589Y-55969057D02*
X156053256Y-55969057D01*
X155910399Y-56492867D02*
X156386589Y-56492867D01*
X156386589Y-56492867D02*
X156386589Y-55492867D01*
X156386589Y-55492867D02*
X155910399Y-55492867D01*
X155481827Y-55969057D02*
X155148494Y-55969057D01*
X155005637Y-56492867D02*
X155481827Y-56492867D01*
X155481827Y-56492867D02*
X155481827Y-55492867D01*
X155481827Y-55492867D02*
X155005637Y-55492867D01*
X154577065Y-56492867D02*
X154577065Y-55492867D01*
X154577065Y-55492867D02*
X154196113Y-55492867D01*
X154196113Y-55492867D02*
X154100875Y-55540486D01*
X154100875Y-55540486D02*
X154053256Y-55588105D01*
X154053256Y-55588105D02*
X154005637Y-55683343D01*
X154005637Y-55683343D02*
X154005637Y-55826200D01*
X154005637Y-55826200D02*
X154053256Y-55921438D01*
X154053256Y-55921438D02*
X154100875Y-55969057D01*
X154100875Y-55969057D02*
X154196113Y-56016676D01*
X154196113Y-56016676D02*
X154577065Y-56016676D01*
X152481827Y-55969057D02*
X152338970Y-56016676D01*
X152338970Y-56016676D02*
X152291351Y-56064295D01*
X152291351Y-56064295D02*
X152243732Y-56159533D01*
X152243732Y-56159533D02*
X152243732Y-56302390D01*
X152243732Y-56302390D02*
X152291351Y-56397628D01*
X152291351Y-56397628D02*
X152338970Y-56445248D01*
X152338970Y-56445248D02*
X152434208Y-56492867D01*
X152434208Y-56492867D02*
X152815160Y-56492867D01*
X152815160Y-56492867D02*
X152815160Y-55492867D01*
X152815160Y-55492867D02*
X152481827Y-55492867D01*
X152481827Y-55492867D02*
X152386589Y-55540486D01*
X152386589Y-55540486D02*
X152338970Y-55588105D01*
X152338970Y-55588105D02*
X152291351Y-55683343D01*
X152291351Y-55683343D02*
X152291351Y-55778581D01*
X152291351Y-55778581D02*
X152338970Y-55873819D01*
X152338970Y-55873819D02*
X152386589Y-55921438D01*
X152386589Y-55921438D02*
X152481827Y-55969057D01*
X152481827Y-55969057D02*
X152815160Y-55969057D01*
X151815160Y-55969057D02*
X151481827Y-55969057D01*
X151338970Y-56492867D02*
X151815160Y-56492867D01*
X151815160Y-56492867D02*
X151815160Y-55492867D01*
X151815160Y-55492867D02*
X151338970Y-55492867D01*
X150910398Y-55969057D02*
X150577065Y-55969057D01*
X150434208Y-56492867D02*
X150910398Y-56492867D01*
X150910398Y-56492867D02*
X150910398Y-55492867D01*
X150910398Y-55492867D02*
X150434208Y-55492867D01*
X150005636Y-56492867D02*
X150005636Y-55492867D01*
X150005636Y-55492867D02*
X149624684Y-55492867D01*
X149624684Y-55492867D02*
X149529446Y-55540486D01*
X149529446Y-55540486D02*
X149481827Y-55588105D01*
X149481827Y-55588105D02*
X149434208Y-55683343D01*
X149434208Y-55683343D02*
X149434208Y-55826200D01*
X149434208Y-55826200D02*
X149481827Y-55921438D01*
X149481827Y-55921438D02*
X149529446Y-55969057D01*
X149529446Y-55969057D02*
X149624684Y-56016676D01*
X149624684Y-56016676D02*
X150005636Y-56016676D01*
X176862782Y-57579001D02*
X176719925Y-57626620D01*
X176719925Y-57626620D02*
X176672306Y-57674239D01*
X176672306Y-57674239D02*
X176624687Y-57769477D01*
X176624687Y-57769477D02*
X176624687Y-57912334D01*
X176624687Y-57912334D02*
X176672306Y-58007572D01*
X176672306Y-58007572D02*
X176719925Y-58055192D01*
X176719925Y-58055192D02*
X176815163Y-58102811D01*
X176815163Y-58102811D02*
X177196115Y-58102811D01*
X177196115Y-58102811D02*
X177196115Y-57102811D01*
X177196115Y-57102811D02*
X176862782Y-57102811D01*
X176862782Y-57102811D02*
X176767544Y-57150430D01*
X176767544Y-57150430D02*
X176719925Y-57198049D01*
X176719925Y-57198049D02*
X176672306Y-57293287D01*
X176672306Y-57293287D02*
X176672306Y-57388525D01*
X176672306Y-57388525D02*
X176719925Y-57483763D01*
X176719925Y-57483763D02*
X176767544Y-57531382D01*
X176767544Y-57531382D02*
X176862782Y-57579001D01*
X176862782Y-57579001D02*
X177196115Y-57579001D01*
X176196115Y-57579001D02*
X175862782Y-57579001D01*
X175719925Y-58102811D02*
X176196115Y-58102811D01*
X176196115Y-58102811D02*
X176196115Y-57102811D01*
X176196115Y-57102811D02*
X175719925Y-57102811D01*
X175291353Y-57579001D02*
X174958020Y-57579001D01*
X174815163Y-58102811D02*
X175291353Y-58102811D01*
X175291353Y-58102811D02*
X175291353Y-57102811D01*
X175291353Y-57102811D02*
X174815163Y-57102811D01*
X174386591Y-58102811D02*
X174386591Y-57102811D01*
X174386591Y-57102811D02*
X174005639Y-57102811D01*
X174005639Y-57102811D02*
X173910401Y-57150430D01*
X173910401Y-57150430D02*
X173862782Y-57198049D01*
X173862782Y-57198049D02*
X173815163Y-57293287D01*
X173815163Y-57293287D02*
X173815163Y-57436144D01*
X173815163Y-57436144D02*
X173862782Y-57531382D01*
X173862782Y-57531382D02*
X173910401Y-57579001D01*
X173910401Y-57579001D02*
X174005639Y-57626620D01*
X174005639Y-57626620D02*
X174386591Y-57626620D01*
X172291353Y-57579001D02*
X172148496Y-57626620D01*
X172148496Y-57626620D02*
X172100877Y-57674239D01*
X172100877Y-57674239D02*
X172053258Y-57769477D01*
X172053258Y-57769477D02*
X172053258Y-57912334D01*
X172053258Y-57912334D02*
X172100877Y-58007572D01*
X172100877Y-58007572D02*
X172148496Y-58055192D01*
X172148496Y-58055192D02*
X172243734Y-58102811D01*
X172243734Y-58102811D02*
X172624686Y-58102811D01*
X172624686Y-58102811D02*
X172624686Y-57102811D01*
X172624686Y-57102811D02*
X172291353Y-57102811D01*
X172291353Y-57102811D02*
X172196115Y-57150430D01*
X172196115Y-57150430D02*
X172148496Y-57198049D01*
X172148496Y-57198049D02*
X172100877Y-57293287D01*
X172100877Y-57293287D02*
X172100877Y-57388525D01*
X172100877Y-57388525D02*
X172148496Y-57483763D01*
X172148496Y-57483763D02*
X172196115Y-57531382D01*
X172196115Y-57531382D02*
X172291353Y-57579001D01*
X172291353Y-57579001D02*
X172624686Y-57579001D01*
X171624686Y-57579001D02*
X171291353Y-57579001D01*
X171148496Y-58102811D02*
X171624686Y-58102811D01*
X171624686Y-58102811D02*
X171624686Y-57102811D01*
X171624686Y-57102811D02*
X171148496Y-57102811D01*
X170719924Y-57579001D02*
X170386591Y-57579001D01*
X170243734Y-58102811D02*
X170719924Y-58102811D01*
X170719924Y-58102811D02*
X170719924Y-57102811D01*
X170719924Y-57102811D02*
X170243734Y-57102811D01*
X169815162Y-58102811D02*
X169815162Y-57102811D01*
X169815162Y-57102811D02*
X169434210Y-57102811D01*
X169434210Y-57102811D02*
X169338972Y-57150430D01*
X169338972Y-57150430D02*
X169291353Y-57198049D01*
X169291353Y-57198049D02*
X169243734Y-57293287D01*
X169243734Y-57293287D02*
X169243734Y-57436144D01*
X169243734Y-57436144D02*
X169291353Y-57531382D01*
X169291353Y-57531382D02*
X169338972Y-57579001D01*
X169338972Y-57579001D02*
X169434210Y-57626620D01*
X169434210Y-57626620D02*
X169815162Y-57626620D01*
X167719924Y-57579001D02*
X167577067Y-57626620D01*
X167577067Y-57626620D02*
X167529448Y-57674239D01*
X167529448Y-57674239D02*
X167481829Y-57769477D01*
X167481829Y-57769477D02*
X167481829Y-57912334D01*
X167481829Y-57912334D02*
X167529448Y-58007572D01*
X167529448Y-58007572D02*
X167577067Y-58055192D01*
X167577067Y-58055192D02*
X167672305Y-58102811D01*
X167672305Y-58102811D02*
X168053257Y-58102811D01*
X168053257Y-58102811D02*
X168053257Y-57102811D01*
X168053257Y-57102811D02*
X167719924Y-57102811D01*
X167719924Y-57102811D02*
X167624686Y-57150430D01*
X167624686Y-57150430D02*
X167577067Y-57198049D01*
X167577067Y-57198049D02*
X167529448Y-57293287D01*
X167529448Y-57293287D02*
X167529448Y-57388525D01*
X167529448Y-57388525D02*
X167577067Y-57483763D01*
X167577067Y-57483763D02*
X167624686Y-57531382D01*
X167624686Y-57531382D02*
X167719924Y-57579001D01*
X167719924Y-57579001D02*
X168053257Y-57579001D01*
X167053257Y-57579001D02*
X166719924Y-57579001D01*
X166577067Y-58102811D02*
X167053257Y-58102811D01*
X167053257Y-58102811D02*
X167053257Y-57102811D01*
X167053257Y-57102811D02*
X166577067Y-57102811D01*
X166148495Y-57579001D02*
X165815162Y-57579001D01*
X165672305Y-58102811D02*
X166148495Y-58102811D01*
X166148495Y-58102811D02*
X166148495Y-57102811D01*
X166148495Y-57102811D02*
X165672305Y-57102811D01*
X165243733Y-58102811D02*
X165243733Y-57102811D01*
X165243733Y-57102811D02*
X164862781Y-57102811D01*
X164862781Y-57102811D02*
X164767543Y-57150430D01*
X164767543Y-57150430D02*
X164719924Y-57198049D01*
X164719924Y-57198049D02*
X164672305Y-57293287D01*
X164672305Y-57293287D02*
X164672305Y-57436144D01*
X164672305Y-57436144D02*
X164719924Y-57531382D01*
X164719924Y-57531382D02*
X164767543Y-57579001D01*
X164767543Y-57579001D02*
X164862781Y-57626620D01*
X164862781Y-57626620D02*
X165243733Y-57626620D01*
X163148495Y-57579001D02*
X163005638Y-57626620D01*
X163005638Y-57626620D02*
X162958019Y-57674239D01*
X162958019Y-57674239D02*
X162910400Y-57769477D01*
X162910400Y-57769477D02*
X162910400Y-57912334D01*
X162910400Y-57912334D02*
X162958019Y-58007572D01*
X162958019Y-58007572D02*
X163005638Y-58055192D01*
X163005638Y-58055192D02*
X163100876Y-58102811D01*
X163100876Y-58102811D02*
X163481828Y-58102811D01*
X163481828Y-58102811D02*
X163481828Y-57102811D01*
X163481828Y-57102811D02*
X163148495Y-57102811D01*
X163148495Y-57102811D02*
X163053257Y-57150430D01*
X163053257Y-57150430D02*
X163005638Y-57198049D01*
X163005638Y-57198049D02*
X162958019Y-57293287D01*
X162958019Y-57293287D02*
X162958019Y-57388525D01*
X162958019Y-57388525D02*
X163005638Y-57483763D01*
X163005638Y-57483763D02*
X163053257Y-57531382D01*
X163053257Y-57531382D02*
X163148495Y-57579001D01*
X163148495Y-57579001D02*
X163481828Y-57579001D01*
X162481828Y-57579001D02*
X162148495Y-57579001D01*
X162005638Y-58102811D02*
X162481828Y-58102811D01*
X162481828Y-58102811D02*
X162481828Y-57102811D01*
X162481828Y-57102811D02*
X162005638Y-57102811D01*
X161577066Y-57579001D02*
X161243733Y-57579001D01*
X161100876Y-58102811D02*
X161577066Y-58102811D01*
X161577066Y-58102811D02*
X161577066Y-57102811D01*
X161577066Y-57102811D02*
X161100876Y-57102811D01*
X160672304Y-58102811D02*
X160672304Y-57102811D01*
X160672304Y-57102811D02*
X160291352Y-57102811D01*
X160291352Y-57102811D02*
X160196114Y-57150430D01*
X160196114Y-57150430D02*
X160148495Y-57198049D01*
X160148495Y-57198049D02*
X160100876Y-57293287D01*
X160100876Y-57293287D02*
X160100876Y-57436144D01*
X160100876Y-57436144D02*
X160148495Y-57531382D01*
X160148495Y-57531382D02*
X160196114Y-57579001D01*
X160196114Y-57579001D02*
X160291352Y-57626620D01*
X160291352Y-57626620D02*
X160672304Y-57626620D01*
X158577066Y-57579001D02*
X158434209Y-57626620D01*
X158434209Y-57626620D02*
X158386590Y-57674239D01*
X158386590Y-57674239D02*
X158338971Y-57769477D01*
X158338971Y-57769477D02*
X158338971Y-57912334D01*
X158338971Y-57912334D02*
X158386590Y-58007572D01*
X158386590Y-58007572D02*
X158434209Y-58055192D01*
X158434209Y-58055192D02*
X158529447Y-58102811D01*
X158529447Y-58102811D02*
X158910399Y-58102811D01*
X158910399Y-58102811D02*
X158910399Y-57102811D01*
X158910399Y-57102811D02*
X158577066Y-57102811D01*
X158577066Y-57102811D02*
X158481828Y-57150430D01*
X158481828Y-57150430D02*
X158434209Y-57198049D01*
X158434209Y-57198049D02*
X158386590Y-57293287D01*
X158386590Y-57293287D02*
X158386590Y-57388525D01*
X158386590Y-57388525D02*
X158434209Y-57483763D01*
X158434209Y-57483763D02*
X158481828Y-57531382D01*
X158481828Y-57531382D02*
X158577066Y-57579001D01*
X158577066Y-57579001D02*
X158910399Y-57579001D01*
X157910399Y-57579001D02*
X157577066Y-57579001D01*
X157434209Y-58102811D02*
X157910399Y-58102811D01*
X157910399Y-58102811D02*
X157910399Y-57102811D01*
X157910399Y-57102811D02*
X157434209Y-57102811D01*
X157005637Y-57579001D02*
X156672304Y-57579001D01*
X156529447Y-58102811D02*
X157005637Y-58102811D01*
X157005637Y-58102811D02*
X157005637Y-57102811D01*
X157005637Y-57102811D02*
X156529447Y-57102811D01*
X156100875Y-58102811D02*
X156100875Y-57102811D01*
X156100875Y-57102811D02*
X155719923Y-57102811D01*
X155719923Y-57102811D02*
X155624685Y-57150430D01*
X155624685Y-57150430D02*
X155577066Y-57198049D01*
X155577066Y-57198049D02*
X155529447Y-57293287D01*
X155529447Y-57293287D02*
X155529447Y-57436144D01*
X155529447Y-57436144D02*
X155577066Y-57531382D01*
X155577066Y-57531382D02*
X155624685Y-57579001D01*
X155624685Y-57579001D02*
X155719923Y-57626620D01*
X155719923Y-57626620D02*
X156100875Y-57626620D01*
X154005637Y-57579001D02*
X153862780Y-57626620D01*
X153862780Y-57626620D02*
X153815161Y-57674239D01*
X153815161Y-57674239D02*
X153767542Y-57769477D01*
X153767542Y-57769477D02*
X153767542Y-57912334D01*
X153767542Y-57912334D02*
X153815161Y-58007572D01*
X153815161Y-58007572D02*
X153862780Y-58055192D01*
X153862780Y-58055192D02*
X153958018Y-58102811D01*
X153958018Y-58102811D02*
X154338970Y-58102811D01*
X154338970Y-58102811D02*
X154338970Y-57102811D01*
X154338970Y-57102811D02*
X154005637Y-57102811D01*
X154005637Y-57102811D02*
X153910399Y-57150430D01*
X153910399Y-57150430D02*
X153862780Y-57198049D01*
X153862780Y-57198049D02*
X153815161Y-57293287D01*
X153815161Y-57293287D02*
X153815161Y-57388525D01*
X153815161Y-57388525D02*
X153862780Y-57483763D01*
X153862780Y-57483763D02*
X153910399Y-57531382D01*
X153910399Y-57531382D02*
X154005637Y-57579001D01*
X154005637Y-57579001D02*
X154338970Y-57579001D01*
X153338970Y-57579001D02*
X153005637Y-57579001D01*
X152862780Y-58102811D02*
X153338970Y-58102811D01*
X153338970Y-58102811D02*
X153338970Y-57102811D01*
X153338970Y-57102811D02*
X152862780Y-57102811D01*
X152434208Y-57579001D02*
X152100875Y-57579001D01*
X151958018Y-58102811D02*
X152434208Y-58102811D01*
X152434208Y-58102811D02*
X152434208Y-57102811D01*
X152434208Y-57102811D02*
X151958018Y-57102811D01*
X151529446Y-58102811D02*
X151529446Y-57102811D01*
X151529446Y-57102811D02*
X151148494Y-57102811D01*
X151148494Y-57102811D02*
X151053256Y-57150430D01*
X151053256Y-57150430D02*
X151005637Y-57198049D01*
X151005637Y-57198049D02*
X150958018Y-57293287D01*
X150958018Y-57293287D02*
X150958018Y-57436144D01*
X150958018Y-57436144D02*
X151005637Y-57531382D01*
X151005637Y-57531382D02*
X151053256Y-57579001D01*
X151053256Y-57579001D02*
X151148494Y-57626620D01*
X151148494Y-57626620D02*
X151529446Y-57626620D01*
X175338972Y-59188945D02*
X175196115Y-59236564D01*
X175196115Y-59236564D02*
X175148496Y-59284183D01*
X175148496Y-59284183D02*
X175100877Y-59379421D01*
X175100877Y-59379421D02*
X175100877Y-59522278D01*
X175100877Y-59522278D02*
X175148496Y-59617516D01*
X175148496Y-59617516D02*
X175196115Y-59665136D01*
X175196115Y-59665136D02*
X175291353Y-59712755D01*
X175291353Y-59712755D02*
X175672305Y-59712755D01*
X175672305Y-59712755D02*
X175672305Y-58712755D01*
X175672305Y-58712755D02*
X175338972Y-58712755D01*
X175338972Y-58712755D02*
X175243734Y-58760374D01*
X175243734Y-58760374D02*
X175196115Y-58807993D01*
X175196115Y-58807993D02*
X175148496Y-58903231D01*
X175148496Y-58903231D02*
X175148496Y-58998469D01*
X175148496Y-58998469D02*
X175196115Y-59093707D01*
X175196115Y-59093707D02*
X175243734Y-59141326D01*
X175243734Y-59141326D02*
X175338972Y-59188945D01*
X175338972Y-59188945D02*
X175672305Y-59188945D01*
X174672305Y-59188945D02*
X174338972Y-59188945D01*
X174196115Y-59712755D02*
X174672305Y-59712755D01*
X174672305Y-59712755D02*
X174672305Y-58712755D01*
X174672305Y-58712755D02*
X174196115Y-58712755D01*
X173767543Y-59188945D02*
X173434210Y-59188945D01*
X173291353Y-59712755D02*
X173767543Y-59712755D01*
X173767543Y-59712755D02*
X173767543Y-58712755D01*
X173767543Y-58712755D02*
X173291353Y-58712755D01*
X172862781Y-59712755D02*
X172862781Y-58712755D01*
X172862781Y-58712755D02*
X172481829Y-58712755D01*
X172481829Y-58712755D02*
X172386591Y-58760374D01*
X172386591Y-58760374D02*
X172338972Y-58807993D01*
X172338972Y-58807993D02*
X172291353Y-58903231D01*
X172291353Y-58903231D02*
X172291353Y-59046088D01*
X172291353Y-59046088D02*
X172338972Y-59141326D01*
X172338972Y-59141326D02*
X172386591Y-59188945D01*
X172386591Y-59188945D02*
X172481829Y-59236564D01*
X172481829Y-59236564D02*
X172862781Y-59236564D01*
X170767543Y-59188945D02*
X170624686Y-59236564D01*
X170624686Y-59236564D02*
X170577067Y-59284183D01*
X170577067Y-59284183D02*
X170529448Y-59379421D01*
X170529448Y-59379421D02*
X170529448Y-59522278D01*
X170529448Y-59522278D02*
X170577067Y-59617516D01*
X170577067Y-59617516D02*
X170624686Y-59665136D01*
X170624686Y-59665136D02*
X170719924Y-59712755D01*
X170719924Y-59712755D02*
X171100876Y-59712755D01*
X171100876Y-59712755D02*
X171100876Y-58712755D01*
X171100876Y-58712755D02*
X170767543Y-58712755D01*
X170767543Y-58712755D02*
X170672305Y-58760374D01*
X170672305Y-58760374D02*
X170624686Y-58807993D01*
X170624686Y-58807993D02*
X170577067Y-58903231D01*
X170577067Y-58903231D02*
X170577067Y-58998469D01*
X170577067Y-58998469D02*
X170624686Y-59093707D01*
X170624686Y-59093707D02*
X170672305Y-59141326D01*
X170672305Y-59141326D02*
X170767543Y-59188945D01*
X170767543Y-59188945D02*
X171100876Y-59188945D01*
X170100876Y-59188945D02*
X169767543Y-59188945D01*
X169624686Y-59712755D02*
X170100876Y-59712755D01*
X170100876Y-59712755D02*
X170100876Y-58712755D01*
X170100876Y-58712755D02*
X169624686Y-58712755D01*
X169196114Y-59188945D02*
X168862781Y-59188945D01*
X168719924Y-59712755D02*
X169196114Y-59712755D01*
X169196114Y-59712755D02*
X169196114Y-58712755D01*
X169196114Y-58712755D02*
X168719924Y-58712755D01*
X168291352Y-59712755D02*
X168291352Y-58712755D01*
X168291352Y-58712755D02*
X167910400Y-58712755D01*
X167910400Y-58712755D02*
X167815162Y-58760374D01*
X167815162Y-58760374D02*
X167767543Y-58807993D01*
X167767543Y-58807993D02*
X167719924Y-58903231D01*
X167719924Y-58903231D02*
X167719924Y-59046088D01*
X167719924Y-59046088D02*
X167767543Y-59141326D01*
X167767543Y-59141326D02*
X167815162Y-59188945D01*
X167815162Y-59188945D02*
X167910400Y-59236564D01*
X167910400Y-59236564D02*
X168291352Y-59236564D01*
X166196114Y-59188945D02*
X166053257Y-59236564D01*
X166053257Y-59236564D02*
X166005638Y-59284183D01*
X166005638Y-59284183D02*
X165958019Y-59379421D01*
X165958019Y-59379421D02*
X165958019Y-59522278D01*
X165958019Y-59522278D02*
X166005638Y-59617516D01*
X166005638Y-59617516D02*
X166053257Y-59665136D01*
X166053257Y-59665136D02*
X166148495Y-59712755D01*
X166148495Y-59712755D02*
X166529447Y-59712755D01*
X166529447Y-59712755D02*
X166529447Y-58712755D01*
X166529447Y-58712755D02*
X166196114Y-58712755D01*
X166196114Y-58712755D02*
X166100876Y-58760374D01*
X166100876Y-58760374D02*
X166053257Y-58807993D01*
X166053257Y-58807993D02*
X166005638Y-58903231D01*
X166005638Y-58903231D02*
X166005638Y-58998469D01*
X166005638Y-58998469D02*
X166053257Y-59093707D01*
X166053257Y-59093707D02*
X166100876Y-59141326D01*
X166100876Y-59141326D02*
X166196114Y-59188945D01*
X166196114Y-59188945D02*
X166529447Y-59188945D01*
X165529447Y-59188945D02*
X165196114Y-59188945D01*
X165053257Y-59712755D02*
X165529447Y-59712755D01*
X165529447Y-59712755D02*
X165529447Y-58712755D01*
X165529447Y-58712755D02*
X165053257Y-58712755D01*
X164624685Y-59188945D02*
X164291352Y-59188945D01*
X164148495Y-59712755D02*
X164624685Y-59712755D01*
X164624685Y-59712755D02*
X164624685Y-58712755D01*
X164624685Y-58712755D02*
X164148495Y-58712755D01*
X163719923Y-59712755D02*
X163719923Y-58712755D01*
X163719923Y-58712755D02*
X163338971Y-58712755D01*
X163338971Y-58712755D02*
X163243733Y-58760374D01*
X163243733Y-58760374D02*
X163196114Y-58807993D01*
X163196114Y-58807993D02*
X163148495Y-58903231D01*
X163148495Y-58903231D02*
X163148495Y-59046088D01*
X163148495Y-59046088D02*
X163196114Y-59141326D01*
X163196114Y-59141326D02*
X163243733Y-59188945D01*
X163243733Y-59188945D02*
X163338971Y-59236564D01*
X163338971Y-59236564D02*
X163719923Y-59236564D01*
X161624685Y-59188945D02*
X161481828Y-59236564D01*
X161481828Y-59236564D02*
X161434209Y-59284183D01*
X161434209Y-59284183D02*
X161386590Y-59379421D01*
X161386590Y-59379421D02*
X161386590Y-59522278D01*
X161386590Y-59522278D02*
X161434209Y-59617516D01*
X161434209Y-59617516D02*
X161481828Y-59665136D01*
X161481828Y-59665136D02*
X161577066Y-59712755D01*
X161577066Y-59712755D02*
X161958018Y-59712755D01*
X161958018Y-59712755D02*
X161958018Y-58712755D01*
X161958018Y-58712755D02*
X161624685Y-58712755D01*
X161624685Y-58712755D02*
X161529447Y-58760374D01*
X161529447Y-58760374D02*
X161481828Y-58807993D01*
X161481828Y-58807993D02*
X161434209Y-58903231D01*
X161434209Y-58903231D02*
X161434209Y-58998469D01*
X161434209Y-58998469D02*
X161481828Y-59093707D01*
X161481828Y-59093707D02*
X161529447Y-59141326D01*
X161529447Y-59141326D02*
X161624685Y-59188945D01*
X161624685Y-59188945D02*
X161958018Y-59188945D01*
X160958018Y-59188945D02*
X160624685Y-59188945D01*
X160481828Y-59712755D02*
X160958018Y-59712755D01*
X160958018Y-59712755D02*
X160958018Y-58712755D01*
X160958018Y-58712755D02*
X160481828Y-58712755D01*
X160053256Y-59188945D02*
X159719923Y-59188945D01*
X159577066Y-59712755D02*
X160053256Y-59712755D01*
X160053256Y-59712755D02*
X160053256Y-58712755D01*
X160053256Y-58712755D02*
X159577066Y-58712755D01*
X159148494Y-59712755D02*
X159148494Y-58712755D01*
X159148494Y-58712755D02*
X158767542Y-58712755D01*
X158767542Y-58712755D02*
X158672304Y-58760374D01*
X158672304Y-58760374D02*
X158624685Y-58807993D01*
X158624685Y-58807993D02*
X158577066Y-58903231D01*
X158577066Y-58903231D02*
X158577066Y-59046088D01*
X158577066Y-59046088D02*
X158624685Y-59141326D01*
X158624685Y-59141326D02*
X158672304Y-59188945D01*
X158672304Y-59188945D02*
X158767542Y-59236564D01*
X158767542Y-59236564D02*
X159148494Y-59236564D01*
X157053256Y-59188945D02*
X156910399Y-59236564D01*
X156910399Y-59236564D02*
X156862780Y-59284183D01*
X156862780Y-59284183D02*
X156815161Y-59379421D01*
X156815161Y-59379421D02*
X156815161Y-59522278D01*
X156815161Y-59522278D02*
X156862780Y-59617516D01*
X156862780Y-59617516D02*
X156910399Y-59665136D01*
X156910399Y-59665136D02*
X157005637Y-59712755D01*
X157005637Y-59712755D02*
X157386589Y-59712755D01*
X157386589Y-59712755D02*
X157386589Y-58712755D01*
X157386589Y-58712755D02*
X157053256Y-58712755D01*
X157053256Y-58712755D02*
X156958018Y-58760374D01*
X156958018Y-58760374D02*
X156910399Y-58807993D01*
X156910399Y-58807993D02*
X156862780Y-58903231D01*
X156862780Y-58903231D02*
X156862780Y-58998469D01*
X156862780Y-58998469D02*
X156910399Y-59093707D01*
X156910399Y-59093707D02*
X156958018Y-59141326D01*
X156958018Y-59141326D02*
X157053256Y-59188945D01*
X157053256Y-59188945D02*
X157386589Y-59188945D01*
X156386589Y-59188945D02*
X156053256Y-59188945D01*
X155910399Y-59712755D02*
X156386589Y-59712755D01*
X156386589Y-59712755D02*
X156386589Y-58712755D01*
X156386589Y-58712755D02*
X155910399Y-58712755D01*
X155481827Y-59188945D02*
X155148494Y-59188945D01*
X155005637Y-59712755D02*
X155481827Y-59712755D01*
X155481827Y-59712755D02*
X155481827Y-58712755D01*
X155481827Y-58712755D02*
X155005637Y-58712755D01*
X154577065Y-59712755D02*
X154577065Y-58712755D01*
X154577065Y-58712755D02*
X154196113Y-58712755D01*
X154196113Y-58712755D02*
X154100875Y-58760374D01*
X154100875Y-58760374D02*
X154053256Y-58807993D01*
X154053256Y-58807993D02*
X154005637Y-58903231D01*
X154005637Y-58903231D02*
X154005637Y-59046088D01*
X154005637Y-59046088D02*
X154053256Y-59141326D01*
X154053256Y-59141326D02*
X154100875Y-59188945D01*
X154100875Y-59188945D02*
X154196113Y-59236564D01*
X154196113Y-59236564D02*
X154577065Y-59236564D01*
X152481827Y-59188945D02*
X152338970Y-59236564D01*
X152338970Y-59236564D02*
X152291351Y-59284183D01*
X152291351Y-59284183D02*
X152243732Y-59379421D01*
X152243732Y-59379421D02*
X152243732Y-59522278D01*
X152243732Y-59522278D02*
X152291351Y-59617516D01*
X152291351Y-59617516D02*
X152338970Y-59665136D01*
X152338970Y-59665136D02*
X152434208Y-59712755D01*
X152434208Y-59712755D02*
X152815160Y-59712755D01*
X152815160Y-59712755D02*
X152815160Y-58712755D01*
X152815160Y-58712755D02*
X152481827Y-58712755D01*
X152481827Y-58712755D02*
X152386589Y-58760374D01*
X152386589Y-58760374D02*
X152338970Y-58807993D01*
X152338970Y-58807993D02*
X152291351Y-58903231D01*
X152291351Y-58903231D02*
X152291351Y-58998469D01*
X152291351Y-58998469D02*
X152338970Y-59093707D01*
X152338970Y-59093707D02*
X152386589Y-59141326D01*
X152386589Y-59141326D02*
X152481827Y-59188945D01*
X152481827Y-59188945D02*
X152815160Y-59188945D01*
X151815160Y-59188945D02*
X151481827Y-59188945D01*
X151338970Y-59712755D02*
X151815160Y-59712755D01*
X151815160Y-59712755D02*
X151815160Y-58712755D01*
X151815160Y-58712755D02*
X151338970Y-58712755D01*
X150910398Y-59188945D02*
X150577065Y-59188945D01*
X150434208Y-59712755D02*
X150910398Y-59712755D01*
X150910398Y-59712755D02*
X150910398Y-58712755D01*
X150910398Y-58712755D02*
X150434208Y-58712755D01*
X150005636Y-59712755D02*
X150005636Y-58712755D01*
X150005636Y-58712755D02*
X149624684Y-58712755D01*
X149624684Y-58712755D02*
X149529446Y-58760374D01*
X149529446Y-58760374D02*
X149481827Y-58807993D01*
X149481827Y-58807993D02*
X149434208Y-58903231D01*
X149434208Y-58903231D02*
X149434208Y-59046088D01*
X149434208Y-59046088D02*
X149481827Y-59141326D01*
X149481827Y-59141326D02*
X149529446Y-59188945D01*
X149529446Y-59188945D02*
X149624684Y-59236564D01*
X149624684Y-59236564D02*
X150005636Y-59236564D01*
X176862782Y-60798889D02*
X176719925Y-60846508D01*
X176719925Y-60846508D02*
X176672306Y-60894127D01*
X176672306Y-60894127D02*
X176624687Y-60989365D01*
X176624687Y-60989365D02*
X176624687Y-61132222D01*
X176624687Y-61132222D02*
X176672306Y-61227460D01*
X176672306Y-61227460D02*
X176719925Y-61275080D01*
X176719925Y-61275080D02*
X176815163Y-61322699D01*
X176815163Y-61322699D02*
X177196115Y-61322699D01*
X177196115Y-61322699D02*
X177196115Y-60322699D01*
X177196115Y-60322699D02*
X176862782Y-60322699D01*
X176862782Y-60322699D02*
X176767544Y-60370318D01*
X176767544Y-60370318D02*
X176719925Y-60417937D01*
X176719925Y-60417937D02*
X176672306Y-60513175D01*
X176672306Y-60513175D02*
X176672306Y-60608413D01*
X176672306Y-60608413D02*
X176719925Y-60703651D01*
X176719925Y-60703651D02*
X176767544Y-60751270D01*
X176767544Y-60751270D02*
X176862782Y-60798889D01*
X176862782Y-60798889D02*
X177196115Y-60798889D01*
X176196115Y-60798889D02*
X175862782Y-60798889D01*
X175719925Y-61322699D02*
X176196115Y-61322699D01*
X176196115Y-61322699D02*
X176196115Y-60322699D01*
X176196115Y-60322699D02*
X175719925Y-60322699D01*
X175291353Y-60798889D02*
X174958020Y-60798889D01*
X174815163Y-61322699D02*
X175291353Y-61322699D01*
X175291353Y-61322699D02*
X175291353Y-60322699D01*
X175291353Y-60322699D02*
X174815163Y-60322699D01*
X174386591Y-61322699D02*
X174386591Y-60322699D01*
X174386591Y-60322699D02*
X174005639Y-60322699D01*
X174005639Y-60322699D02*
X173910401Y-60370318D01*
X173910401Y-60370318D02*
X173862782Y-60417937D01*
X173862782Y-60417937D02*
X173815163Y-60513175D01*
X173815163Y-60513175D02*
X173815163Y-60656032D01*
X173815163Y-60656032D02*
X173862782Y-60751270D01*
X173862782Y-60751270D02*
X173910401Y-60798889D01*
X173910401Y-60798889D02*
X174005639Y-60846508D01*
X174005639Y-60846508D02*
X174386591Y-60846508D01*
X172291353Y-60798889D02*
X172148496Y-60846508D01*
X172148496Y-60846508D02*
X172100877Y-60894127D01*
X172100877Y-60894127D02*
X172053258Y-60989365D01*
X172053258Y-60989365D02*
X172053258Y-61132222D01*
X172053258Y-61132222D02*
X172100877Y-61227460D01*
X172100877Y-61227460D02*
X172148496Y-61275080D01*
X172148496Y-61275080D02*
X172243734Y-61322699D01*
X172243734Y-61322699D02*
X172624686Y-61322699D01*
X172624686Y-61322699D02*
X172624686Y-60322699D01*
X172624686Y-60322699D02*
X172291353Y-60322699D01*
X172291353Y-60322699D02*
X172196115Y-60370318D01*
X172196115Y-60370318D02*
X172148496Y-60417937D01*
X172148496Y-60417937D02*
X172100877Y-60513175D01*
X172100877Y-60513175D02*
X172100877Y-60608413D01*
X172100877Y-60608413D02*
X172148496Y-60703651D01*
X172148496Y-60703651D02*
X172196115Y-60751270D01*
X172196115Y-60751270D02*
X172291353Y-60798889D01*
X172291353Y-60798889D02*
X172624686Y-60798889D01*
X171624686Y-60798889D02*
X171291353Y-60798889D01*
X171148496Y-61322699D02*
X171624686Y-61322699D01*
X171624686Y-61322699D02*
X171624686Y-60322699D01*
X171624686Y-60322699D02*
X171148496Y-60322699D01*
X170719924Y-60798889D02*
X170386591Y-60798889D01*
X170243734Y-61322699D02*
X170719924Y-61322699D01*
X170719924Y-61322699D02*
X170719924Y-60322699D01*
X170719924Y-60322699D02*
X170243734Y-60322699D01*
X169815162Y-61322699D02*
X169815162Y-60322699D01*
X169815162Y-60322699D02*
X169434210Y-60322699D01*
X169434210Y-60322699D02*
X169338972Y-60370318D01*
X169338972Y-60370318D02*
X169291353Y-60417937D01*
X169291353Y-60417937D02*
X169243734Y-60513175D01*
X169243734Y-60513175D02*
X169243734Y-60656032D01*
X169243734Y-60656032D02*
X169291353Y-60751270D01*
X169291353Y-60751270D02*
X169338972Y-60798889D01*
X169338972Y-60798889D02*
X169434210Y-60846508D01*
X169434210Y-60846508D02*
X169815162Y-60846508D01*
X167719924Y-60798889D02*
X167577067Y-60846508D01*
X167577067Y-60846508D02*
X167529448Y-60894127D01*
X167529448Y-60894127D02*
X167481829Y-60989365D01*
X167481829Y-60989365D02*
X167481829Y-61132222D01*
X167481829Y-61132222D02*
X167529448Y-61227460D01*
X167529448Y-61227460D02*
X167577067Y-61275080D01*
X167577067Y-61275080D02*
X167672305Y-61322699D01*
X167672305Y-61322699D02*
X168053257Y-61322699D01*
X168053257Y-61322699D02*
X168053257Y-60322699D01*
X168053257Y-60322699D02*
X167719924Y-60322699D01*
X167719924Y-60322699D02*
X167624686Y-60370318D01*
X167624686Y-60370318D02*
X167577067Y-60417937D01*
X167577067Y-60417937D02*
X167529448Y-60513175D01*
X167529448Y-60513175D02*
X167529448Y-60608413D01*
X167529448Y-60608413D02*
X167577067Y-60703651D01*
X167577067Y-60703651D02*
X167624686Y-60751270D01*
X167624686Y-60751270D02*
X167719924Y-60798889D01*
X167719924Y-60798889D02*
X168053257Y-60798889D01*
X167053257Y-60798889D02*
X166719924Y-60798889D01*
X166577067Y-61322699D02*
X167053257Y-61322699D01*
X167053257Y-61322699D02*
X167053257Y-60322699D01*
X167053257Y-60322699D02*
X166577067Y-60322699D01*
X166148495Y-60798889D02*
X165815162Y-60798889D01*
X165672305Y-61322699D02*
X166148495Y-61322699D01*
X166148495Y-61322699D02*
X166148495Y-60322699D01*
X166148495Y-60322699D02*
X165672305Y-60322699D01*
X165243733Y-61322699D02*
X165243733Y-60322699D01*
X165243733Y-60322699D02*
X164862781Y-60322699D01*
X164862781Y-60322699D02*
X164767543Y-60370318D01*
X164767543Y-60370318D02*
X164719924Y-60417937D01*
X164719924Y-60417937D02*
X164672305Y-60513175D01*
X164672305Y-60513175D02*
X164672305Y-60656032D01*
X164672305Y-60656032D02*
X164719924Y-60751270D01*
X164719924Y-60751270D02*
X164767543Y-60798889D01*
X164767543Y-60798889D02*
X164862781Y-60846508D01*
X164862781Y-60846508D02*
X165243733Y-60846508D01*
X163148495Y-60798889D02*
X163005638Y-60846508D01*
X163005638Y-60846508D02*
X162958019Y-60894127D01*
X162958019Y-60894127D02*
X162910400Y-60989365D01*
X162910400Y-60989365D02*
X162910400Y-61132222D01*
X162910400Y-61132222D02*
X162958019Y-61227460D01*
X162958019Y-61227460D02*
X163005638Y-61275080D01*
X163005638Y-61275080D02*
X163100876Y-61322699D01*
X163100876Y-61322699D02*
X163481828Y-61322699D01*
X163481828Y-61322699D02*
X163481828Y-60322699D01*
X163481828Y-60322699D02*
X163148495Y-60322699D01*
X163148495Y-60322699D02*
X163053257Y-60370318D01*
X163053257Y-60370318D02*
X163005638Y-60417937D01*
X163005638Y-60417937D02*
X162958019Y-60513175D01*
X162958019Y-60513175D02*
X162958019Y-60608413D01*
X162958019Y-60608413D02*
X163005638Y-60703651D01*
X163005638Y-60703651D02*
X163053257Y-60751270D01*
X163053257Y-60751270D02*
X163148495Y-60798889D01*
X163148495Y-60798889D02*
X163481828Y-60798889D01*
X162481828Y-60798889D02*
X162148495Y-60798889D01*
X162005638Y-61322699D02*
X162481828Y-61322699D01*
X162481828Y-61322699D02*
X162481828Y-60322699D01*
X162481828Y-60322699D02*
X162005638Y-60322699D01*
X161577066Y-60798889D02*
X161243733Y-60798889D01*
X161100876Y-61322699D02*
X161577066Y-61322699D01*
X161577066Y-61322699D02*
X161577066Y-60322699D01*
X161577066Y-60322699D02*
X161100876Y-60322699D01*
X160672304Y-61322699D02*
X160672304Y-60322699D01*
X160672304Y-60322699D02*
X160291352Y-60322699D01*
X160291352Y-60322699D02*
X160196114Y-60370318D01*
X160196114Y-60370318D02*
X160148495Y-60417937D01*
X160148495Y-60417937D02*
X160100876Y-60513175D01*
X160100876Y-60513175D02*
X160100876Y-60656032D01*
X160100876Y-60656032D02*
X160148495Y-60751270D01*
X160148495Y-60751270D02*
X160196114Y-60798889D01*
X160196114Y-60798889D02*
X160291352Y-60846508D01*
X160291352Y-60846508D02*
X160672304Y-60846508D01*
X158577066Y-60798889D02*
X158434209Y-60846508D01*
X158434209Y-60846508D02*
X158386590Y-60894127D01*
X158386590Y-60894127D02*
X158338971Y-60989365D01*
X158338971Y-60989365D02*
X158338971Y-61132222D01*
X158338971Y-61132222D02*
X158386590Y-61227460D01*
X158386590Y-61227460D02*
X158434209Y-61275080D01*
X158434209Y-61275080D02*
X158529447Y-61322699D01*
X158529447Y-61322699D02*
X158910399Y-61322699D01*
X158910399Y-61322699D02*
X158910399Y-60322699D01*
X158910399Y-60322699D02*
X158577066Y-60322699D01*
X158577066Y-60322699D02*
X158481828Y-60370318D01*
X158481828Y-60370318D02*
X158434209Y-60417937D01*
X158434209Y-60417937D02*
X158386590Y-60513175D01*
X158386590Y-60513175D02*
X158386590Y-60608413D01*
X158386590Y-60608413D02*
X158434209Y-60703651D01*
X158434209Y-60703651D02*
X158481828Y-60751270D01*
X158481828Y-60751270D02*
X158577066Y-60798889D01*
X158577066Y-60798889D02*
X158910399Y-60798889D01*
X157910399Y-60798889D02*
X157577066Y-60798889D01*
X157434209Y-61322699D02*
X157910399Y-61322699D01*
X157910399Y-61322699D02*
X157910399Y-60322699D01*
X157910399Y-60322699D02*
X157434209Y-60322699D01*
X157005637Y-60798889D02*
X156672304Y-60798889D01*
X156529447Y-61322699D02*
X157005637Y-61322699D01*
X157005637Y-61322699D02*
X157005637Y-60322699D01*
X157005637Y-60322699D02*
X156529447Y-60322699D01*
X156100875Y-61322699D02*
X156100875Y-60322699D01*
X156100875Y-60322699D02*
X155719923Y-60322699D01*
X155719923Y-60322699D02*
X155624685Y-60370318D01*
X155624685Y-60370318D02*
X155577066Y-60417937D01*
X155577066Y-60417937D02*
X155529447Y-60513175D01*
X155529447Y-60513175D02*
X155529447Y-60656032D01*
X155529447Y-60656032D02*
X155577066Y-60751270D01*
X155577066Y-60751270D02*
X155624685Y-60798889D01*
X155624685Y-60798889D02*
X155719923Y-60846508D01*
X155719923Y-60846508D02*
X156100875Y-60846508D01*
X154005637Y-60798889D02*
X153862780Y-60846508D01*
X153862780Y-60846508D02*
X153815161Y-60894127D01*
X153815161Y-60894127D02*
X153767542Y-60989365D01*
X153767542Y-60989365D02*
X153767542Y-61132222D01*
X153767542Y-61132222D02*
X153815161Y-61227460D01*
X153815161Y-61227460D02*
X153862780Y-61275080D01*
X153862780Y-61275080D02*
X153958018Y-61322699D01*
X153958018Y-61322699D02*
X154338970Y-61322699D01*
X154338970Y-61322699D02*
X154338970Y-60322699D01*
X154338970Y-60322699D02*
X154005637Y-60322699D01*
X154005637Y-60322699D02*
X153910399Y-60370318D01*
X153910399Y-60370318D02*
X153862780Y-60417937D01*
X153862780Y-60417937D02*
X153815161Y-60513175D01*
X153815161Y-60513175D02*
X153815161Y-60608413D01*
X153815161Y-60608413D02*
X153862780Y-60703651D01*
X153862780Y-60703651D02*
X153910399Y-60751270D01*
X153910399Y-60751270D02*
X154005637Y-60798889D01*
X154005637Y-60798889D02*
X154338970Y-60798889D01*
X153338970Y-60798889D02*
X153005637Y-60798889D01*
X152862780Y-61322699D02*
X153338970Y-61322699D01*
X153338970Y-61322699D02*
X153338970Y-60322699D01*
X153338970Y-60322699D02*
X152862780Y-60322699D01*
X152434208Y-60798889D02*
X152100875Y-60798889D01*
X151958018Y-61322699D02*
X152434208Y-61322699D01*
X152434208Y-61322699D02*
X152434208Y-60322699D01*
X152434208Y-60322699D02*
X151958018Y-60322699D01*
X151529446Y-61322699D02*
X151529446Y-60322699D01*
X151529446Y-60322699D02*
X151148494Y-60322699D01*
X151148494Y-60322699D02*
X151053256Y-60370318D01*
X151053256Y-60370318D02*
X151005637Y-60417937D01*
X151005637Y-60417937D02*
X150958018Y-60513175D01*
X150958018Y-60513175D02*
X150958018Y-60656032D01*
X150958018Y-60656032D02*
X151005637Y-60751270D01*
X151005637Y-60751270D02*
X151053256Y-60798889D01*
X151053256Y-60798889D02*
X151148494Y-60846508D01*
X151148494Y-60846508D02*
X151529446Y-60846508D01*
X175338972Y-62408833D02*
X175196115Y-62456452D01*
X175196115Y-62456452D02*
X175148496Y-62504071D01*
X175148496Y-62504071D02*
X175100877Y-62599309D01*
X175100877Y-62599309D02*
X175100877Y-62742166D01*
X175100877Y-62742166D02*
X175148496Y-62837404D01*
X175148496Y-62837404D02*
X175196115Y-62885024D01*
X175196115Y-62885024D02*
X175291353Y-62932643D01*
X175291353Y-62932643D02*
X175672305Y-62932643D01*
X175672305Y-62932643D02*
X175672305Y-61932643D01*
X175672305Y-61932643D02*
X175338972Y-61932643D01*
X175338972Y-61932643D02*
X175243734Y-61980262D01*
X175243734Y-61980262D02*
X175196115Y-62027881D01*
X175196115Y-62027881D02*
X175148496Y-62123119D01*
X175148496Y-62123119D02*
X175148496Y-62218357D01*
X175148496Y-62218357D02*
X175196115Y-62313595D01*
X175196115Y-62313595D02*
X175243734Y-62361214D01*
X175243734Y-62361214D02*
X175338972Y-62408833D01*
X175338972Y-62408833D02*
X175672305Y-62408833D01*
X174672305Y-62408833D02*
X174338972Y-62408833D01*
X174196115Y-62932643D02*
X174672305Y-62932643D01*
X174672305Y-62932643D02*
X174672305Y-61932643D01*
X174672305Y-61932643D02*
X174196115Y-61932643D01*
X173767543Y-62408833D02*
X173434210Y-62408833D01*
X173291353Y-62932643D02*
X173767543Y-62932643D01*
X173767543Y-62932643D02*
X173767543Y-61932643D01*
X173767543Y-61932643D02*
X173291353Y-61932643D01*
X172862781Y-62932643D02*
X172862781Y-61932643D01*
X172862781Y-61932643D02*
X172481829Y-61932643D01*
X172481829Y-61932643D02*
X172386591Y-61980262D01*
X172386591Y-61980262D02*
X172338972Y-62027881D01*
X172338972Y-62027881D02*
X172291353Y-62123119D01*
X172291353Y-62123119D02*
X172291353Y-62265976D01*
X172291353Y-62265976D02*
X172338972Y-62361214D01*
X172338972Y-62361214D02*
X172386591Y-62408833D01*
X172386591Y-62408833D02*
X172481829Y-62456452D01*
X172481829Y-62456452D02*
X172862781Y-62456452D01*
X170767543Y-62408833D02*
X170624686Y-62456452D01*
X170624686Y-62456452D02*
X170577067Y-62504071D01*
X170577067Y-62504071D02*
X170529448Y-62599309D01*
X170529448Y-62599309D02*
X170529448Y-62742166D01*
X170529448Y-62742166D02*
X170577067Y-62837404D01*
X170577067Y-62837404D02*
X170624686Y-62885024D01*
X170624686Y-62885024D02*
X170719924Y-62932643D01*
X170719924Y-62932643D02*
X171100876Y-62932643D01*
X171100876Y-62932643D02*
X171100876Y-61932643D01*
X171100876Y-61932643D02*
X170767543Y-61932643D01*
X170767543Y-61932643D02*
X170672305Y-61980262D01*
X170672305Y-61980262D02*
X170624686Y-62027881D01*
X170624686Y-62027881D02*
X170577067Y-62123119D01*
X170577067Y-62123119D02*
X170577067Y-62218357D01*
X170577067Y-62218357D02*
X170624686Y-62313595D01*
X170624686Y-62313595D02*
X170672305Y-62361214D01*
X170672305Y-62361214D02*
X170767543Y-62408833D01*
X170767543Y-62408833D02*
X171100876Y-62408833D01*
X170100876Y-62408833D02*
X169767543Y-62408833D01*
X169624686Y-62932643D02*
X170100876Y-62932643D01*
X170100876Y-62932643D02*
X170100876Y-61932643D01*
X170100876Y-61932643D02*
X169624686Y-61932643D01*
X169196114Y-62408833D02*
X168862781Y-62408833D01*
X168719924Y-62932643D02*
X169196114Y-62932643D01*
X169196114Y-62932643D02*
X169196114Y-61932643D01*
X169196114Y-61932643D02*
X168719924Y-61932643D01*
X168291352Y-62932643D02*
X168291352Y-61932643D01*
X168291352Y-61932643D02*
X167910400Y-61932643D01*
X167910400Y-61932643D02*
X167815162Y-61980262D01*
X167815162Y-61980262D02*
X167767543Y-62027881D01*
X167767543Y-62027881D02*
X167719924Y-62123119D01*
X167719924Y-62123119D02*
X167719924Y-62265976D01*
X167719924Y-62265976D02*
X167767543Y-62361214D01*
X167767543Y-62361214D02*
X167815162Y-62408833D01*
X167815162Y-62408833D02*
X167910400Y-62456452D01*
X167910400Y-62456452D02*
X168291352Y-62456452D01*
X166196114Y-62408833D02*
X166053257Y-62456452D01*
X166053257Y-62456452D02*
X166005638Y-62504071D01*
X166005638Y-62504071D02*
X165958019Y-62599309D01*
X165958019Y-62599309D02*
X165958019Y-62742166D01*
X165958019Y-62742166D02*
X166005638Y-62837404D01*
X166005638Y-62837404D02*
X166053257Y-62885024D01*
X166053257Y-62885024D02*
X166148495Y-62932643D01*
X166148495Y-62932643D02*
X166529447Y-62932643D01*
X166529447Y-62932643D02*
X166529447Y-61932643D01*
X166529447Y-61932643D02*
X166196114Y-61932643D01*
X166196114Y-61932643D02*
X166100876Y-61980262D01*
X166100876Y-61980262D02*
X166053257Y-62027881D01*
X166053257Y-62027881D02*
X166005638Y-62123119D01*
X166005638Y-62123119D02*
X166005638Y-62218357D01*
X166005638Y-62218357D02*
X166053257Y-62313595D01*
X166053257Y-62313595D02*
X166100876Y-62361214D01*
X166100876Y-62361214D02*
X166196114Y-62408833D01*
X166196114Y-62408833D02*
X166529447Y-62408833D01*
X165529447Y-62408833D02*
X165196114Y-62408833D01*
X165053257Y-62932643D02*
X165529447Y-62932643D01*
X165529447Y-62932643D02*
X165529447Y-61932643D01*
X165529447Y-61932643D02*
X165053257Y-61932643D01*
X164624685Y-62408833D02*
X164291352Y-62408833D01*
X164148495Y-62932643D02*
X164624685Y-62932643D01*
X164624685Y-62932643D02*
X164624685Y-61932643D01*
X164624685Y-61932643D02*
X164148495Y-61932643D01*
X163719923Y-62932643D02*
X163719923Y-61932643D01*
X163719923Y-61932643D02*
X163338971Y-61932643D01*
X163338971Y-61932643D02*
X163243733Y-61980262D01*
X163243733Y-61980262D02*
X163196114Y-62027881D01*
X163196114Y-62027881D02*
X163148495Y-62123119D01*
X163148495Y-62123119D02*
X163148495Y-62265976D01*
X163148495Y-62265976D02*
X163196114Y-62361214D01*
X163196114Y-62361214D02*
X163243733Y-62408833D01*
X163243733Y-62408833D02*
X163338971Y-62456452D01*
X163338971Y-62456452D02*
X163719923Y-62456452D01*
X161624685Y-62408833D02*
X161481828Y-62456452D01*
X161481828Y-62456452D02*
X161434209Y-62504071D01*
X161434209Y-62504071D02*
X161386590Y-62599309D01*
X161386590Y-62599309D02*
X161386590Y-62742166D01*
X161386590Y-62742166D02*
X161434209Y-62837404D01*
X161434209Y-62837404D02*
X161481828Y-62885024D01*
X161481828Y-62885024D02*
X161577066Y-62932643D01*
X161577066Y-62932643D02*
X161958018Y-62932643D01*
X161958018Y-62932643D02*
X161958018Y-61932643D01*
X161958018Y-61932643D02*
X161624685Y-61932643D01*
X161624685Y-61932643D02*
X161529447Y-61980262D01*
X161529447Y-61980262D02*
X161481828Y-62027881D01*
X161481828Y-62027881D02*
X161434209Y-62123119D01*
X161434209Y-62123119D02*
X161434209Y-62218357D01*
X161434209Y-62218357D02*
X161481828Y-62313595D01*
X161481828Y-62313595D02*
X161529447Y-62361214D01*
X161529447Y-62361214D02*
X161624685Y-62408833D01*
X161624685Y-62408833D02*
X161958018Y-62408833D01*
X160958018Y-62408833D02*
X160624685Y-62408833D01*
X160481828Y-62932643D02*
X160958018Y-62932643D01*
X160958018Y-62932643D02*
X160958018Y-61932643D01*
X160958018Y-61932643D02*
X160481828Y-61932643D01*
X160053256Y-62408833D02*
X159719923Y-62408833D01*
X159577066Y-62932643D02*
X160053256Y-62932643D01*
X160053256Y-62932643D02*
X160053256Y-61932643D01*
X160053256Y-61932643D02*
X159577066Y-61932643D01*
X159148494Y-62932643D02*
X159148494Y-61932643D01*
X159148494Y-61932643D02*
X158767542Y-61932643D01*
X158767542Y-61932643D02*
X158672304Y-61980262D01*
X158672304Y-61980262D02*
X158624685Y-62027881D01*
X158624685Y-62027881D02*
X158577066Y-62123119D01*
X158577066Y-62123119D02*
X158577066Y-62265976D01*
X158577066Y-62265976D02*
X158624685Y-62361214D01*
X158624685Y-62361214D02*
X158672304Y-62408833D01*
X158672304Y-62408833D02*
X158767542Y-62456452D01*
X158767542Y-62456452D02*
X159148494Y-62456452D01*
X157053256Y-62408833D02*
X156910399Y-62456452D01*
X156910399Y-62456452D02*
X156862780Y-62504071D01*
X156862780Y-62504071D02*
X156815161Y-62599309D01*
X156815161Y-62599309D02*
X156815161Y-62742166D01*
X156815161Y-62742166D02*
X156862780Y-62837404D01*
X156862780Y-62837404D02*
X156910399Y-62885024D01*
X156910399Y-62885024D02*
X157005637Y-62932643D01*
X157005637Y-62932643D02*
X157386589Y-62932643D01*
X157386589Y-62932643D02*
X157386589Y-61932643D01*
X157386589Y-61932643D02*
X157053256Y-61932643D01*
X157053256Y-61932643D02*
X156958018Y-61980262D01*
X156958018Y-61980262D02*
X156910399Y-62027881D01*
X156910399Y-62027881D02*
X156862780Y-62123119D01*
X156862780Y-62123119D02*
X156862780Y-62218357D01*
X156862780Y-62218357D02*
X156910399Y-62313595D01*
X156910399Y-62313595D02*
X156958018Y-62361214D01*
X156958018Y-62361214D02*
X157053256Y-62408833D01*
X157053256Y-62408833D02*
X157386589Y-62408833D01*
X156386589Y-62408833D02*
X156053256Y-62408833D01*
X155910399Y-62932643D02*
X156386589Y-62932643D01*
X156386589Y-62932643D02*
X156386589Y-61932643D01*
X156386589Y-61932643D02*
X155910399Y-61932643D01*
X155481827Y-62408833D02*
X155148494Y-62408833D01*
X155005637Y-62932643D02*
X155481827Y-62932643D01*
X155481827Y-62932643D02*
X155481827Y-61932643D01*
X155481827Y-61932643D02*
X155005637Y-61932643D01*
X154577065Y-62932643D02*
X154577065Y-61932643D01*
X154577065Y-61932643D02*
X154196113Y-61932643D01*
X154196113Y-61932643D02*
X154100875Y-61980262D01*
X154100875Y-61980262D02*
X154053256Y-62027881D01*
X154053256Y-62027881D02*
X154005637Y-62123119D01*
X154005637Y-62123119D02*
X154005637Y-62265976D01*
X154005637Y-62265976D02*
X154053256Y-62361214D01*
X154053256Y-62361214D02*
X154100875Y-62408833D01*
X154100875Y-62408833D02*
X154196113Y-62456452D01*
X154196113Y-62456452D02*
X154577065Y-62456452D01*
X152481827Y-62408833D02*
X152338970Y-62456452D01*
X152338970Y-62456452D02*
X152291351Y-62504071D01*
X152291351Y-62504071D02*
X152243732Y-62599309D01*
X152243732Y-62599309D02*
X152243732Y-62742166D01*
X152243732Y-62742166D02*
X152291351Y-62837404D01*
X152291351Y-62837404D02*
X152338970Y-62885024D01*
X152338970Y-62885024D02*
X152434208Y-62932643D01*
X152434208Y-62932643D02*
X152815160Y-62932643D01*
X152815160Y-62932643D02*
X152815160Y-61932643D01*
X152815160Y-61932643D02*
X152481827Y-61932643D01*
X152481827Y-61932643D02*
X152386589Y-61980262D01*
X152386589Y-61980262D02*
X152338970Y-62027881D01*
X152338970Y-62027881D02*
X152291351Y-62123119D01*
X152291351Y-62123119D02*
X152291351Y-62218357D01*
X152291351Y-62218357D02*
X152338970Y-62313595D01*
X152338970Y-62313595D02*
X152386589Y-62361214D01*
X152386589Y-62361214D02*
X152481827Y-62408833D01*
X152481827Y-62408833D02*
X152815160Y-62408833D01*
X151815160Y-62408833D02*
X151481827Y-62408833D01*
X151338970Y-62932643D02*
X151815160Y-62932643D01*
X151815160Y-62932643D02*
X151815160Y-61932643D01*
X151815160Y-61932643D02*
X151338970Y-61932643D01*
X150910398Y-62408833D02*
X150577065Y-62408833D01*
X150434208Y-62932643D02*
X150910398Y-62932643D01*
X150910398Y-62932643D02*
X150910398Y-61932643D01*
X150910398Y-61932643D02*
X150434208Y-61932643D01*
X150005636Y-62932643D02*
X150005636Y-61932643D01*
X150005636Y-61932643D02*
X149624684Y-61932643D01*
X149624684Y-61932643D02*
X149529446Y-61980262D01*
X149529446Y-61980262D02*
X149481827Y-62027881D01*
X149481827Y-62027881D02*
X149434208Y-62123119D01*
X149434208Y-62123119D02*
X149434208Y-62265976D01*
X149434208Y-62265976D02*
X149481827Y-62361214D01*
X149481827Y-62361214D02*
X149529446Y-62408833D01*
X149529446Y-62408833D02*
X149624684Y-62456452D01*
X149624684Y-62456452D02*
X150005636Y-62456452D01*
X176862782Y-64018777D02*
X176719925Y-64066396D01*
X176719925Y-64066396D02*
X176672306Y-64114015D01*
X176672306Y-64114015D02*
X176624687Y-64209253D01*
X176624687Y-64209253D02*
X176624687Y-64352110D01*
X176624687Y-64352110D02*
X176672306Y-64447348D01*
X176672306Y-64447348D02*
X176719925Y-64494968D01*
X176719925Y-64494968D02*
X176815163Y-64542587D01*
X176815163Y-64542587D02*
X177196115Y-64542587D01*
X177196115Y-64542587D02*
X177196115Y-63542587D01*
X177196115Y-63542587D02*
X176862782Y-63542587D01*
X176862782Y-63542587D02*
X176767544Y-63590206D01*
X176767544Y-63590206D02*
X176719925Y-63637825D01*
X176719925Y-63637825D02*
X176672306Y-63733063D01*
X176672306Y-63733063D02*
X176672306Y-63828301D01*
X176672306Y-63828301D02*
X176719925Y-63923539D01*
X176719925Y-63923539D02*
X176767544Y-63971158D01*
X176767544Y-63971158D02*
X176862782Y-64018777D01*
X176862782Y-64018777D02*
X177196115Y-64018777D01*
X176196115Y-64018777D02*
X175862782Y-64018777D01*
X175719925Y-64542587D02*
X176196115Y-64542587D01*
X176196115Y-64542587D02*
X176196115Y-63542587D01*
X176196115Y-63542587D02*
X175719925Y-63542587D01*
X175291353Y-64018777D02*
X174958020Y-64018777D01*
X174815163Y-64542587D02*
X175291353Y-64542587D01*
X175291353Y-64542587D02*
X175291353Y-63542587D01*
X175291353Y-63542587D02*
X174815163Y-63542587D01*
X174386591Y-64542587D02*
X174386591Y-63542587D01*
X174386591Y-63542587D02*
X174005639Y-63542587D01*
X174005639Y-63542587D02*
X173910401Y-63590206D01*
X173910401Y-63590206D02*
X173862782Y-63637825D01*
X173862782Y-63637825D02*
X173815163Y-63733063D01*
X173815163Y-63733063D02*
X173815163Y-63875920D01*
X173815163Y-63875920D02*
X173862782Y-63971158D01*
X173862782Y-63971158D02*
X173910401Y-64018777D01*
X173910401Y-64018777D02*
X174005639Y-64066396D01*
X174005639Y-64066396D02*
X174386591Y-64066396D01*
X172291353Y-64018777D02*
X172148496Y-64066396D01*
X172148496Y-64066396D02*
X172100877Y-64114015D01*
X172100877Y-64114015D02*
X172053258Y-64209253D01*
X172053258Y-64209253D02*
X172053258Y-64352110D01*
X172053258Y-64352110D02*
X172100877Y-64447348D01*
X172100877Y-64447348D02*
X172148496Y-64494968D01*
X172148496Y-64494968D02*
X172243734Y-64542587D01*
X172243734Y-64542587D02*
X172624686Y-64542587D01*
X172624686Y-64542587D02*
X172624686Y-63542587D01*
X172624686Y-63542587D02*
X172291353Y-63542587D01*
X172291353Y-63542587D02*
X172196115Y-63590206D01*
X172196115Y-63590206D02*
X172148496Y-63637825D01*
X172148496Y-63637825D02*
X172100877Y-63733063D01*
X172100877Y-63733063D02*
X172100877Y-63828301D01*
X172100877Y-63828301D02*
X172148496Y-63923539D01*
X172148496Y-63923539D02*
X172196115Y-63971158D01*
X172196115Y-63971158D02*
X172291353Y-64018777D01*
X172291353Y-64018777D02*
X172624686Y-64018777D01*
X171624686Y-64018777D02*
X171291353Y-64018777D01*
X171148496Y-64542587D02*
X171624686Y-64542587D01*
X171624686Y-64542587D02*
X171624686Y-63542587D01*
X171624686Y-63542587D02*
X171148496Y-63542587D01*
X170719924Y-64018777D02*
X170386591Y-64018777D01*
X170243734Y-64542587D02*
X170719924Y-64542587D01*
X170719924Y-64542587D02*
X170719924Y-63542587D01*
X170719924Y-63542587D02*
X170243734Y-63542587D01*
X169815162Y-64542587D02*
X169815162Y-63542587D01*
X169815162Y-63542587D02*
X169434210Y-63542587D01*
X169434210Y-63542587D02*
X169338972Y-63590206D01*
X169338972Y-63590206D02*
X169291353Y-63637825D01*
X169291353Y-63637825D02*
X169243734Y-63733063D01*
X169243734Y-63733063D02*
X169243734Y-63875920D01*
X169243734Y-63875920D02*
X169291353Y-63971158D01*
X169291353Y-63971158D02*
X169338972Y-64018777D01*
X169338972Y-64018777D02*
X169434210Y-64066396D01*
X169434210Y-64066396D02*
X169815162Y-64066396D01*
X167719924Y-64018777D02*
X167577067Y-64066396D01*
X167577067Y-64066396D02*
X167529448Y-64114015D01*
X167529448Y-64114015D02*
X167481829Y-64209253D01*
X167481829Y-64209253D02*
X167481829Y-64352110D01*
X167481829Y-64352110D02*
X167529448Y-64447348D01*
X167529448Y-64447348D02*
X167577067Y-64494968D01*
X167577067Y-64494968D02*
X167672305Y-64542587D01*
X167672305Y-64542587D02*
X168053257Y-64542587D01*
X168053257Y-64542587D02*
X168053257Y-63542587D01*
X168053257Y-63542587D02*
X167719924Y-63542587D01*
X167719924Y-63542587D02*
X167624686Y-63590206D01*
X167624686Y-63590206D02*
X167577067Y-63637825D01*
X167577067Y-63637825D02*
X167529448Y-63733063D01*
X167529448Y-63733063D02*
X167529448Y-63828301D01*
X167529448Y-63828301D02*
X167577067Y-63923539D01*
X167577067Y-63923539D02*
X167624686Y-63971158D01*
X167624686Y-63971158D02*
X167719924Y-64018777D01*
X167719924Y-64018777D02*
X168053257Y-64018777D01*
X167053257Y-64018777D02*
X166719924Y-64018777D01*
X166577067Y-64542587D02*
X167053257Y-64542587D01*
X167053257Y-64542587D02*
X167053257Y-63542587D01*
X167053257Y-63542587D02*
X166577067Y-63542587D01*
X166148495Y-64018777D02*
X165815162Y-64018777D01*
X165672305Y-64542587D02*
X166148495Y-64542587D01*
X166148495Y-64542587D02*
X166148495Y-63542587D01*
X166148495Y-63542587D02*
X165672305Y-63542587D01*
X165243733Y-64542587D02*
X165243733Y-63542587D01*
X165243733Y-63542587D02*
X164862781Y-63542587D01*
X164862781Y-63542587D02*
X164767543Y-63590206D01*
X164767543Y-63590206D02*
X164719924Y-63637825D01*
X164719924Y-63637825D02*
X164672305Y-63733063D01*
X164672305Y-63733063D02*
X164672305Y-63875920D01*
X164672305Y-63875920D02*
X164719924Y-63971158D01*
X164719924Y-63971158D02*
X164767543Y-64018777D01*
X164767543Y-64018777D02*
X164862781Y-64066396D01*
X164862781Y-64066396D02*
X165243733Y-64066396D01*
X163148495Y-64018777D02*
X163005638Y-64066396D01*
X163005638Y-64066396D02*
X162958019Y-64114015D01*
X162958019Y-64114015D02*
X162910400Y-64209253D01*
X162910400Y-64209253D02*
X162910400Y-64352110D01*
X162910400Y-64352110D02*
X162958019Y-64447348D01*
X162958019Y-64447348D02*
X163005638Y-64494968D01*
X163005638Y-64494968D02*
X163100876Y-64542587D01*
X163100876Y-64542587D02*
X163481828Y-64542587D01*
X163481828Y-64542587D02*
X163481828Y-63542587D01*
X163481828Y-63542587D02*
X163148495Y-63542587D01*
X163148495Y-63542587D02*
X163053257Y-63590206D01*
X163053257Y-63590206D02*
X163005638Y-63637825D01*
X163005638Y-63637825D02*
X162958019Y-63733063D01*
X162958019Y-63733063D02*
X162958019Y-63828301D01*
X162958019Y-63828301D02*
X163005638Y-63923539D01*
X163005638Y-63923539D02*
X163053257Y-63971158D01*
X163053257Y-63971158D02*
X163148495Y-64018777D01*
X163148495Y-64018777D02*
X163481828Y-64018777D01*
X162481828Y-64018777D02*
X162148495Y-64018777D01*
X162005638Y-64542587D02*
X162481828Y-64542587D01*
X162481828Y-64542587D02*
X162481828Y-63542587D01*
X162481828Y-63542587D02*
X162005638Y-63542587D01*
X161577066Y-64018777D02*
X161243733Y-64018777D01*
X161100876Y-64542587D02*
X161577066Y-64542587D01*
X161577066Y-64542587D02*
X161577066Y-63542587D01*
X161577066Y-63542587D02*
X161100876Y-63542587D01*
X160672304Y-64542587D02*
X160672304Y-63542587D01*
X160672304Y-63542587D02*
X160291352Y-63542587D01*
X160291352Y-63542587D02*
X160196114Y-63590206D01*
X160196114Y-63590206D02*
X160148495Y-63637825D01*
X160148495Y-63637825D02*
X160100876Y-63733063D01*
X160100876Y-63733063D02*
X160100876Y-63875920D01*
X160100876Y-63875920D02*
X160148495Y-63971158D01*
X160148495Y-63971158D02*
X160196114Y-64018777D01*
X160196114Y-64018777D02*
X160291352Y-64066396D01*
X160291352Y-64066396D02*
X160672304Y-64066396D01*
X158577066Y-64018777D02*
X158434209Y-64066396D01*
X158434209Y-64066396D02*
X158386590Y-64114015D01*
X158386590Y-64114015D02*
X158338971Y-64209253D01*
X158338971Y-64209253D02*
X158338971Y-64352110D01*
X158338971Y-64352110D02*
X158386590Y-64447348D01*
X158386590Y-64447348D02*
X158434209Y-64494968D01*
X158434209Y-64494968D02*
X158529447Y-64542587D01*
X158529447Y-64542587D02*
X158910399Y-64542587D01*
X158910399Y-64542587D02*
X158910399Y-63542587D01*
X158910399Y-63542587D02*
X158577066Y-63542587D01*
X158577066Y-63542587D02*
X158481828Y-63590206D01*
X158481828Y-63590206D02*
X158434209Y-63637825D01*
X158434209Y-63637825D02*
X158386590Y-63733063D01*
X158386590Y-63733063D02*
X158386590Y-63828301D01*
X158386590Y-63828301D02*
X158434209Y-63923539D01*
X158434209Y-63923539D02*
X158481828Y-63971158D01*
X158481828Y-63971158D02*
X158577066Y-64018777D01*
X158577066Y-64018777D02*
X158910399Y-64018777D01*
X157910399Y-64018777D02*
X157577066Y-64018777D01*
X157434209Y-64542587D02*
X157910399Y-64542587D01*
X157910399Y-64542587D02*
X157910399Y-63542587D01*
X157910399Y-63542587D02*
X157434209Y-63542587D01*
X157005637Y-64018777D02*
X156672304Y-64018777D01*
X156529447Y-64542587D02*
X157005637Y-64542587D01*
X157005637Y-64542587D02*
X157005637Y-63542587D01*
X157005637Y-63542587D02*
X156529447Y-63542587D01*
X156100875Y-64542587D02*
X156100875Y-63542587D01*
X156100875Y-63542587D02*
X155719923Y-63542587D01*
X155719923Y-63542587D02*
X155624685Y-63590206D01*
X155624685Y-63590206D02*
X155577066Y-63637825D01*
X155577066Y-63637825D02*
X155529447Y-63733063D01*
X155529447Y-63733063D02*
X155529447Y-63875920D01*
X155529447Y-63875920D02*
X155577066Y-63971158D01*
X155577066Y-63971158D02*
X155624685Y-64018777D01*
X155624685Y-64018777D02*
X155719923Y-64066396D01*
X155719923Y-64066396D02*
X156100875Y-64066396D01*
X154005637Y-64018777D02*
X153862780Y-64066396D01*
X153862780Y-64066396D02*
X153815161Y-64114015D01*
X153815161Y-64114015D02*
X153767542Y-64209253D01*
X153767542Y-64209253D02*
X153767542Y-64352110D01*
X153767542Y-64352110D02*
X153815161Y-64447348D01*
X153815161Y-64447348D02*
X153862780Y-64494968D01*
X153862780Y-64494968D02*
X153958018Y-64542587D01*
X153958018Y-64542587D02*
X154338970Y-64542587D01*
X154338970Y-64542587D02*
X154338970Y-63542587D01*
X154338970Y-63542587D02*
X154005637Y-63542587D01*
X154005637Y-63542587D02*
X153910399Y-63590206D01*
X153910399Y-63590206D02*
X153862780Y-63637825D01*
X153862780Y-63637825D02*
X153815161Y-63733063D01*
X153815161Y-63733063D02*
X153815161Y-63828301D01*
X153815161Y-63828301D02*
X153862780Y-63923539D01*
X153862780Y-63923539D02*
X153910399Y-63971158D01*
X153910399Y-63971158D02*
X154005637Y-64018777D01*
X154005637Y-64018777D02*
X154338970Y-64018777D01*
X153338970Y-64018777D02*
X153005637Y-64018777D01*
X152862780Y-64542587D02*
X153338970Y-64542587D01*
X153338970Y-64542587D02*
X153338970Y-63542587D01*
X153338970Y-63542587D02*
X152862780Y-63542587D01*
X152434208Y-64018777D02*
X152100875Y-64018777D01*
X151958018Y-64542587D02*
X152434208Y-64542587D01*
X152434208Y-64542587D02*
X152434208Y-63542587D01*
X152434208Y-63542587D02*
X151958018Y-63542587D01*
X151529446Y-64542587D02*
X151529446Y-63542587D01*
X151529446Y-63542587D02*
X151148494Y-63542587D01*
X151148494Y-63542587D02*
X151053256Y-63590206D01*
X151053256Y-63590206D02*
X151005637Y-63637825D01*
X151005637Y-63637825D02*
X150958018Y-63733063D01*
X150958018Y-63733063D02*
X150958018Y-63875920D01*
X150958018Y-63875920D02*
X151005637Y-63971158D01*
X151005637Y-63971158D02*
X151053256Y-64018777D01*
X151053256Y-64018777D02*
X151148494Y-64066396D01*
X151148494Y-64066396D02*
X151529446Y-64066396D01*
X175338972Y-65628721D02*
X175196115Y-65676340D01*
X175196115Y-65676340D02*
X175148496Y-65723959D01*
X175148496Y-65723959D02*
X175100877Y-65819197D01*
X175100877Y-65819197D02*
X175100877Y-65962054D01*
X175100877Y-65962054D02*
X175148496Y-66057292D01*
X175148496Y-66057292D02*
X175196115Y-66104912D01*
X175196115Y-66104912D02*
X175291353Y-66152531D01*
X175291353Y-66152531D02*
X175672305Y-66152531D01*
X175672305Y-66152531D02*
X175672305Y-65152531D01*
X175672305Y-65152531D02*
X175338972Y-65152531D01*
X175338972Y-65152531D02*
X175243734Y-65200150D01*
X175243734Y-65200150D02*
X175196115Y-65247769D01*
X175196115Y-65247769D02*
X175148496Y-65343007D01*
X175148496Y-65343007D02*
X175148496Y-65438245D01*
X175148496Y-65438245D02*
X175196115Y-65533483D01*
X175196115Y-65533483D02*
X175243734Y-65581102D01*
X175243734Y-65581102D02*
X175338972Y-65628721D01*
X175338972Y-65628721D02*
X175672305Y-65628721D01*
X174672305Y-65628721D02*
X174338972Y-65628721D01*
X174196115Y-66152531D02*
X174672305Y-66152531D01*
X174672305Y-66152531D02*
X174672305Y-65152531D01*
X174672305Y-65152531D02*
X174196115Y-65152531D01*
X173767543Y-65628721D02*
X173434210Y-65628721D01*
X173291353Y-66152531D02*
X173767543Y-66152531D01*
X173767543Y-66152531D02*
X173767543Y-65152531D01*
X173767543Y-65152531D02*
X173291353Y-65152531D01*
X172862781Y-66152531D02*
X172862781Y-65152531D01*
X172862781Y-65152531D02*
X172481829Y-65152531D01*
X172481829Y-65152531D02*
X172386591Y-65200150D01*
X172386591Y-65200150D02*
X172338972Y-65247769D01*
X172338972Y-65247769D02*
X172291353Y-65343007D01*
X172291353Y-65343007D02*
X172291353Y-65485864D01*
X172291353Y-65485864D02*
X172338972Y-65581102D01*
X172338972Y-65581102D02*
X172386591Y-65628721D01*
X172386591Y-65628721D02*
X172481829Y-65676340D01*
X172481829Y-65676340D02*
X172862781Y-65676340D01*
X170767543Y-65628721D02*
X170624686Y-65676340D01*
X170624686Y-65676340D02*
X170577067Y-65723959D01*
X170577067Y-65723959D02*
X170529448Y-65819197D01*
X170529448Y-65819197D02*
X170529448Y-65962054D01*
X170529448Y-65962054D02*
X170577067Y-66057292D01*
X170577067Y-66057292D02*
X170624686Y-66104912D01*
X170624686Y-66104912D02*
X170719924Y-66152531D01*
X170719924Y-66152531D02*
X171100876Y-66152531D01*
X171100876Y-66152531D02*
X171100876Y-65152531D01*
X171100876Y-65152531D02*
X170767543Y-65152531D01*
X170767543Y-65152531D02*
X170672305Y-65200150D01*
X170672305Y-65200150D02*
X170624686Y-65247769D01*
X170624686Y-65247769D02*
X170577067Y-65343007D01*
X170577067Y-65343007D02*
X170577067Y-65438245D01*
X170577067Y-65438245D02*
X170624686Y-65533483D01*
X170624686Y-65533483D02*
X170672305Y-65581102D01*
X170672305Y-65581102D02*
X170767543Y-65628721D01*
X170767543Y-65628721D02*
X171100876Y-65628721D01*
X170100876Y-65628721D02*
X169767543Y-65628721D01*
X169624686Y-66152531D02*
X170100876Y-66152531D01*
X170100876Y-66152531D02*
X170100876Y-65152531D01*
X170100876Y-65152531D02*
X169624686Y-65152531D01*
X169196114Y-65628721D02*
X168862781Y-65628721D01*
X168719924Y-66152531D02*
X169196114Y-66152531D01*
X169196114Y-66152531D02*
X169196114Y-65152531D01*
X169196114Y-65152531D02*
X168719924Y-65152531D01*
X168291352Y-66152531D02*
X168291352Y-65152531D01*
X168291352Y-65152531D02*
X167910400Y-65152531D01*
X167910400Y-65152531D02*
X167815162Y-65200150D01*
X167815162Y-65200150D02*
X167767543Y-65247769D01*
X167767543Y-65247769D02*
X167719924Y-65343007D01*
X167719924Y-65343007D02*
X167719924Y-65485864D01*
X167719924Y-65485864D02*
X167767543Y-65581102D01*
X167767543Y-65581102D02*
X167815162Y-65628721D01*
X167815162Y-65628721D02*
X167910400Y-65676340D01*
X167910400Y-65676340D02*
X168291352Y-65676340D01*
X166196114Y-65628721D02*
X166053257Y-65676340D01*
X166053257Y-65676340D02*
X166005638Y-65723959D01*
X166005638Y-65723959D02*
X165958019Y-65819197D01*
X165958019Y-65819197D02*
X165958019Y-65962054D01*
X165958019Y-65962054D02*
X166005638Y-66057292D01*
X166005638Y-66057292D02*
X166053257Y-66104912D01*
X166053257Y-66104912D02*
X166148495Y-66152531D01*
X166148495Y-66152531D02*
X166529447Y-66152531D01*
X166529447Y-66152531D02*
X166529447Y-65152531D01*
X166529447Y-65152531D02*
X166196114Y-65152531D01*
X166196114Y-65152531D02*
X166100876Y-65200150D01*
X166100876Y-65200150D02*
X166053257Y-65247769D01*
X166053257Y-65247769D02*
X166005638Y-65343007D01*
X166005638Y-65343007D02*
X166005638Y-65438245D01*
X166005638Y-65438245D02*
X166053257Y-65533483D01*
X166053257Y-65533483D02*
X166100876Y-65581102D01*
X166100876Y-65581102D02*
X166196114Y-65628721D01*
X166196114Y-65628721D02*
X166529447Y-65628721D01*
X165529447Y-65628721D02*
X165196114Y-65628721D01*
X165053257Y-66152531D02*
X165529447Y-66152531D01*
X165529447Y-66152531D02*
X165529447Y-65152531D01*
X165529447Y-65152531D02*
X165053257Y-65152531D01*
X164624685Y-65628721D02*
X164291352Y-65628721D01*
X164148495Y-66152531D02*
X164624685Y-66152531D01*
X164624685Y-66152531D02*
X164624685Y-65152531D01*
X164624685Y-65152531D02*
X164148495Y-65152531D01*
X163719923Y-66152531D02*
X163719923Y-65152531D01*
X163719923Y-65152531D02*
X163338971Y-65152531D01*
X163338971Y-65152531D02*
X163243733Y-65200150D01*
X163243733Y-65200150D02*
X163196114Y-65247769D01*
X163196114Y-65247769D02*
X163148495Y-65343007D01*
X163148495Y-65343007D02*
X163148495Y-65485864D01*
X163148495Y-65485864D02*
X163196114Y-65581102D01*
X163196114Y-65581102D02*
X163243733Y-65628721D01*
X163243733Y-65628721D02*
X163338971Y-65676340D01*
X163338971Y-65676340D02*
X163719923Y-65676340D01*
X161624685Y-65628721D02*
X161481828Y-65676340D01*
X161481828Y-65676340D02*
X161434209Y-65723959D01*
X161434209Y-65723959D02*
X161386590Y-65819197D01*
X161386590Y-65819197D02*
X161386590Y-65962054D01*
X161386590Y-65962054D02*
X161434209Y-66057292D01*
X161434209Y-66057292D02*
X161481828Y-66104912D01*
X161481828Y-66104912D02*
X161577066Y-66152531D01*
X161577066Y-66152531D02*
X161958018Y-66152531D01*
X161958018Y-66152531D02*
X161958018Y-65152531D01*
X161958018Y-65152531D02*
X161624685Y-65152531D01*
X161624685Y-65152531D02*
X161529447Y-65200150D01*
X161529447Y-65200150D02*
X161481828Y-65247769D01*
X161481828Y-65247769D02*
X161434209Y-65343007D01*
X161434209Y-65343007D02*
X161434209Y-65438245D01*
X161434209Y-65438245D02*
X161481828Y-65533483D01*
X161481828Y-65533483D02*
X161529447Y-65581102D01*
X161529447Y-65581102D02*
X161624685Y-65628721D01*
X161624685Y-65628721D02*
X161958018Y-65628721D01*
X160958018Y-65628721D02*
X160624685Y-65628721D01*
X160481828Y-66152531D02*
X160958018Y-66152531D01*
X160958018Y-66152531D02*
X160958018Y-65152531D01*
X160958018Y-65152531D02*
X160481828Y-65152531D01*
X160053256Y-65628721D02*
X159719923Y-65628721D01*
X159577066Y-66152531D02*
X160053256Y-66152531D01*
X160053256Y-66152531D02*
X160053256Y-65152531D01*
X160053256Y-65152531D02*
X159577066Y-65152531D01*
X159148494Y-66152531D02*
X159148494Y-65152531D01*
X159148494Y-65152531D02*
X158767542Y-65152531D01*
X158767542Y-65152531D02*
X158672304Y-65200150D01*
X158672304Y-65200150D02*
X158624685Y-65247769D01*
X158624685Y-65247769D02*
X158577066Y-65343007D01*
X158577066Y-65343007D02*
X158577066Y-65485864D01*
X158577066Y-65485864D02*
X158624685Y-65581102D01*
X158624685Y-65581102D02*
X158672304Y-65628721D01*
X158672304Y-65628721D02*
X158767542Y-65676340D01*
X158767542Y-65676340D02*
X159148494Y-65676340D01*
X157053256Y-65628721D02*
X156910399Y-65676340D01*
X156910399Y-65676340D02*
X156862780Y-65723959D01*
X156862780Y-65723959D02*
X156815161Y-65819197D01*
X156815161Y-65819197D02*
X156815161Y-65962054D01*
X156815161Y-65962054D02*
X156862780Y-66057292D01*
X156862780Y-66057292D02*
X156910399Y-66104912D01*
X156910399Y-66104912D02*
X157005637Y-66152531D01*
X157005637Y-66152531D02*
X157386589Y-66152531D01*
X157386589Y-66152531D02*
X157386589Y-65152531D01*
X157386589Y-65152531D02*
X157053256Y-65152531D01*
X157053256Y-65152531D02*
X156958018Y-65200150D01*
X156958018Y-65200150D02*
X156910399Y-65247769D01*
X156910399Y-65247769D02*
X156862780Y-65343007D01*
X156862780Y-65343007D02*
X156862780Y-65438245D01*
X156862780Y-65438245D02*
X156910399Y-65533483D01*
X156910399Y-65533483D02*
X156958018Y-65581102D01*
X156958018Y-65581102D02*
X157053256Y-65628721D01*
X157053256Y-65628721D02*
X157386589Y-65628721D01*
X156386589Y-65628721D02*
X156053256Y-65628721D01*
X155910399Y-66152531D02*
X156386589Y-66152531D01*
X156386589Y-66152531D02*
X156386589Y-65152531D01*
X156386589Y-65152531D02*
X155910399Y-65152531D01*
X155481827Y-65628721D02*
X155148494Y-65628721D01*
X155005637Y-66152531D02*
X155481827Y-66152531D01*
X155481827Y-66152531D02*
X155481827Y-65152531D01*
X155481827Y-65152531D02*
X155005637Y-65152531D01*
X154577065Y-66152531D02*
X154577065Y-65152531D01*
X154577065Y-65152531D02*
X154196113Y-65152531D01*
X154196113Y-65152531D02*
X154100875Y-65200150D01*
X154100875Y-65200150D02*
X154053256Y-65247769D01*
X154053256Y-65247769D02*
X154005637Y-65343007D01*
X154005637Y-65343007D02*
X154005637Y-65485864D01*
X154005637Y-65485864D02*
X154053256Y-65581102D01*
X154053256Y-65581102D02*
X154100875Y-65628721D01*
X154100875Y-65628721D02*
X154196113Y-65676340D01*
X154196113Y-65676340D02*
X154577065Y-65676340D01*
X152481827Y-65628721D02*
X152338970Y-65676340D01*
X152338970Y-65676340D02*
X152291351Y-65723959D01*
X152291351Y-65723959D02*
X152243732Y-65819197D01*
X152243732Y-65819197D02*
X152243732Y-65962054D01*
X152243732Y-65962054D02*
X152291351Y-66057292D01*
X152291351Y-66057292D02*
X152338970Y-66104912D01*
X152338970Y-66104912D02*
X152434208Y-66152531D01*
X152434208Y-66152531D02*
X152815160Y-66152531D01*
X152815160Y-66152531D02*
X152815160Y-65152531D01*
X152815160Y-65152531D02*
X152481827Y-65152531D01*
X152481827Y-65152531D02*
X152386589Y-65200150D01*
X152386589Y-65200150D02*
X152338970Y-65247769D01*
X152338970Y-65247769D02*
X152291351Y-65343007D01*
X152291351Y-65343007D02*
X152291351Y-65438245D01*
X152291351Y-65438245D02*
X152338970Y-65533483D01*
X152338970Y-65533483D02*
X152386589Y-65581102D01*
X152386589Y-65581102D02*
X152481827Y-65628721D01*
X152481827Y-65628721D02*
X152815160Y-65628721D01*
X151815160Y-65628721D02*
X151481827Y-65628721D01*
X151338970Y-66152531D02*
X151815160Y-66152531D01*
X151815160Y-66152531D02*
X151815160Y-65152531D01*
X151815160Y-65152531D02*
X151338970Y-65152531D01*
X150910398Y-65628721D02*
X150577065Y-65628721D01*
X150434208Y-66152531D02*
X150910398Y-66152531D01*
X150910398Y-66152531D02*
X150910398Y-65152531D01*
X150910398Y-65152531D02*
X150434208Y-65152531D01*
X150005636Y-66152531D02*
X150005636Y-65152531D01*
X150005636Y-65152531D02*
X149624684Y-65152531D01*
X149624684Y-65152531D02*
X149529446Y-65200150D01*
X149529446Y-65200150D02*
X149481827Y-65247769D01*
X149481827Y-65247769D02*
X149434208Y-65343007D01*
X149434208Y-65343007D02*
X149434208Y-65485864D01*
X149434208Y-65485864D02*
X149481827Y-65581102D01*
X149481827Y-65581102D02*
X149529446Y-65628721D01*
X149529446Y-65628721D02*
X149624684Y-65676340D01*
X149624684Y-65676340D02*
X150005636Y-65676340D01*
X176862782Y-67238665D02*
X176719925Y-67286284D01*
X176719925Y-67286284D02*
X176672306Y-67333903D01*
X176672306Y-67333903D02*
X176624687Y-67429141D01*
X176624687Y-67429141D02*
X176624687Y-67571998D01*
X176624687Y-67571998D02*
X176672306Y-67667236D01*
X176672306Y-67667236D02*
X176719925Y-67714856D01*
X176719925Y-67714856D02*
X176815163Y-67762475D01*
X176815163Y-67762475D02*
X177196115Y-67762475D01*
X177196115Y-67762475D02*
X177196115Y-66762475D01*
X177196115Y-66762475D02*
X176862782Y-66762475D01*
X176862782Y-66762475D02*
X176767544Y-66810094D01*
X176767544Y-66810094D02*
X176719925Y-66857713D01*
X176719925Y-66857713D02*
X176672306Y-66952951D01*
X176672306Y-66952951D02*
X176672306Y-67048189D01*
X176672306Y-67048189D02*
X176719925Y-67143427D01*
X176719925Y-67143427D02*
X176767544Y-67191046D01*
X176767544Y-67191046D02*
X176862782Y-67238665D01*
X176862782Y-67238665D02*
X177196115Y-67238665D01*
X176196115Y-67238665D02*
X175862782Y-67238665D01*
X175719925Y-67762475D02*
X176196115Y-67762475D01*
X176196115Y-67762475D02*
X176196115Y-66762475D01*
X176196115Y-66762475D02*
X175719925Y-66762475D01*
X175291353Y-67238665D02*
X174958020Y-67238665D01*
X174815163Y-67762475D02*
X175291353Y-67762475D01*
X175291353Y-67762475D02*
X175291353Y-66762475D01*
X175291353Y-66762475D02*
X174815163Y-66762475D01*
X174386591Y-67762475D02*
X174386591Y-66762475D01*
X174386591Y-66762475D02*
X174005639Y-66762475D01*
X174005639Y-66762475D02*
X173910401Y-66810094D01*
X173910401Y-66810094D02*
X173862782Y-66857713D01*
X173862782Y-66857713D02*
X173815163Y-66952951D01*
X173815163Y-66952951D02*
X173815163Y-67095808D01*
X173815163Y-67095808D02*
X173862782Y-67191046D01*
X173862782Y-67191046D02*
X173910401Y-67238665D01*
X173910401Y-67238665D02*
X174005639Y-67286284D01*
X174005639Y-67286284D02*
X174386591Y-67286284D01*
X172291353Y-67238665D02*
X172148496Y-67286284D01*
X172148496Y-67286284D02*
X172100877Y-67333903D01*
X172100877Y-67333903D02*
X172053258Y-67429141D01*
X172053258Y-67429141D02*
X172053258Y-67571998D01*
X172053258Y-67571998D02*
X172100877Y-67667236D01*
X172100877Y-67667236D02*
X172148496Y-67714856D01*
X172148496Y-67714856D02*
X172243734Y-67762475D01*
X172243734Y-67762475D02*
X172624686Y-67762475D01*
X172624686Y-67762475D02*
X172624686Y-66762475D01*
X172624686Y-66762475D02*
X172291353Y-66762475D01*
X172291353Y-66762475D02*
X172196115Y-66810094D01*
X172196115Y-66810094D02*
X172148496Y-66857713D01*
X172148496Y-66857713D02*
X172100877Y-66952951D01*
X172100877Y-66952951D02*
X172100877Y-67048189D01*
X172100877Y-67048189D02*
X172148496Y-67143427D01*
X172148496Y-67143427D02*
X172196115Y-67191046D01*
X172196115Y-67191046D02*
X172291353Y-67238665D01*
X172291353Y-67238665D02*
X172624686Y-67238665D01*
X171624686Y-67238665D02*
X171291353Y-67238665D01*
X171148496Y-67762475D02*
X171624686Y-67762475D01*
X171624686Y-67762475D02*
X171624686Y-66762475D01*
X171624686Y-66762475D02*
X171148496Y-66762475D01*
X170719924Y-67238665D02*
X170386591Y-67238665D01*
X170243734Y-67762475D02*
X170719924Y-67762475D01*
X170719924Y-67762475D02*
X170719924Y-66762475D01*
X170719924Y-66762475D02*
X170243734Y-66762475D01*
X169815162Y-67762475D02*
X169815162Y-66762475D01*
X169815162Y-66762475D02*
X169434210Y-66762475D01*
X169434210Y-66762475D02*
X169338972Y-66810094D01*
X169338972Y-66810094D02*
X169291353Y-66857713D01*
X169291353Y-66857713D02*
X169243734Y-66952951D01*
X169243734Y-66952951D02*
X169243734Y-67095808D01*
X169243734Y-67095808D02*
X169291353Y-67191046D01*
X169291353Y-67191046D02*
X169338972Y-67238665D01*
X169338972Y-67238665D02*
X169434210Y-67286284D01*
X169434210Y-67286284D02*
X169815162Y-67286284D01*
X167719924Y-67238665D02*
X167577067Y-67286284D01*
X167577067Y-67286284D02*
X167529448Y-67333903D01*
X167529448Y-67333903D02*
X167481829Y-67429141D01*
X167481829Y-67429141D02*
X167481829Y-67571998D01*
X167481829Y-67571998D02*
X167529448Y-67667236D01*
X167529448Y-67667236D02*
X167577067Y-67714856D01*
X167577067Y-67714856D02*
X167672305Y-67762475D01*
X167672305Y-67762475D02*
X168053257Y-67762475D01*
X168053257Y-67762475D02*
X168053257Y-66762475D01*
X168053257Y-66762475D02*
X167719924Y-66762475D01*
X167719924Y-66762475D02*
X167624686Y-66810094D01*
X167624686Y-66810094D02*
X167577067Y-66857713D01*
X167577067Y-66857713D02*
X167529448Y-66952951D01*
X167529448Y-66952951D02*
X167529448Y-67048189D01*
X167529448Y-67048189D02*
X167577067Y-67143427D01*
X167577067Y-67143427D02*
X167624686Y-67191046D01*
X167624686Y-67191046D02*
X167719924Y-67238665D01*
X167719924Y-67238665D02*
X168053257Y-67238665D01*
X167053257Y-67238665D02*
X166719924Y-67238665D01*
X166577067Y-67762475D02*
X167053257Y-67762475D01*
X167053257Y-67762475D02*
X167053257Y-66762475D01*
X167053257Y-66762475D02*
X166577067Y-66762475D01*
X166148495Y-67238665D02*
X165815162Y-67238665D01*
X165672305Y-67762475D02*
X166148495Y-67762475D01*
X166148495Y-67762475D02*
X166148495Y-66762475D01*
X166148495Y-66762475D02*
X165672305Y-66762475D01*
X165243733Y-67762475D02*
X165243733Y-66762475D01*
X165243733Y-66762475D02*
X164862781Y-66762475D01*
X164862781Y-66762475D02*
X164767543Y-66810094D01*
X164767543Y-66810094D02*
X164719924Y-66857713D01*
X164719924Y-66857713D02*
X164672305Y-66952951D01*
X164672305Y-66952951D02*
X164672305Y-67095808D01*
X164672305Y-67095808D02*
X164719924Y-67191046D01*
X164719924Y-67191046D02*
X164767543Y-67238665D01*
X164767543Y-67238665D02*
X164862781Y-67286284D01*
X164862781Y-67286284D02*
X165243733Y-67286284D01*
X163148495Y-67238665D02*
X163005638Y-67286284D01*
X163005638Y-67286284D02*
X162958019Y-67333903D01*
X162958019Y-67333903D02*
X162910400Y-67429141D01*
X162910400Y-67429141D02*
X162910400Y-67571998D01*
X162910400Y-67571998D02*
X162958019Y-67667236D01*
X162958019Y-67667236D02*
X163005638Y-67714856D01*
X163005638Y-67714856D02*
X163100876Y-67762475D01*
X163100876Y-67762475D02*
X163481828Y-67762475D01*
X163481828Y-67762475D02*
X163481828Y-66762475D01*
X163481828Y-66762475D02*
X163148495Y-66762475D01*
X163148495Y-66762475D02*
X163053257Y-66810094D01*
X163053257Y-66810094D02*
X163005638Y-66857713D01*
X163005638Y-66857713D02*
X162958019Y-66952951D01*
X162958019Y-66952951D02*
X162958019Y-67048189D01*
X162958019Y-67048189D02*
X163005638Y-67143427D01*
X163005638Y-67143427D02*
X163053257Y-67191046D01*
X163053257Y-67191046D02*
X163148495Y-67238665D01*
X163148495Y-67238665D02*
X163481828Y-67238665D01*
X162481828Y-67238665D02*
X162148495Y-67238665D01*
X162005638Y-67762475D02*
X162481828Y-67762475D01*
X162481828Y-67762475D02*
X162481828Y-66762475D01*
X162481828Y-66762475D02*
X162005638Y-66762475D01*
X161577066Y-67238665D02*
X161243733Y-67238665D01*
X161100876Y-67762475D02*
X161577066Y-67762475D01*
X161577066Y-67762475D02*
X161577066Y-66762475D01*
X161577066Y-66762475D02*
X161100876Y-66762475D01*
X160672304Y-67762475D02*
X160672304Y-66762475D01*
X160672304Y-66762475D02*
X160291352Y-66762475D01*
X160291352Y-66762475D02*
X160196114Y-66810094D01*
X160196114Y-66810094D02*
X160148495Y-66857713D01*
X160148495Y-66857713D02*
X160100876Y-66952951D01*
X160100876Y-66952951D02*
X160100876Y-67095808D01*
X160100876Y-67095808D02*
X160148495Y-67191046D01*
X160148495Y-67191046D02*
X160196114Y-67238665D01*
X160196114Y-67238665D02*
X160291352Y-67286284D01*
X160291352Y-67286284D02*
X160672304Y-67286284D01*
X158577066Y-67238665D02*
X158434209Y-67286284D01*
X158434209Y-67286284D02*
X158386590Y-67333903D01*
X158386590Y-67333903D02*
X158338971Y-67429141D01*
X158338971Y-67429141D02*
X158338971Y-67571998D01*
X158338971Y-67571998D02*
X158386590Y-67667236D01*
X158386590Y-67667236D02*
X158434209Y-67714856D01*
X158434209Y-67714856D02*
X158529447Y-67762475D01*
X158529447Y-67762475D02*
X158910399Y-67762475D01*
X158910399Y-67762475D02*
X158910399Y-66762475D01*
X158910399Y-66762475D02*
X158577066Y-66762475D01*
X158577066Y-66762475D02*
X158481828Y-66810094D01*
X158481828Y-66810094D02*
X158434209Y-66857713D01*
X158434209Y-66857713D02*
X158386590Y-66952951D01*
X158386590Y-66952951D02*
X158386590Y-67048189D01*
X158386590Y-67048189D02*
X158434209Y-67143427D01*
X158434209Y-67143427D02*
X158481828Y-67191046D01*
X158481828Y-67191046D02*
X158577066Y-67238665D01*
X158577066Y-67238665D02*
X158910399Y-67238665D01*
X157910399Y-67238665D02*
X157577066Y-67238665D01*
X157434209Y-67762475D02*
X157910399Y-67762475D01*
X157910399Y-67762475D02*
X157910399Y-66762475D01*
X157910399Y-66762475D02*
X157434209Y-66762475D01*
X157005637Y-67238665D02*
X156672304Y-67238665D01*
X156529447Y-67762475D02*
X157005637Y-67762475D01*
X157005637Y-67762475D02*
X157005637Y-66762475D01*
X157005637Y-66762475D02*
X156529447Y-66762475D01*
X156100875Y-67762475D02*
X156100875Y-66762475D01*
X156100875Y-66762475D02*
X155719923Y-66762475D01*
X155719923Y-66762475D02*
X155624685Y-66810094D01*
X155624685Y-66810094D02*
X155577066Y-66857713D01*
X155577066Y-66857713D02*
X155529447Y-66952951D01*
X155529447Y-66952951D02*
X155529447Y-67095808D01*
X155529447Y-67095808D02*
X155577066Y-67191046D01*
X155577066Y-67191046D02*
X155624685Y-67238665D01*
X155624685Y-67238665D02*
X155719923Y-67286284D01*
X155719923Y-67286284D02*
X156100875Y-67286284D01*
X154005637Y-67238665D02*
X153862780Y-67286284D01*
X153862780Y-67286284D02*
X153815161Y-67333903D01*
X153815161Y-67333903D02*
X153767542Y-67429141D01*
X153767542Y-67429141D02*
X153767542Y-67571998D01*
X153767542Y-67571998D02*
X153815161Y-67667236D01*
X153815161Y-67667236D02*
X153862780Y-67714856D01*
X153862780Y-67714856D02*
X153958018Y-67762475D01*
X153958018Y-67762475D02*
X154338970Y-67762475D01*
X154338970Y-67762475D02*
X154338970Y-66762475D01*
X154338970Y-66762475D02*
X154005637Y-66762475D01*
X154005637Y-66762475D02*
X153910399Y-66810094D01*
X153910399Y-66810094D02*
X153862780Y-66857713D01*
X153862780Y-66857713D02*
X153815161Y-66952951D01*
X153815161Y-66952951D02*
X153815161Y-67048189D01*
X153815161Y-67048189D02*
X153862780Y-67143427D01*
X153862780Y-67143427D02*
X153910399Y-67191046D01*
X153910399Y-67191046D02*
X154005637Y-67238665D01*
X154005637Y-67238665D02*
X154338970Y-67238665D01*
X153338970Y-67238665D02*
X153005637Y-67238665D01*
X152862780Y-67762475D02*
X153338970Y-67762475D01*
X153338970Y-67762475D02*
X153338970Y-66762475D01*
X153338970Y-66762475D02*
X152862780Y-66762475D01*
X152434208Y-67238665D02*
X152100875Y-67238665D01*
X151958018Y-67762475D02*
X152434208Y-67762475D01*
X152434208Y-67762475D02*
X152434208Y-66762475D01*
X152434208Y-66762475D02*
X151958018Y-66762475D01*
X151529446Y-67762475D02*
X151529446Y-66762475D01*
X151529446Y-66762475D02*
X151148494Y-66762475D01*
X151148494Y-66762475D02*
X151053256Y-66810094D01*
X151053256Y-66810094D02*
X151005637Y-66857713D01*
X151005637Y-66857713D02*
X150958018Y-66952951D01*
X150958018Y-66952951D02*
X150958018Y-67095808D01*
X150958018Y-67095808D02*
X151005637Y-67191046D01*
X151005637Y-67191046D02*
X151053256Y-67238665D01*
X151053256Y-67238665D02*
X151148494Y-67286284D01*
X151148494Y-67286284D02*
X151529446Y-67286284D01*
X175338972Y-68848609D02*
X175196115Y-68896228D01*
X175196115Y-68896228D02*
X175148496Y-68943847D01*
X175148496Y-68943847D02*
X175100877Y-69039085D01*
X175100877Y-69039085D02*
X175100877Y-69181942D01*
X175100877Y-69181942D02*
X175148496Y-69277180D01*
X175148496Y-69277180D02*
X175196115Y-69324800D01*
X175196115Y-69324800D02*
X175291353Y-69372419D01*
X175291353Y-69372419D02*
X175672305Y-69372419D01*
X175672305Y-69372419D02*
X175672305Y-68372419D01*
X175672305Y-68372419D02*
X175338972Y-68372419D01*
X175338972Y-68372419D02*
X175243734Y-68420038D01*
X175243734Y-68420038D02*
X175196115Y-68467657D01*
X175196115Y-68467657D02*
X175148496Y-68562895D01*
X175148496Y-68562895D02*
X175148496Y-68658133D01*
X175148496Y-68658133D02*
X175196115Y-68753371D01*
X175196115Y-68753371D02*
X175243734Y-68800990D01*
X175243734Y-68800990D02*
X175338972Y-68848609D01*
X175338972Y-68848609D02*
X175672305Y-68848609D01*
X174672305Y-68848609D02*
X174338972Y-68848609D01*
X174196115Y-69372419D02*
X174672305Y-69372419D01*
X174672305Y-69372419D02*
X174672305Y-68372419D01*
X174672305Y-68372419D02*
X174196115Y-68372419D01*
X173767543Y-68848609D02*
X173434210Y-68848609D01*
X173291353Y-69372419D02*
X173767543Y-69372419D01*
X173767543Y-69372419D02*
X173767543Y-68372419D01*
X173767543Y-68372419D02*
X173291353Y-68372419D01*
X172862781Y-69372419D02*
X172862781Y-68372419D01*
X172862781Y-68372419D02*
X172481829Y-68372419D01*
X172481829Y-68372419D02*
X172386591Y-68420038D01*
X172386591Y-68420038D02*
X172338972Y-68467657D01*
X172338972Y-68467657D02*
X172291353Y-68562895D01*
X172291353Y-68562895D02*
X172291353Y-68705752D01*
X172291353Y-68705752D02*
X172338972Y-68800990D01*
X172338972Y-68800990D02*
X172386591Y-68848609D01*
X172386591Y-68848609D02*
X172481829Y-68896228D01*
X172481829Y-68896228D02*
X172862781Y-68896228D01*
X170767543Y-68848609D02*
X170624686Y-68896228D01*
X170624686Y-68896228D02*
X170577067Y-68943847D01*
X170577067Y-68943847D02*
X170529448Y-69039085D01*
X170529448Y-69039085D02*
X170529448Y-69181942D01*
X170529448Y-69181942D02*
X170577067Y-69277180D01*
X170577067Y-69277180D02*
X170624686Y-69324800D01*
X170624686Y-69324800D02*
X170719924Y-69372419D01*
X170719924Y-69372419D02*
X171100876Y-69372419D01*
X171100876Y-69372419D02*
X171100876Y-68372419D01*
X171100876Y-68372419D02*
X170767543Y-68372419D01*
X170767543Y-68372419D02*
X170672305Y-68420038D01*
X170672305Y-68420038D02*
X170624686Y-68467657D01*
X170624686Y-68467657D02*
X170577067Y-68562895D01*
X170577067Y-68562895D02*
X170577067Y-68658133D01*
X170577067Y-68658133D02*
X170624686Y-68753371D01*
X170624686Y-68753371D02*
X170672305Y-68800990D01*
X170672305Y-68800990D02*
X170767543Y-68848609D01*
X170767543Y-68848609D02*
X171100876Y-68848609D01*
X170100876Y-68848609D02*
X169767543Y-68848609D01*
X169624686Y-69372419D02*
X170100876Y-69372419D01*
X170100876Y-69372419D02*
X170100876Y-68372419D01*
X170100876Y-68372419D02*
X169624686Y-68372419D01*
X169196114Y-68848609D02*
X168862781Y-68848609D01*
X168719924Y-69372419D02*
X169196114Y-69372419D01*
X169196114Y-69372419D02*
X169196114Y-68372419D01*
X169196114Y-68372419D02*
X168719924Y-68372419D01*
X168291352Y-69372419D02*
X168291352Y-68372419D01*
X168291352Y-68372419D02*
X167910400Y-68372419D01*
X167910400Y-68372419D02*
X167815162Y-68420038D01*
X167815162Y-68420038D02*
X167767543Y-68467657D01*
X167767543Y-68467657D02*
X167719924Y-68562895D01*
X167719924Y-68562895D02*
X167719924Y-68705752D01*
X167719924Y-68705752D02*
X167767543Y-68800990D01*
X167767543Y-68800990D02*
X167815162Y-68848609D01*
X167815162Y-68848609D02*
X167910400Y-68896228D01*
X167910400Y-68896228D02*
X168291352Y-68896228D01*
X166196114Y-68848609D02*
X166053257Y-68896228D01*
X166053257Y-68896228D02*
X166005638Y-68943847D01*
X166005638Y-68943847D02*
X165958019Y-69039085D01*
X165958019Y-69039085D02*
X165958019Y-69181942D01*
X165958019Y-69181942D02*
X166005638Y-69277180D01*
X166005638Y-69277180D02*
X166053257Y-69324800D01*
X166053257Y-69324800D02*
X166148495Y-69372419D01*
X166148495Y-69372419D02*
X166529447Y-69372419D01*
X166529447Y-69372419D02*
X166529447Y-68372419D01*
X166529447Y-68372419D02*
X166196114Y-68372419D01*
X166196114Y-68372419D02*
X166100876Y-68420038D01*
X166100876Y-68420038D02*
X166053257Y-68467657D01*
X166053257Y-68467657D02*
X166005638Y-68562895D01*
X166005638Y-68562895D02*
X166005638Y-68658133D01*
X166005638Y-68658133D02*
X166053257Y-68753371D01*
X166053257Y-68753371D02*
X166100876Y-68800990D01*
X166100876Y-68800990D02*
X166196114Y-68848609D01*
X166196114Y-68848609D02*
X166529447Y-68848609D01*
X165529447Y-68848609D02*
X165196114Y-68848609D01*
X165053257Y-69372419D02*
X165529447Y-69372419D01*
X165529447Y-69372419D02*
X165529447Y-68372419D01*
X165529447Y-68372419D02*
X165053257Y-68372419D01*
X164624685Y-68848609D02*
X164291352Y-68848609D01*
X164148495Y-69372419D02*
X164624685Y-69372419D01*
X164624685Y-69372419D02*
X164624685Y-68372419D01*
X164624685Y-68372419D02*
X164148495Y-68372419D01*
X163719923Y-69372419D02*
X163719923Y-68372419D01*
X163719923Y-68372419D02*
X163338971Y-68372419D01*
X163338971Y-68372419D02*
X163243733Y-68420038D01*
X163243733Y-68420038D02*
X163196114Y-68467657D01*
X163196114Y-68467657D02*
X163148495Y-68562895D01*
X163148495Y-68562895D02*
X163148495Y-68705752D01*
X163148495Y-68705752D02*
X163196114Y-68800990D01*
X163196114Y-68800990D02*
X163243733Y-68848609D01*
X163243733Y-68848609D02*
X163338971Y-68896228D01*
X163338971Y-68896228D02*
X163719923Y-68896228D01*
X161624685Y-68848609D02*
X161481828Y-68896228D01*
X161481828Y-68896228D02*
X161434209Y-68943847D01*
X161434209Y-68943847D02*
X161386590Y-69039085D01*
X161386590Y-69039085D02*
X161386590Y-69181942D01*
X161386590Y-69181942D02*
X161434209Y-69277180D01*
X161434209Y-69277180D02*
X161481828Y-69324800D01*
X161481828Y-69324800D02*
X161577066Y-69372419D01*
X161577066Y-69372419D02*
X161958018Y-69372419D01*
X161958018Y-69372419D02*
X161958018Y-68372419D01*
X161958018Y-68372419D02*
X161624685Y-68372419D01*
X161624685Y-68372419D02*
X161529447Y-68420038D01*
X161529447Y-68420038D02*
X161481828Y-68467657D01*
X161481828Y-68467657D02*
X161434209Y-68562895D01*
X161434209Y-68562895D02*
X161434209Y-68658133D01*
X161434209Y-68658133D02*
X161481828Y-68753371D01*
X161481828Y-68753371D02*
X161529447Y-68800990D01*
X161529447Y-68800990D02*
X161624685Y-68848609D01*
X161624685Y-68848609D02*
X161958018Y-68848609D01*
X160958018Y-68848609D02*
X160624685Y-68848609D01*
X160481828Y-69372419D02*
X160958018Y-69372419D01*
X160958018Y-69372419D02*
X160958018Y-68372419D01*
X160958018Y-68372419D02*
X160481828Y-68372419D01*
X160053256Y-68848609D02*
X159719923Y-68848609D01*
X159577066Y-69372419D02*
X160053256Y-69372419D01*
X160053256Y-69372419D02*
X160053256Y-68372419D01*
X160053256Y-68372419D02*
X159577066Y-68372419D01*
X159148494Y-69372419D02*
X159148494Y-68372419D01*
X159148494Y-68372419D02*
X158767542Y-68372419D01*
X158767542Y-68372419D02*
X158672304Y-68420038D01*
X158672304Y-68420038D02*
X158624685Y-68467657D01*
X158624685Y-68467657D02*
X158577066Y-68562895D01*
X158577066Y-68562895D02*
X158577066Y-68705752D01*
X158577066Y-68705752D02*
X158624685Y-68800990D01*
X158624685Y-68800990D02*
X158672304Y-68848609D01*
X158672304Y-68848609D02*
X158767542Y-68896228D01*
X158767542Y-68896228D02*
X159148494Y-68896228D01*
X157053256Y-68848609D02*
X156910399Y-68896228D01*
X156910399Y-68896228D02*
X156862780Y-68943847D01*
X156862780Y-68943847D02*
X156815161Y-69039085D01*
X156815161Y-69039085D02*
X156815161Y-69181942D01*
X156815161Y-69181942D02*
X156862780Y-69277180D01*
X156862780Y-69277180D02*
X156910399Y-69324800D01*
X156910399Y-69324800D02*
X157005637Y-69372419D01*
X157005637Y-69372419D02*
X157386589Y-69372419D01*
X157386589Y-69372419D02*
X157386589Y-68372419D01*
X157386589Y-68372419D02*
X157053256Y-68372419D01*
X157053256Y-68372419D02*
X156958018Y-68420038D01*
X156958018Y-68420038D02*
X156910399Y-68467657D01*
X156910399Y-68467657D02*
X156862780Y-68562895D01*
X156862780Y-68562895D02*
X156862780Y-68658133D01*
X156862780Y-68658133D02*
X156910399Y-68753371D01*
X156910399Y-68753371D02*
X156958018Y-68800990D01*
X156958018Y-68800990D02*
X157053256Y-68848609D01*
X157053256Y-68848609D02*
X157386589Y-68848609D01*
X156386589Y-68848609D02*
X156053256Y-68848609D01*
X155910399Y-69372419D02*
X156386589Y-69372419D01*
X156386589Y-69372419D02*
X156386589Y-68372419D01*
X156386589Y-68372419D02*
X155910399Y-68372419D01*
X155481827Y-68848609D02*
X155148494Y-68848609D01*
X155005637Y-69372419D02*
X155481827Y-69372419D01*
X155481827Y-69372419D02*
X155481827Y-68372419D01*
X155481827Y-68372419D02*
X155005637Y-68372419D01*
X154577065Y-69372419D02*
X154577065Y-68372419D01*
X154577065Y-68372419D02*
X154196113Y-68372419D01*
X154196113Y-68372419D02*
X154100875Y-68420038D01*
X154100875Y-68420038D02*
X154053256Y-68467657D01*
X154053256Y-68467657D02*
X154005637Y-68562895D01*
X154005637Y-68562895D02*
X154005637Y-68705752D01*
X154005637Y-68705752D02*
X154053256Y-68800990D01*
X154053256Y-68800990D02*
X154100875Y-68848609D01*
X154100875Y-68848609D02*
X154196113Y-68896228D01*
X154196113Y-68896228D02*
X154577065Y-68896228D01*
X152481827Y-68848609D02*
X152338970Y-68896228D01*
X152338970Y-68896228D02*
X152291351Y-68943847D01*
X152291351Y-68943847D02*
X152243732Y-69039085D01*
X152243732Y-69039085D02*
X152243732Y-69181942D01*
X152243732Y-69181942D02*
X152291351Y-69277180D01*
X152291351Y-69277180D02*
X152338970Y-69324800D01*
X152338970Y-69324800D02*
X152434208Y-69372419D01*
X152434208Y-69372419D02*
X152815160Y-69372419D01*
X152815160Y-69372419D02*
X152815160Y-68372419D01*
X152815160Y-68372419D02*
X152481827Y-68372419D01*
X152481827Y-68372419D02*
X152386589Y-68420038D01*
X152386589Y-68420038D02*
X152338970Y-68467657D01*
X152338970Y-68467657D02*
X152291351Y-68562895D01*
X152291351Y-68562895D02*
X152291351Y-68658133D01*
X152291351Y-68658133D02*
X152338970Y-68753371D01*
X152338970Y-68753371D02*
X152386589Y-68800990D01*
X152386589Y-68800990D02*
X152481827Y-68848609D01*
X152481827Y-68848609D02*
X152815160Y-68848609D01*
X151815160Y-68848609D02*
X151481827Y-68848609D01*
X151338970Y-69372419D02*
X151815160Y-69372419D01*
X151815160Y-69372419D02*
X151815160Y-68372419D01*
X151815160Y-68372419D02*
X151338970Y-68372419D01*
X150910398Y-68848609D02*
X150577065Y-68848609D01*
X150434208Y-69372419D02*
X150910398Y-69372419D01*
X150910398Y-69372419D02*
X150910398Y-68372419D01*
X150910398Y-68372419D02*
X150434208Y-68372419D01*
X150005636Y-69372419D02*
X150005636Y-68372419D01*
X150005636Y-68372419D02*
X149624684Y-68372419D01*
X149624684Y-68372419D02*
X149529446Y-68420038D01*
X149529446Y-68420038D02*
X149481827Y-68467657D01*
X149481827Y-68467657D02*
X149434208Y-68562895D01*
X149434208Y-68562895D02*
X149434208Y-68705752D01*
X149434208Y-68705752D02*
X149481827Y-68800990D01*
X149481827Y-68800990D02*
X149529446Y-68848609D01*
X149529446Y-68848609D02*
X149624684Y-68896228D01*
X149624684Y-68896228D02*
X150005636Y-68896228D01*
M02*
