M48
; DRILL file {KiCad 9.0.7} date 2026-03-08T23:24:07-0500
; FORMAT={-:-/ absolute / metric / decimal}
; #@! TF.CreationDate,2026-03-08T23:24:07-05:00
; #@! TF.GenerationSoftware,Kicad,Pcbnew,9.0.7
; #@! TF.FileFunction,Plated,1,2,PTH
FMAT,2
METRIC
; #@! TA.AperFunction,Plated,PTH,ComponentDrill
T1C0.600
; #@! TA.AperFunction,Plated,PTH,ComponentDrill
T2C0.750
; #@! TA.AperFunction,Plated,PTH,ComponentDrill
T3C0.800
; #@! TA.AperFunction,Plated,PTH,ComponentDrill
T4C1.000
%
G90
G05
T1
X149.5Y-75.5
X151.0Y-75.5
T2
X168.14Y-85.73
X168.14Y-87.0
X168.14Y-88.27
T3
X152.5Y-71.5
X154.69Y-75.5
X154.69Y-83.12
X157.23Y-75.5
X157.23Y-83.12
X157.5Y-71.5
X159.77Y-75.5
X159.77Y-83.12
X162.31Y-75.5
X162.31Y-83.12
X165.69Y-81.5
X170.95Y-73.0
X173.31Y-81.5
X177.35Y-73.0
T4
X163.5Y-51.756
X163.5Y-71.756
M30
