%TF.GenerationSoftware,KiCad,Pcbnew,9.0.7*%
%TF.CreationDate,2026-03-08T23:24:15-05:00*%
%TF.ProjectId,Evil_Beeper_Circuit,4576696c-5f42-4656-9570-65725f436972,rev?*%
%TF.SameCoordinates,Original*%
%TF.FileFunction,Copper,L2,Bot*%
%TF.FilePolarity,Positive*%
%FSLAX46Y46*%
G04 Gerber Fmt 4.6, Leading zero omitted, Abs format (unit mm)*
G04 Created by KiCad (PCBNEW 9.0.7) date 2026-03-08 23:24:15*
%MOMM*%
%LPD*%
G01*
G04 APERTURE LIST*
G04 Aperture macros list*
%AMRoundRect*
0 Rectangle with rounded corners*
0 $1 Rounding radius*
0 $2 $3 $4 $5 $6 $7 $8 $9 X,Y pos of 4 corners*
0 Add a 4 corners polygon primitive as box body*
4,1,4,$2,$3,$4,$5,$6,$7,$8,$9,$2,$3,0*
0 Add four circle primitives for the rounded corners*
1,1,$1+$1,$2,$3*
1,1,$1+$1,$4,$5*
1,1,$1+$1,$6,$7*
1,1,$1+$1,$8,$9*
0 Add four rect primitives between the rounded corners*
20,1,$1+$1,$2,$3,$4,$5,0*
20,1,$1+$1,$4,$5,$6,$7,0*
20,1,$1+$1,$6,$7,$8,$9,0*
20,1,$1+$1,$8,$9,$2,$3,0*%
G04 Aperture macros list end*
%TA.AperFunction,ComponentPad*%
%ADD10C,1.400000*%
%TD*%
%TA.AperFunction,ComponentPad*%
%ADD11C,1.600000*%
%TD*%
%TA.AperFunction,ComponentPad*%
%ADD12RoundRect,0.225000X0.775000X-0.525000X0.775000X0.525000X-0.775000X0.525000X-0.775000X-0.525000X0*%
%TD*%
%TA.AperFunction,ComponentPad*%
%ADD13RoundRect,0.250000X-0.350000X-0.350000X0.350000X-0.350000X0.350000X0.350000X-0.350000X0.350000X0*%
%TD*%
%TA.AperFunction,ComponentPad*%
%ADD14C,1.200000*%
%TD*%
%TA.AperFunction,ComponentPad*%
%ADD15R,1.500000X1.050000*%
%TD*%
%TA.AperFunction,ComponentPad*%
%ADD16O,1.500000X1.050000*%
%TD*%
%TA.AperFunction,ComponentPad*%
%ADD17RoundRect,0.250000X0.550000X-0.550000X0.550000X0.550000X-0.550000X0.550000X-0.550000X-0.550000X0*%
%TD*%
%TA.AperFunction,Conductor*%
%ADD18C,1.000000*%
%TD*%
G04 APERTURE END LIST*
D10*
%TO.P,LS1,1,1*%
%TO.N,VCC*%
X177350000Y-73000000D03*
%TO.P,LS1,2,2*%
%TO.N,Net-(Q1-C)*%
X170950000Y-73000000D03*
%TD*%
D11*
%TO.P,C2,1*%
%TO.N,GND*%
X152500000Y-71500000D03*
%TO.P,C2,2*%
%TO.N,VCC*%
X157500000Y-71500000D03*
%TD*%
D12*
%TO.P,BT1,1,+*%
%TO.N,VCC*%
X163500000Y-71755679D03*
%TO.P,BT1,2,-*%
%TO.N,GND*%
X163500000Y-51755679D03*
%TD*%
D13*
%TO.P,C1,1*%
%TO.N,GND*%
X149500000Y-75500000D03*
D14*
%TO.P,C1,2*%
%TO.N,VCC*%
X151000000Y-75500000D03*
%TD*%
D11*
%TO.P,R1,1*%
%TO.N,Net-(U1-AREF{slash}PB0)*%
X165690000Y-81500000D03*
%TO.P,R1,2*%
%TO.N,Net-(Q1-B)*%
X173310000Y-81500000D03*
%TD*%
D15*
%TO.P,Q1,1,C*%
%TO.N,Net-(Q1-C)*%
X168140000Y-85730000D03*
D16*
%TO.P,Q1,2,B*%
%TO.N,Net-(Q1-B)*%
X168140000Y-87000000D03*
%TO.P,Q1,3,E*%
%TO.N,GND*%
X168140000Y-88270000D03*
%TD*%
D17*
%TO.P,U1,1,~{RESET}/PB5*%
%TO.N,unconnected-(U1-~{RESET}{slash}PB5-Pad1)*%
X154690000Y-83120000D03*
D11*
%TO.P,U1,2,XTAL1/PB3*%
%TO.N,unconnected-(U1-XTAL1{slash}PB3-Pad2)*%
X157230000Y-83120000D03*
%TO.P,U1,3,XTAL2/PB4*%
%TO.N,unconnected-(U1-XTAL2{slash}PB4-Pad3)*%
X159770000Y-83120000D03*
%TO.P,U1,4,GND*%
%TO.N,GND*%
X162310000Y-83120000D03*
%TO.P,U1,5,AREF/PB0*%
%TO.N,Net-(U1-AREF{slash}PB0)*%
X162310000Y-75500000D03*
%TO.P,U1,6,PB1*%
%TO.N,unconnected-(U1-PB1-Pad6)*%
X159770000Y-75500000D03*
%TO.P,U1,7,PB2*%
%TO.N,unconnected-(U1-PB2-Pad7)*%
X157230000Y-75500000D03*
%TO.P,U1,8,VCC*%
%TO.N,VCC*%
X154690000Y-75500000D03*
%TD*%
D18*
%TO.N,Net-(Q1-C)*%
X170950000Y-82920000D02*
X170950000Y-73000000D01*
X168140000Y-85730000D02*
X170950000Y-82920000D01*
%TO.N,Net-(Q1-B)*%
X173310000Y-83237000D02*
X169547000Y-87000000D01*
X173310000Y-81500000D02*
X173310000Y-83237000D01*
X169547000Y-87000000D02*
X168140000Y-87000000D01*
%TO.N,Net-(U1-AREF{slash}PB0)*%
X165690000Y-78880000D02*
X162310000Y-75500000D01*
X165690000Y-81500000D02*
X165690000Y-78880000D01*
%TD*%
%TA.AperFunction,Conductor*%
%TO.N,VCC*%
G36*
X176502855Y-46500632D02*
G01*
X176863310Y-46517296D01*
X176874700Y-46518352D01*
X177229238Y-46567808D01*
X177240482Y-46569910D01*
X177588944Y-46651867D01*
X177599934Y-46654994D01*
X177939368Y-46768761D01*
X177950022Y-46772889D01*
X178277488Y-46917479D01*
X178287735Y-46922581D01*
X178600452Y-47096765D01*
X178610190Y-47102794D01*
X178905512Y-47305093D01*
X178914652Y-47311996D01*
X179190035Y-47540671D01*
X179198499Y-47548387D01*
X179451612Y-47801500D01*
X179459328Y-47809964D01*
X179688003Y-48085347D01*
X179694906Y-48094487D01*
X179897205Y-48389809D01*
X179903234Y-48399547D01*
X180077418Y-48712264D01*
X180082523Y-48722517D01*
X180227105Y-49049964D01*
X180231243Y-49060644D01*
X180345001Y-49400052D01*
X180348135Y-49411068D01*
X180430087Y-49759509D01*
X180432192Y-49770768D01*
X180481646Y-50125292D01*
X180482703Y-50136696D01*
X180499368Y-50497144D01*
X180499500Y-50502871D01*
X180499500Y-87497128D01*
X180499368Y-87502855D01*
X180482703Y-87863303D01*
X180481646Y-87874707D01*
X180432192Y-88229231D01*
X180430087Y-88240490D01*
X180348135Y-88588931D01*
X180345001Y-88599947D01*
X180231243Y-88939355D01*
X180227105Y-88950035D01*
X180082523Y-89277482D01*
X180077418Y-89287735D01*
X179903234Y-89600452D01*
X179897205Y-89610190D01*
X179694906Y-89905512D01*
X179688003Y-89914652D01*
X179459328Y-90190035D01*
X179451612Y-90198499D01*
X179198499Y-90451612D01*
X179190035Y-90459328D01*
X178914652Y-90688003D01*
X178905512Y-90694906D01*
X178610190Y-90897205D01*
X178600452Y-90903234D01*
X178287735Y-91077418D01*
X178277482Y-91082523D01*
X177950035Y-91227105D01*
X177939355Y-91231243D01*
X177599947Y-91345001D01*
X177588931Y-91348135D01*
X177240490Y-91430087D01*
X177229231Y-91432192D01*
X176874707Y-91481646D01*
X176863303Y-91482703D01*
X176502855Y-91499368D01*
X176497128Y-91499500D01*
X150502872Y-91499500D01*
X150497145Y-91499368D01*
X150136696Y-91482703D01*
X150125292Y-91481646D01*
X149770768Y-91432192D01*
X149759509Y-91430087D01*
X149411068Y-91348135D01*
X149400052Y-91345001D01*
X149060644Y-91231243D01*
X149049964Y-91227105D01*
X148722517Y-91082523D01*
X148712264Y-91077418D01*
X148399547Y-90903234D01*
X148389809Y-90897205D01*
X148094487Y-90694906D01*
X148085347Y-90688003D01*
X147809964Y-90459328D01*
X147801500Y-90451612D01*
X147548387Y-90198499D01*
X147540671Y-90190035D01*
X147311994Y-89914649D01*
X147305093Y-89905512D01*
X147102794Y-89610190D01*
X147096765Y-89600452D01*
X147007283Y-89439803D01*
X146922579Y-89287731D01*
X146917476Y-89277482D01*
X146772889Y-88950022D01*
X146768761Y-88939368D01*
X146654994Y-88599934D01*
X146651867Y-88588944D01*
X146569910Y-88240482D01*
X146567807Y-88229231D01*
X146563526Y-88198545D01*
X146518352Y-87874700D01*
X146517296Y-87863303D01*
X146516683Y-87850051D01*
X146500632Y-87502855D01*
X146500500Y-87497128D01*
X146500500Y-87359568D01*
X147999500Y-87359568D01*
X147999500Y-87640431D01*
X148030942Y-87919494D01*
X148030945Y-87919512D01*
X148093439Y-88193317D01*
X148093443Y-88193329D01*
X148186200Y-88458411D01*
X148308053Y-88711442D01*
X148321273Y-88732482D01*
X148457477Y-88949248D01*
X148632584Y-89168825D01*
X148831175Y-89367416D01*
X149050752Y-89542523D01*
X149288555Y-89691945D01*
X149541592Y-89813801D01*
X149740680Y-89883465D01*
X149806670Y-89906556D01*
X149806682Y-89906560D01*
X150080491Y-89969055D01*
X150080497Y-89969055D01*
X150080505Y-89969057D01*
X150266547Y-89990018D01*
X150359569Y-90000499D01*
X150359572Y-90000500D01*
X150359575Y-90000500D01*
X150640428Y-90000500D01*
X150640429Y-90000499D01*
X150783055Y-89984429D01*
X150919494Y-89969057D01*
X150919499Y-89969056D01*
X150919509Y-89969055D01*
X151193318Y-89906560D01*
X151458408Y-89813801D01*
X151711445Y-89691945D01*
X151949248Y-89542523D01*
X152168825Y-89367416D01*
X152367416Y-89168825D01*
X152542523Y-88949248D01*
X152691945Y-88711445D01*
X152813801Y-88458408D01*
X152906560Y-88193318D01*
X152969055Y-87919509D01*
X152979511Y-87826714D01*
X152993731Y-87700500D01*
X153000500Y-87640425D01*
X153000500Y-87359575D01*
X152969055Y-87080491D01*
X152966993Y-87071457D01*
X167189499Y-87071457D01*
X167217379Y-87211614D01*
X167217381Y-87211620D01*
X167272069Y-87343650D01*
X167272074Y-87343659D01*
X167351467Y-87462478D01*
X167351470Y-87462482D01*
X167436307Y-87547319D01*
X167469792Y-87608642D01*
X167464808Y-87678334D01*
X167436307Y-87722681D01*
X167351470Y-87807517D01*
X167351467Y-87807521D01*
X167272074Y-87926340D01*
X167272069Y-87926349D01*
X167217381Y-88058379D01*
X167217379Y-88058385D01*
X167189500Y-88198542D01*
X167189500Y-88198545D01*
X167189500Y-88341455D01*
X167189500Y-88341457D01*
X167189499Y-88341457D01*
X167217379Y-88481614D01*
X167217381Y-88481620D01*
X167272069Y-88613650D01*
X167272074Y-88613659D01*
X167351467Y-88732478D01*
X167351470Y-88732482D01*
X167452517Y-88833529D01*
X167452521Y-88833532D01*
X167571340Y-88912925D01*
X167571346Y-88912928D01*
X167571347Y-88912929D01*
X167703380Y-88967619D01*
X167703384Y-88967619D01*
X167703385Y-88967620D01*
X167843542Y-88995500D01*
X167843545Y-88995500D01*
X168436457Y-88995500D01*
X168530751Y-88976742D01*
X168576620Y-88967619D01*
X168708653Y-88912929D01*
X168827479Y-88833532D01*
X168928532Y-88732479D01*
X169007929Y-88613653D01*
X169062619Y-88481620D01*
X169090500Y-88341455D01*
X169090500Y-88198545D01*
X169090500Y-88198542D01*
X169062620Y-88058385D01*
X169062619Y-88058384D01*
X169062619Y-88058380D01*
X169007929Y-87926347D01*
X169007928Y-87926346D01*
X169007925Y-87926340D01*
X168985909Y-87893391D01*
X168965031Y-87826714D01*
X168983515Y-87759333D01*
X169035494Y-87712643D01*
X169089011Y-87700500D01*
X169615996Y-87700500D01*
X169727428Y-87678334D01*
X169751328Y-87673580D01*
X169844469Y-87635000D01*
X169878807Y-87620777D01*
X169878808Y-87620776D01*
X169878811Y-87620775D01*
X169993543Y-87544114D01*
X170103549Y-87434108D01*
X170178089Y-87359568D01*
X173999500Y-87359568D01*
X173999500Y-87640431D01*
X174030942Y-87919494D01*
X174030945Y-87919512D01*
X174093439Y-88193317D01*
X174093443Y-88193329D01*
X174186200Y-88458411D01*
X174308053Y-88711442D01*
X174321273Y-88732482D01*
X174457477Y-88949248D01*
X174632584Y-89168825D01*
X174831175Y-89367416D01*
X175050752Y-89542523D01*
X175288555Y-89691945D01*
X175541592Y-89813801D01*
X175740680Y-89883465D01*
X175806670Y-89906556D01*
X175806682Y-89906560D01*
X176080491Y-89969055D01*
X176080497Y-89969055D01*
X176080505Y-89969057D01*
X176266547Y-89990018D01*
X176359569Y-90000499D01*
X176359572Y-90000500D01*
X176359575Y-90000500D01*
X176640428Y-90000500D01*
X176640429Y-90000499D01*
X176783055Y-89984429D01*
X176919494Y-89969057D01*
X176919499Y-89969056D01*
X176919509Y-89969055D01*
X177193318Y-89906560D01*
X177458408Y-89813801D01*
X177711445Y-89691945D01*
X177949248Y-89542523D01*
X178168825Y-89367416D01*
X178367416Y-89168825D01*
X178542523Y-88949248D01*
X178691945Y-88711445D01*
X178813801Y-88458408D01*
X178906560Y-88193318D01*
X178969055Y-87919509D01*
X178979511Y-87826714D01*
X178993731Y-87700500D01*
X179000500Y-87640425D01*
X179000500Y-87359575D01*
X178969055Y-87080491D01*
X178906560Y-86806682D01*
X178813801Y-86541592D01*
X178691945Y-86288555D01*
X178542523Y-86050752D01*
X178367416Y-85831175D01*
X178168825Y-85632584D01*
X177949248Y-85457477D01*
X177711445Y-85308055D01*
X177711442Y-85308053D01*
X177458411Y-85186200D01*
X177193329Y-85093443D01*
X177193317Y-85093439D01*
X176919512Y-85030945D01*
X176919494Y-85030942D01*
X176640431Y-84999500D01*
X176640425Y-84999500D01*
X176359575Y-84999500D01*
X176359568Y-84999500D01*
X176080505Y-85030942D01*
X176080487Y-85030945D01*
X175806682Y-85093439D01*
X175806670Y-85093443D01*
X175541588Y-85186200D01*
X175288557Y-85308053D01*
X175050753Y-85457476D01*
X174831175Y-85632583D01*
X174632583Y-85831175D01*
X174457476Y-86050753D01*
X174308053Y-86288557D01*
X174186200Y-86541588D01*
X174093443Y-86806670D01*
X174093439Y-86806682D01*
X174030945Y-87080487D01*
X174030942Y-87080505D01*
X173999500Y-87359568D01*
X170178089Y-87359568D01*
X170269243Y-87268415D01*
X173854111Y-83683546D01*
X173854112Y-83683545D01*
X173854114Y-83683543D01*
X173930775Y-83568811D01*
X173983580Y-83441328D01*
X173992389Y-83397040D01*
X174010500Y-83305996D01*
X174010500Y-82265783D01*
X174030185Y-82198744D01*
X174046820Y-82178101D01*
X174087136Y-82137785D01*
X174087139Y-82137782D01*
X174196632Y-81973914D01*
X174272051Y-81791835D01*
X174310500Y-81598541D01*
X174310500Y-81401459D01*
X174310500Y-81401456D01*
X174272052Y-81208170D01*
X174272051Y-81208169D01*
X174272051Y-81208165D01*
X174272049Y-81208160D01*
X174196635Y-81026092D01*
X174196628Y-81026079D01*
X174087139Y-80862218D01*
X174087136Y-80862214D01*
X173947785Y-80722863D01*
X173947781Y-80722860D01*
X173783920Y-80613371D01*
X173783907Y-80613364D01*
X173601839Y-80537950D01*
X173601829Y-80537947D01*
X173408543Y-80499500D01*
X173408541Y-80499500D01*
X173211459Y-80499500D01*
X173211457Y-80499500D01*
X173018170Y-80537947D01*
X173018160Y-80537950D01*
X172836092Y-80613364D01*
X172836079Y-80613371D01*
X172672218Y-80722860D01*
X172672214Y-80722863D01*
X172532863Y-80862214D01*
X172532860Y-80862218D01*
X172423371Y-81026079D01*
X172423364Y-81026092D01*
X172347950Y-81208160D01*
X172347947Y-81208170D01*
X172309500Y-81401456D01*
X172309500Y-81401459D01*
X172309500Y-81598541D01*
X172309500Y-81598543D01*
X172309499Y-81598543D01*
X172347947Y-81791829D01*
X172347950Y-81791839D01*
X172423364Y-81973907D01*
X172423371Y-81973920D01*
X172532860Y-82137781D01*
X172532863Y-82137785D01*
X172573180Y-82178101D01*
X172606666Y-82239424D01*
X172609500Y-82265783D01*
X172609500Y-82895481D01*
X172589815Y-82962520D01*
X172573181Y-82983162D01*
X169302181Y-86254162D01*
X169240858Y-86287647D01*
X169171166Y-86282663D01*
X169115233Y-86240791D01*
X169090816Y-86175327D01*
X169090500Y-86166481D01*
X169090500Y-85821519D01*
X169110185Y-85754480D01*
X169126819Y-85733838D01*
X171494112Y-83366545D01*
X171494114Y-83366543D01*
X171570775Y-83251811D01*
X171623580Y-83124328D01*
X171637185Y-83055931D01*
X171650500Y-82988993D01*
X171650500Y-73610099D01*
X171670185Y-73543060D01*
X171671398Y-73541208D01*
X171748013Y-73426547D01*
X171815894Y-73262666D01*
X171819288Y-73245606D01*
X171850499Y-73088695D01*
X171850500Y-73088693D01*
X171850500Y-72911307D01*
X171850499Y-72911303D01*
X171849355Y-72905552D01*
X176150000Y-72905552D01*
X176150000Y-73094447D01*
X176179548Y-73281002D01*
X176237914Y-73460637D01*
X176323666Y-73628933D01*
X176342116Y-73654328D01*
X176950000Y-73046445D01*
X176950000Y-73052661D01*
X176977259Y-73154394D01*
X177029920Y-73245606D01*
X177104394Y-73320080D01*
X177195606Y-73372741D01*
X177297339Y-73400000D01*
X177303554Y-73400000D01*
X176695669Y-74007882D01*
X176695670Y-74007883D01*
X176721059Y-74026329D01*
X176889362Y-74112085D01*
X177068997Y-74170451D01*
X177255553Y-74200000D01*
X177444447Y-74200000D01*
X177631002Y-74170451D01*
X177810637Y-74112085D01*
X177978937Y-74026331D01*
X178004328Y-74007883D01*
X178004328Y-74007882D01*
X177396447Y-73400000D01*
X177402661Y-73400000D01*
X177504394Y-73372741D01*
X177595606Y-73320080D01*
X177670080Y-73245606D01*
X177722741Y-73154394D01*
X177750000Y-73052661D01*
X177750000Y-73046446D01*
X178357882Y-73654328D01*
X178357883Y-73654328D01*
X178376331Y-73628937D01*
X178462085Y-73460637D01*
X178520451Y-73281002D01*
X178550000Y-73094447D01*
X178550000Y-72905552D01*
X178520451Y-72718997D01*
X178462085Y-72539362D01*
X178376329Y-72371059D01*
X178357883Y-72345670D01*
X178357882Y-72345669D01*
X177750000Y-72953552D01*
X177750000Y-72947339D01*
X177722741Y-72845606D01*
X177670080Y-72754394D01*
X177595606Y-72679920D01*
X177504394Y-72627259D01*
X177402661Y-72600000D01*
X177396447Y-72600000D01*
X178004328Y-71992116D01*
X177978933Y-71973666D01*
X177810637Y-71887914D01*
X177631002Y-71829548D01*
X177444447Y-71800000D01*
X177255553Y-71800000D01*
X177068997Y-71829548D01*
X176889362Y-71887914D01*
X176721060Y-71973669D01*
X176695670Y-71992116D01*
X176695669Y-71992116D01*
X177303554Y-72600000D01*
X177297339Y-72600000D01*
X177195606Y-72627259D01*
X177104394Y-72679920D01*
X177029920Y-72754394D01*
X176977259Y-72845606D01*
X176950000Y-72947339D01*
X176950000Y-72953553D01*
X176342116Y-72345669D01*
X176342116Y-72345670D01*
X176323669Y-72371060D01*
X176237914Y-72539362D01*
X176179548Y-72718997D01*
X176150000Y-72905552D01*
X171849355Y-72905552D01*
X171815896Y-72737341D01*
X171815893Y-72737332D01*
X171748016Y-72573459D01*
X171748009Y-72573446D01*
X171649464Y-72425965D01*
X171649461Y-72425961D01*
X171524038Y-72300538D01*
X171524034Y-72300535D01*
X171376553Y-72201990D01*
X171376540Y-72201983D01*
X171260545Y-72153937D01*
X171260543Y-72153937D01*
X171212666Y-72134106D01*
X171212659Y-72134104D01*
X171212658Y-72134104D01*
X171212658Y-72134103D01*
X171038694Y-72099500D01*
X171038691Y-72099500D01*
X170861309Y-72099500D01*
X170861306Y-72099500D01*
X170687341Y-72134103D01*
X170687332Y-72134106D01*
X170523459Y-72201983D01*
X170523446Y-72201990D01*
X170375965Y-72300535D01*
X170375961Y-72300538D01*
X170250538Y-72425961D01*
X170250535Y-72425965D01*
X170151990Y-72573446D01*
X170151983Y-72573459D01*
X170084106Y-72737332D01*
X170084103Y-72737341D01*
X170049500Y-72911304D01*
X170049500Y-73088695D01*
X170084103Y-73262658D01*
X170084106Y-73262667D01*
X170151984Y-73426542D01*
X170151985Y-73426543D01*
X170151987Y-73426547D01*
X170228602Y-73541208D01*
X170249480Y-73607885D01*
X170249500Y-73610099D01*
X170249500Y-82578481D01*
X170229815Y-82645520D01*
X170213181Y-82666162D01*
X167911162Y-84968181D01*
X167849839Y-85001666D01*
X167823481Y-85004500D01*
X167370247Y-85004500D01*
X167311770Y-85016131D01*
X167311769Y-85016132D01*
X167245447Y-85060447D01*
X167201132Y-85126769D01*
X167201131Y-85126770D01*
X167189500Y-85185247D01*
X167189500Y-86274752D01*
X167201131Y-86333229D01*
X167201132Y-86333230D01*
X167245447Y-86399552D01*
X167279374Y-86422221D01*
X167324179Y-86475833D01*
X167332886Y-86545158D01*
X167313586Y-86594212D01*
X167272076Y-86656337D01*
X167272069Y-86656349D01*
X167217381Y-86788379D01*
X167217379Y-86788385D01*
X167189500Y-86928542D01*
X167189500Y-86928545D01*
X167189500Y-87071455D01*
X167189500Y-87071457D01*
X167189499Y-87071457D01*
X152966993Y-87071457D01*
X152906560Y-86806682D01*
X152813801Y-86541592D01*
X152691945Y-86288555D01*
X152542523Y-86050752D01*
X152367416Y-85831175D01*
X152168825Y-85632584D01*
X151949248Y-85457477D01*
X151711445Y-85308055D01*
X151711446Y-85308055D01*
X151711439Y-85308051D01*
X151675782Y-85290880D01*
X151675781Y-85290880D01*
X151458411Y-85186200D01*
X151193329Y-85093443D01*
X151193317Y-85093439D01*
X150919512Y-85030945D01*
X150919494Y-85030942D01*
X150640431Y-84999500D01*
X150640425Y-84999500D01*
X150359575Y-84999500D01*
X150359568Y-84999500D01*
X150080505Y-85030942D01*
X150080487Y-85030945D01*
X149806682Y-85093439D01*
X149806670Y-85093443D01*
X149541588Y-85186200D01*
X149288557Y-85308053D01*
X149050753Y-85457476D01*
X148831175Y-85632583D01*
X148632583Y-85831175D01*
X148457476Y-86050753D01*
X148308053Y-86288557D01*
X148186200Y-86541588D01*
X148093443Y-86806670D01*
X148093439Y-86806682D01*
X148030945Y-87080487D01*
X148030942Y-87080505D01*
X147999500Y-87359568D01*
X146500500Y-87359568D01*
X146500500Y-82515730D01*
X153689500Y-82515730D01*
X153689500Y-83724269D01*
X153692353Y-83754699D01*
X153692353Y-83754701D01*
X153737206Y-83882880D01*
X153737207Y-83882882D01*
X153817850Y-83992150D01*
X153927118Y-84072793D01*
X153953576Y-84082051D01*
X154055299Y-84117646D01*
X154085730Y-84120500D01*
X154085734Y-84120500D01*
X155294270Y-84120500D01*
X155324699Y-84117646D01*
X155324701Y-84117646D01*
X155388790Y-84095219D01*
X155452882Y-84072793D01*
X155562150Y-83992150D01*
X155642793Y-83882882D01*
X155665219Y-83818790D01*
X155687646Y-83754701D01*
X155687646Y-83754699D01*
X155690500Y-83724269D01*
X155690500Y-83218543D01*
X156229499Y-83218543D01*
X156267947Y-83411829D01*
X156267950Y-83411839D01*
X156343364Y-83593907D01*
X156343371Y-83593920D01*
X156452860Y-83757781D01*
X156452863Y-83757785D01*
X156592214Y-83897136D01*
X156592218Y-83897139D01*
X156756079Y-84006628D01*
X156756092Y-84006635D01*
X156915814Y-84072793D01*
X156938165Y-84082051D01*
X156938169Y-84082051D01*
X156938170Y-84082052D01*
X157131456Y-84120500D01*
X157131459Y-84120500D01*
X157328543Y-84120500D01*
X157458582Y-84094632D01*
X157521835Y-84082051D01*
X157703914Y-84006632D01*
X157867782Y-83897139D01*
X158007139Y-83757782D01*
X158116632Y-83593914D01*
X158192051Y-83411835D01*
X158230500Y-83218543D01*
X158769499Y-83218543D01*
X158807947Y-83411829D01*
X158807950Y-83411839D01*
X158883364Y-83593907D01*
X158883371Y-83593920D01*
X158992860Y-83757781D01*
X158992863Y-83757785D01*
X159132214Y-83897136D01*
X159132218Y-83897139D01*
X159296079Y-84006628D01*
X159296092Y-84006635D01*
X159455814Y-84072793D01*
X159478165Y-84082051D01*
X159478169Y-84082051D01*
X159478170Y-84082052D01*
X159671456Y-84120500D01*
X159671459Y-84120500D01*
X159868543Y-84120500D01*
X159998582Y-84094632D01*
X160061835Y-84082051D01*
X160243914Y-84006632D01*
X160407782Y-83897139D01*
X160547139Y-83757782D01*
X160656632Y-83593914D01*
X160732051Y-83411835D01*
X160770500Y-83218543D01*
X161309499Y-83218543D01*
X161347947Y-83411829D01*
X161347950Y-83411839D01*
X161423364Y-83593907D01*
X161423371Y-83593920D01*
X161532860Y-83757781D01*
X161532863Y-83757785D01*
X161672214Y-83897136D01*
X161672218Y-83897139D01*
X161836079Y-84006628D01*
X161836092Y-84006635D01*
X161995814Y-84072793D01*
X162018165Y-84082051D01*
X162018169Y-84082051D01*
X162018170Y-84082052D01*
X162211456Y-84120500D01*
X162211459Y-84120500D01*
X162408543Y-84120500D01*
X162538582Y-84094632D01*
X162601835Y-84082051D01*
X162783914Y-84006632D01*
X162947782Y-83897139D01*
X163087139Y-83757782D01*
X163196632Y-83593914D01*
X163272051Y-83411835D01*
X163310500Y-83218541D01*
X163310500Y-83021459D01*
X163310500Y-83021456D01*
X163272052Y-82828170D01*
X163272051Y-82828169D01*
X163272051Y-82828165D01*
X163204948Y-82666162D01*
X163196635Y-82646092D01*
X163196628Y-82646079D01*
X163087139Y-82482218D01*
X163087136Y-82482214D01*
X162947785Y-82342863D01*
X162947781Y-82342860D01*
X162783920Y-82233371D01*
X162783907Y-82233364D01*
X162601839Y-82157950D01*
X162601829Y-82157947D01*
X162408543Y-82119500D01*
X162408541Y-82119500D01*
X162211459Y-82119500D01*
X162211457Y-82119500D01*
X162018170Y-82157947D01*
X162018160Y-82157950D01*
X161836092Y-82233364D01*
X161836079Y-82233371D01*
X161672218Y-82342860D01*
X161672214Y-82342863D01*
X161532863Y-82482214D01*
X161532860Y-82482218D01*
X161423371Y-82646079D01*
X161423364Y-82646092D01*
X161347950Y-82828160D01*
X161347947Y-82828170D01*
X161309500Y-83021456D01*
X161309500Y-83021459D01*
X161309500Y-83218541D01*
X161309500Y-83218543D01*
X161309499Y-83218543D01*
X160770500Y-83218543D01*
X160770500Y-83218541D01*
X160770500Y-83021459D01*
X160770500Y-83021456D01*
X160732052Y-82828170D01*
X160732051Y-82828169D01*
X160732051Y-82828165D01*
X160664948Y-82666162D01*
X160656635Y-82646092D01*
X160656628Y-82646079D01*
X160547139Y-82482218D01*
X160547136Y-82482214D01*
X160407785Y-82342863D01*
X160407781Y-82342860D01*
X160243920Y-82233371D01*
X160243907Y-82233364D01*
X160061839Y-82157950D01*
X160061829Y-82157947D01*
X159868543Y-82119500D01*
X159868541Y-82119500D01*
X159671459Y-82119500D01*
X159671457Y-82119500D01*
X159478170Y-82157947D01*
X159478160Y-82157950D01*
X159296092Y-82233364D01*
X159296079Y-82233371D01*
X159132218Y-82342860D01*
X159132214Y-82342863D01*
X158992863Y-82482214D01*
X158992860Y-82482218D01*
X158883371Y-82646079D01*
X158883364Y-82646092D01*
X158807950Y-82828160D01*
X158807947Y-82828170D01*
X158769500Y-83021456D01*
X158769500Y-83021459D01*
X158769500Y-83218541D01*
X158769500Y-83218543D01*
X158769499Y-83218543D01*
X158230500Y-83218543D01*
X158230500Y-83218541D01*
X158230500Y-83021459D01*
X158230500Y-83021456D01*
X158192052Y-82828170D01*
X158192051Y-82828169D01*
X158192051Y-82828165D01*
X158124948Y-82666162D01*
X158116635Y-82646092D01*
X158116628Y-82646079D01*
X158007139Y-82482218D01*
X158007136Y-82482214D01*
X157867785Y-82342863D01*
X157867781Y-82342860D01*
X157703920Y-82233371D01*
X157703907Y-82233364D01*
X157521839Y-82157950D01*
X157521829Y-82157947D01*
X157328543Y-82119500D01*
X157328541Y-82119500D01*
X157131459Y-82119500D01*
X157131457Y-82119500D01*
X156938170Y-82157947D01*
X156938160Y-82157950D01*
X156756092Y-82233364D01*
X156756079Y-82233371D01*
X156592218Y-82342860D01*
X156592214Y-82342863D01*
X156452863Y-82482214D01*
X156452860Y-82482218D01*
X156343371Y-82646079D01*
X156343364Y-82646092D01*
X156267950Y-82828160D01*
X156267947Y-82828170D01*
X156229500Y-83021456D01*
X156229500Y-83021459D01*
X156229500Y-83218541D01*
X156229500Y-83218543D01*
X156229499Y-83218543D01*
X155690500Y-83218543D01*
X155690500Y-82515730D01*
X155687646Y-82485300D01*
X155687646Y-82485298D01*
X155642793Y-82357119D01*
X155642792Y-82357117D01*
X155632270Y-82342860D01*
X155562150Y-82247850D01*
X155452882Y-82167207D01*
X155452880Y-82167206D01*
X155324700Y-82122353D01*
X155294270Y-82119500D01*
X155294266Y-82119500D01*
X154085734Y-82119500D01*
X154085730Y-82119500D01*
X154055300Y-82122353D01*
X154055298Y-82122353D01*
X153927119Y-82167206D01*
X153927117Y-82167207D01*
X153817850Y-82247850D01*
X153737207Y-82357117D01*
X153737206Y-82357119D01*
X153692353Y-82485298D01*
X153692353Y-82485300D01*
X153689500Y-82515730D01*
X146500500Y-82515730D01*
X146500500Y-76436289D01*
X150417261Y-76436289D01*
X150417262Y-76436290D01*
X150423471Y-76440801D01*
X150577742Y-76519408D01*
X150742415Y-76572914D01*
X150913429Y-76600000D01*
X151086571Y-76600000D01*
X151257584Y-76572914D01*
X151422257Y-76519408D01*
X151576525Y-76440803D01*
X151582736Y-76436289D01*
X151582737Y-76436289D01*
X151000001Y-75853553D01*
X151000000Y-75853553D01*
X150417261Y-76436289D01*
X146500500Y-76436289D01*
X146500500Y-75095730D01*
X148699500Y-75095730D01*
X148699500Y-75904269D01*
X148702353Y-75934699D01*
X148702353Y-75934701D01*
X148747206Y-76062880D01*
X148747207Y-76062882D01*
X148827850Y-76172150D01*
X148937118Y-76252793D01*
X148979845Y-76267744D01*
X149065299Y-76297646D01*
X149095730Y-76300500D01*
X149095734Y-76300500D01*
X149904270Y-76300500D01*
X149934699Y-76297646D01*
X149934701Y-76297646D01*
X149973557Y-76284048D01*
X150062882Y-76252793D01*
X150172150Y-76172150D01*
X150252793Y-76062882D01*
X150283927Y-75973907D01*
X150297646Y-75934701D01*
X150297646Y-75934699D01*
X150300500Y-75904269D01*
X150300500Y-75897308D01*
X150320185Y-75830269D01*
X150336819Y-75809627D01*
X150646446Y-75500000D01*
X150646446Y-75499999D01*
X150606951Y-75460504D01*
X150700000Y-75460504D01*
X150700000Y-75539496D01*
X150720444Y-75615796D01*
X150759940Y-75684205D01*
X150815795Y-75740060D01*
X150884204Y-75779556D01*
X150960504Y-75800000D01*
X151039496Y-75800000D01*
X151115796Y-75779556D01*
X151184205Y-75740060D01*
X151240060Y-75684205D01*
X151279556Y-75615796D01*
X151300000Y-75539496D01*
X151300000Y-75499999D01*
X151353553Y-75499999D01*
X151353553Y-75500000D01*
X151936289Y-76082736D01*
X151940803Y-76076525D01*
X152019408Y-75922257D01*
X152072914Y-75757584D01*
X152100000Y-75586571D01*
X152100000Y-75413430D01*
X152099806Y-75412205D01*
X152099806Y-75412203D01*
X152097506Y-75397682D01*
X153390000Y-75397682D01*
X153390000Y-75602317D01*
X153422009Y-75804417D01*
X153485244Y-75999031D01*
X153578141Y-76181350D01*
X153578147Y-76181359D01*
X153610523Y-76225921D01*
X153610524Y-76225922D01*
X154290000Y-75546446D01*
X154290000Y-75552661D01*
X154317259Y-75654394D01*
X154369920Y-75745606D01*
X154444394Y-75820080D01*
X154535606Y-75872741D01*
X154637339Y-75900000D01*
X154643553Y-75900000D01*
X153964076Y-76579474D01*
X154008650Y-76611859D01*
X154190968Y-76704755D01*
X154385582Y-76767990D01*
X154587683Y-76800000D01*
X154792317Y-76800000D01*
X154994417Y-76767990D01*
X155189031Y-76704755D01*
X155371349Y-76611859D01*
X155415921Y-76579474D01*
X154736447Y-75900000D01*
X154742661Y-75900000D01*
X154844394Y-75872741D01*
X154935606Y-75820080D01*
X155010080Y-75745606D01*
X155062741Y-75654394D01*
X155090000Y-75552661D01*
X155090000Y-75546447D01*
X155769474Y-76225921D01*
X155801859Y-76181349D01*
X155894755Y-75999031D01*
X155957990Y-75804417D01*
X155987875Y-75615731D01*
X156017804Y-75552596D01*
X156077116Y-75515665D01*
X156146978Y-75516663D01*
X156205211Y-75555273D01*
X156231965Y-75610937D01*
X156267947Y-75791829D01*
X156267950Y-75791839D01*
X156343364Y-75973907D01*
X156343371Y-75973920D01*
X156452860Y-76137781D01*
X156452863Y-76137785D01*
X156592214Y-76277136D01*
X156592218Y-76277139D01*
X156756079Y-76386628D01*
X156756092Y-76386635D01*
X156886867Y-76440803D01*
X156938165Y-76462051D01*
X156938169Y-76462051D01*
X156938170Y-76462052D01*
X157131456Y-76500500D01*
X157131459Y-76500500D01*
X157328543Y-76500500D01*
X157458582Y-76474632D01*
X157521835Y-76462051D01*
X157703914Y-76386632D01*
X157867782Y-76277139D01*
X158007139Y-76137782D01*
X158116632Y-75973914D01*
X158192051Y-75791835D01*
X158227081Y-75615731D01*
X158230500Y-75598543D01*
X158769499Y-75598543D01*
X158807947Y-75791829D01*
X158807950Y-75791839D01*
X158883364Y-75973907D01*
X158883371Y-75973920D01*
X158992860Y-76137781D01*
X158992863Y-76137785D01*
X159132214Y-76277136D01*
X159132218Y-76277139D01*
X159296079Y-76386628D01*
X159296092Y-76386635D01*
X159426867Y-76440803D01*
X159478165Y-76462051D01*
X159478169Y-76462051D01*
X159478170Y-76462052D01*
X159671456Y-76500500D01*
X159671459Y-76500500D01*
X159868543Y-76500500D01*
X159998582Y-76474632D01*
X160061835Y-76462051D01*
X160243914Y-76386632D01*
X160407782Y-76277139D01*
X160547139Y-76137782D01*
X160656632Y-75973914D01*
X160732051Y-75791835D01*
X160767081Y-75615731D01*
X160770500Y-75598543D01*
X161309499Y-75598543D01*
X161347947Y-75791829D01*
X161347950Y-75791839D01*
X161423364Y-75973907D01*
X161423371Y-75973920D01*
X161532860Y-76137781D01*
X161532863Y-76137785D01*
X161672214Y-76277136D01*
X161672218Y-76277139D01*
X161836079Y-76386628D01*
X161836092Y-76386635D01*
X161966867Y-76440803D01*
X162018165Y-76462051D01*
X162018169Y-76462051D01*
X162018170Y-76462052D01*
X162211456Y-76500500D01*
X162211459Y-76500500D01*
X162268481Y-76500500D01*
X162335520Y-76520185D01*
X162356162Y-76536819D01*
X164953181Y-79133838D01*
X164986666Y-79195161D01*
X164989500Y-79221519D01*
X164989500Y-80734216D01*
X164969815Y-80801255D01*
X164953181Y-80821897D01*
X164912863Y-80862214D01*
X164912860Y-80862218D01*
X164803371Y-81026079D01*
X164803364Y-81026092D01*
X164727950Y-81208160D01*
X164727947Y-81208170D01*
X164689500Y-81401456D01*
X164689500Y-81401459D01*
X164689500Y-81598541D01*
X164689500Y-81598543D01*
X164689499Y-81598543D01*
X164727947Y-81791829D01*
X164727950Y-81791839D01*
X164803364Y-81973907D01*
X164803371Y-81973920D01*
X164912860Y-82137781D01*
X164912863Y-82137785D01*
X165052214Y-82277136D01*
X165052218Y-82277139D01*
X165216079Y-82386628D01*
X165216092Y-82386635D01*
X165398160Y-82462049D01*
X165398165Y-82462051D01*
X165398169Y-82462051D01*
X165398170Y-82462052D01*
X165591456Y-82500500D01*
X165591459Y-82500500D01*
X165788543Y-82500500D01*
X165918582Y-82474632D01*
X165981835Y-82462051D01*
X166163914Y-82386632D01*
X166327782Y-82277139D01*
X166467139Y-82137782D01*
X166576632Y-81973914D01*
X166652051Y-81791835D01*
X166690500Y-81598541D01*
X166690500Y-81401459D01*
X166690500Y-81401456D01*
X166652052Y-81208170D01*
X166652051Y-81208169D01*
X166652051Y-81208165D01*
X166652049Y-81208160D01*
X166576635Y-81026092D01*
X166576628Y-81026079D01*
X166467139Y-80862218D01*
X166467136Y-80862214D01*
X166426819Y-80821897D01*
X166393334Y-80760574D01*
X166390500Y-80734216D01*
X166390500Y-78811004D01*
X166363581Y-78675677D01*
X166363580Y-78675676D01*
X166363580Y-78675672D01*
X166363578Y-78675667D01*
X166310777Y-78548192D01*
X166234112Y-78433454D01*
X163346819Y-75546161D01*
X163313334Y-75484838D01*
X163310500Y-75458480D01*
X163310500Y-75401456D01*
X163272052Y-75208170D01*
X163272051Y-75208169D01*
X163272051Y-75208165D01*
X163260352Y-75179920D01*
X163196635Y-75026092D01*
X163196628Y-75026079D01*
X163087139Y-74862218D01*
X163087136Y-74862214D01*
X162947785Y-74722863D01*
X162947781Y-74722860D01*
X162783920Y-74613371D01*
X162783907Y-74613364D01*
X162601839Y-74537950D01*
X162601829Y-74537947D01*
X162408543Y-74499500D01*
X162408541Y-74499500D01*
X162211459Y-74499500D01*
X162211457Y-74499500D01*
X162018170Y-74537947D01*
X162018160Y-74537950D01*
X161836092Y-74613364D01*
X161836079Y-74613371D01*
X161672218Y-74722860D01*
X161672214Y-74722863D01*
X161532863Y-74862214D01*
X161532860Y-74862218D01*
X161423371Y-75026079D01*
X161423364Y-75026092D01*
X161347950Y-75208160D01*
X161347947Y-75208170D01*
X161309500Y-75401456D01*
X161309500Y-75401459D01*
X161309500Y-75598541D01*
X161309500Y-75598543D01*
X161309499Y-75598543D01*
X160770500Y-75598543D01*
X160770500Y-75401456D01*
X160732052Y-75208170D01*
X160732051Y-75208169D01*
X160732051Y-75208165D01*
X160720352Y-75179920D01*
X160656635Y-75026092D01*
X160656628Y-75026079D01*
X160547139Y-74862218D01*
X160547136Y-74862214D01*
X160407785Y-74722863D01*
X160407781Y-74722860D01*
X160243920Y-74613371D01*
X160243907Y-74613364D01*
X160061839Y-74537950D01*
X160061829Y-74537947D01*
X159868543Y-74499500D01*
X159868541Y-74499500D01*
X159671459Y-74499500D01*
X159671457Y-74499500D01*
X159478170Y-74537947D01*
X159478160Y-74537950D01*
X159296092Y-74613364D01*
X159296079Y-74613371D01*
X159132218Y-74722860D01*
X159132214Y-74722863D01*
X158992863Y-74862214D01*
X158992860Y-74862218D01*
X158883371Y-75026079D01*
X158883364Y-75026092D01*
X158807950Y-75208160D01*
X158807947Y-75208170D01*
X158769500Y-75401456D01*
X158769500Y-75401459D01*
X158769500Y-75598541D01*
X158769500Y-75598543D01*
X158769499Y-75598543D01*
X158230500Y-75598543D01*
X158230500Y-75401456D01*
X158192052Y-75208170D01*
X158192051Y-75208169D01*
X158192051Y-75208165D01*
X158180352Y-75179920D01*
X158116635Y-75026092D01*
X158116628Y-75026079D01*
X158007139Y-74862218D01*
X158007136Y-74862214D01*
X157867785Y-74722863D01*
X157867781Y-74722860D01*
X157703920Y-74613371D01*
X157703907Y-74613364D01*
X157521839Y-74537950D01*
X157521829Y-74537947D01*
X157328543Y-74499500D01*
X157328541Y-74499500D01*
X157131459Y-74499500D01*
X157131457Y-74499500D01*
X156938170Y-74537947D01*
X156938160Y-74537950D01*
X156756092Y-74613364D01*
X156756079Y-74613371D01*
X156592218Y-74722860D01*
X156592214Y-74722863D01*
X156452863Y-74862214D01*
X156452860Y-74862218D01*
X156343371Y-75026079D01*
X156343364Y-75026092D01*
X156267950Y-75208160D01*
X156267947Y-75208170D01*
X156231965Y-75389062D01*
X156199580Y-75450973D01*
X156138864Y-75485547D01*
X156069094Y-75481806D01*
X156012423Y-75440940D01*
X155987875Y-75384268D01*
X155957990Y-75195582D01*
X155894755Y-75000968D01*
X155801859Y-74818650D01*
X155769474Y-74774077D01*
X155769474Y-74774076D01*
X155090000Y-75453551D01*
X155090000Y-75447339D01*
X155062741Y-75345606D01*
X155010080Y-75254394D01*
X154935606Y-75179920D01*
X154844394Y-75127259D01*
X154742661Y-75100000D01*
X154736446Y-75100000D01*
X155415922Y-74420524D01*
X155415921Y-74420523D01*
X155371359Y-74388147D01*
X155371350Y-74388141D01*
X155189031Y-74295244D01*
X154994417Y-74232009D01*
X154792317Y-74200000D01*
X154587683Y-74200000D01*
X154385582Y-74232009D01*
X154190968Y-74295244D01*
X154008644Y-74388143D01*
X153964077Y-74420523D01*
X153964077Y-74420524D01*
X154643554Y-75100000D01*
X154637339Y-75100000D01*
X154535606Y-75127259D01*
X154444394Y-75179920D01*
X154369920Y-75254394D01*
X154317259Y-75345606D01*
X154290000Y-75447339D01*
X154290000Y-75453553D01*
X153610524Y-74774077D01*
X153610523Y-74774077D01*
X153578143Y-74818644D01*
X153485244Y-75000968D01*
X153422009Y-75195582D01*
X153390000Y-75397682D01*
X152097506Y-75397682D01*
X152072914Y-75242415D01*
X152019408Y-75077742D01*
X151940801Y-74923471D01*
X151936290Y-74917262D01*
X151936289Y-74917261D01*
X151353553Y-75499999D01*
X151300000Y-75499999D01*
X151300000Y-75460504D01*
X151279556Y-75384204D01*
X151240060Y-75315795D01*
X151184205Y-75259940D01*
X151115796Y-75220444D01*
X151039496Y-75200000D01*
X150960504Y-75200000D01*
X150884204Y-75220444D01*
X150815795Y-75259940D01*
X150759940Y-75315795D01*
X150720444Y-75384204D01*
X150700000Y-75460504D01*
X150606951Y-75460504D01*
X150336819Y-75190372D01*
X150303334Y-75129049D01*
X150300500Y-75102691D01*
X150300500Y-75095730D01*
X150297646Y-75065300D01*
X150297646Y-75065298D01*
X150252793Y-74937119D01*
X150252792Y-74937117D01*
X150242721Y-74923471D01*
X150172150Y-74827850D01*
X150062882Y-74747207D01*
X150062880Y-74747206D01*
X150008012Y-74728007D01*
X149934700Y-74702353D01*
X149904270Y-74699500D01*
X149904266Y-74699500D01*
X149095734Y-74699500D01*
X149095730Y-74699500D01*
X149065300Y-74702353D01*
X149065298Y-74702353D01*
X148937119Y-74747206D01*
X148937117Y-74747207D01*
X148827850Y-74827850D01*
X148747207Y-74937117D01*
X148747206Y-74937119D01*
X148702353Y-75065298D01*
X148702353Y-75065300D01*
X148699500Y-75095730D01*
X146500500Y-75095730D01*
X146500500Y-74563708D01*
X150417261Y-74563708D01*
X150417261Y-74563709D01*
X151000000Y-75146446D01*
X151000001Y-75146446D01*
X151582737Y-74563709D01*
X151582736Y-74563708D01*
X151576528Y-74559198D01*
X151576527Y-74559197D01*
X151422259Y-74480592D01*
X151257584Y-74427085D01*
X151086571Y-74400000D01*
X150913429Y-74400000D01*
X150742415Y-74427085D01*
X150577740Y-74480592D01*
X150423480Y-74559193D01*
X150423463Y-74559203D01*
X150417261Y-74563708D01*
X146500500Y-74563708D01*
X146500500Y-71598543D01*
X151499499Y-71598543D01*
X151537947Y-71791829D01*
X151537950Y-71791839D01*
X151613364Y-71973907D01*
X151613371Y-71973920D01*
X151722860Y-72137781D01*
X151722863Y-72137785D01*
X151862214Y-72277136D01*
X151862218Y-72277139D01*
X152026079Y-72386628D01*
X152026092Y-72386635D01*
X152126648Y-72428286D01*
X152208165Y-72462051D01*
X152208169Y-72462051D01*
X152208170Y-72462052D01*
X152401456Y-72500500D01*
X152401459Y-72500500D01*
X152598543Y-72500500D01*
X152728582Y-72474632D01*
X152791835Y-72462051D01*
X152873352Y-72428286D01*
X152899021Y-72417654D01*
X152973907Y-72386635D01*
X152973907Y-72386634D01*
X152973914Y-72386632D01*
X153137782Y-72277139D01*
X153277139Y-72137782D01*
X153386632Y-71973914D01*
X153386734Y-71973669D01*
X153449761Y-71821505D01*
X153462051Y-71791835D01*
X153500500Y-71598541D01*
X153500500Y-71401459D01*
X153499749Y-71397682D01*
X156200000Y-71397682D01*
X156200000Y-71602317D01*
X156232009Y-71804417D01*
X156295244Y-71999031D01*
X156388141Y-72181350D01*
X156388147Y-72181359D01*
X156420523Y-72225921D01*
X156420524Y-72225922D01*
X157100000Y-71546446D01*
X157100000Y-71552661D01*
X157127259Y-71654394D01*
X157179920Y-71745606D01*
X157254394Y-71820080D01*
X157345606Y-71872741D01*
X157447339Y-71900000D01*
X157453553Y-71900000D01*
X156774076Y-72579474D01*
X156818650Y-72611859D01*
X157000968Y-72704755D01*
X157195582Y-72767990D01*
X157397683Y-72800000D01*
X157602317Y-72800000D01*
X157804417Y-72767990D01*
X157999031Y-72704755D01*
X158181349Y-72611859D01*
X158225921Y-72579474D01*
X157546447Y-71900000D01*
X157552661Y-71900000D01*
X157654394Y-71872741D01*
X157745606Y-71820080D01*
X157820080Y-71745606D01*
X157872741Y-71654394D01*
X157900000Y-71552661D01*
X157900000Y-71546447D01*
X158579474Y-72225921D01*
X158611859Y-72181349D01*
X158704755Y-71999031D01*
X158731735Y-71915998D01*
X158767990Y-71804417D01*
X158800000Y-71602317D01*
X158800000Y-71397682D01*
X158768469Y-71198605D01*
X158767989Y-71195580D01*
X158763692Y-71182356D01*
X162000000Y-71182356D01*
X162000000Y-71505679D01*
X163066988Y-71505679D01*
X163034075Y-71562686D01*
X163000000Y-71689853D01*
X163000000Y-71821505D01*
X163034075Y-71948672D01*
X163066988Y-72005679D01*
X162000001Y-72005679D01*
X162000001Y-72329001D01*
X162010144Y-72428286D01*
X162063452Y-72589160D01*
X162063457Y-72589171D01*
X162152424Y-72733407D01*
X162152427Y-72733411D01*
X162272267Y-72853251D01*
X162272271Y-72853254D01*
X162416507Y-72942221D01*
X162416518Y-72942226D01*
X162577393Y-72995534D01*
X162676683Y-73005678D01*
X163249999Y-73005678D01*
X163250000Y-73005677D01*
X163250000Y-72188691D01*
X163307007Y-72221604D01*
X163434174Y-72255679D01*
X163565826Y-72255679D01*
X163692993Y-72221604D01*
X163750000Y-72188691D01*
X163750000Y-73005678D01*
X164323308Y-73005678D01*
X164323322Y-73005677D01*
X164422607Y-72995534D01*
X164583481Y-72942226D01*
X164583492Y-72942221D01*
X164727728Y-72853254D01*
X164727732Y-72853251D01*
X164847572Y-72733411D01*
X164847575Y-72733407D01*
X164936542Y-72589171D01*
X164936547Y-72589160D01*
X164989855Y-72428285D01*
X164999999Y-72329001D01*
X165000000Y-72328988D01*
X165000000Y-72005679D01*
X163933012Y-72005679D01*
X163965925Y-71948672D01*
X164000000Y-71821505D01*
X164000000Y-71689853D01*
X163965925Y-71562686D01*
X163933012Y-71505679D01*
X164999999Y-71505679D01*
X164999999Y-71182371D01*
X164999998Y-71182356D01*
X164989855Y-71083071D01*
X164936547Y-70922197D01*
X164936542Y-70922186D01*
X164847575Y-70777950D01*
X164847572Y-70777946D01*
X164727732Y-70658106D01*
X164727728Y-70658103D01*
X164583492Y-70569136D01*
X164583481Y-70569131D01*
X164422606Y-70515823D01*
X164323322Y-70505679D01*
X163750000Y-70505679D01*
X163750000Y-71322667D01*
X163692993Y-71289754D01*
X163565826Y-71255679D01*
X163434174Y-71255679D01*
X163307007Y-71289754D01*
X163250000Y-71322667D01*
X163250000Y-70505679D01*
X162676692Y-70505679D01*
X162676676Y-70505680D01*
X162577392Y-70515823D01*
X162416518Y-70569131D01*
X162416507Y-70569136D01*
X162272271Y-70658103D01*
X162272267Y-70658106D01*
X162152427Y-70777946D01*
X162152424Y-70777950D01*
X162063457Y-70922186D01*
X162063452Y-70922197D01*
X162010144Y-71083072D01*
X162000000Y-71182356D01*
X158763692Y-71182356D01*
X158704755Y-71000968D01*
X158611859Y-70818650D01*
X158579474Y-70774077D01*
X158579474Y-70774076D01*
X157900000Y-71453551D01*
X157900000Y-71447339D01*
X157872741Y-71345606D01*
X157820080Y-71254394D01*
X157745606Y-71179920D01*
X157654394Y-71127259D01*
X157552661Y-71100000D01*
X157546446Y-71100000D01*
X158225922Y-70420524D01*
X158225921Y-70420523D01*
X158181359Y-70388147D01*
X158181350Y-70388141D01*
X157999031Y-70295244D01*
X157804417Y-70232009D01*
X157602317Y-70200000D01*
X157397683Y-70200000D01*
X157195582Y-70232009D01*
X157000968Y-70295244D01*
X156818644Y-70388143D01*
X156774077Y-70420523D01*
X156774077Y-70420524D01*
X157453554Y-71100000D01*
X157447339Y-71100000D01*
X157345606Y-71127259D01*
X157254394Y-71179920D01*
X157179920Y-71254394D01*
X157127259Y-71345606D01*
X157100000Y-71447339D01*
X157100000Y-71453553D01*
X156420524Y-70774077D01*
X156420523Y-70774077D01*
X156388143Y-70818644D01*
X156295244Y-71000968D01*
X156232009Y-71195582D01*
X156200000Y-71397682D01*
X153499749Y-71397682D01*
X153462051Y-71208165D01*
X153450352Y-71179920D01*
X153386635Y-71026092D01*
X153386628Y-71026079D01*
X153277139Y-70862218D01*
X153277136Y-70862214D01*
X153137785Y-70722863D01*
X153137781Y-70722860D01*
X152973920Y-70613371D01*
X152973907Y-70613364D01*
X152899016Y-70582344D01*
X152791839Y-70537950D01*
X152791829Y-70537947D01*
X152598543Y-70499500D01*
X152598541Y-70499500D01*
X152401459Y-70499500D01*
X152401457Y-70499500D01*
X152208170Y-70537947D01*
X152208160Y-70537950D01*
X152026092Y-70613364D01*
X152026079Y-70613371D01*
X151862218Y-70722860D01*
X151862214Y-70722863D01*
X151722863Y-70862214D01*
X151722860Y-70862218D01*
X151613371Y-71026079D01*
X151613364Y-71026092D01*
X151537950Y-71208160D01*
X151537947Y-71208170D01*
X151499500Y-71401456D01*
X151499500Y-71401458D01*
X151499500Y-71401459D01*
X151499500Y-71598541D01*
X151499500Y-71598543D01*
X151499499Y-71598543D01*
X146500500Y-71598543D01*
X146500500Y-50502871D01*
X146500632Y-50497144D01*
X146506993Y-50359568D01*
X147999500Y-50359568D01*
X147999500Y-50640431D01*
X148030942Y-50919494D01*
X148030945Y-50919512D01*
X148093439Y-51193317D01*
X148093443Y-51193329D01*
X148186200Y-51458411D01*
X148308053Y-51711442D01*
X148308055Y-51711445D01*
X148457477Y-51949248D01*
X148632584Y-52168825D01*
X148831175Y-52367416D01*
X149050752Y-52542523D01*
X149288555Y-52691945D01*
X149541592Y-52813801D01*
X149740680Y-52883465D01*
X149806670Y-52906556D01*
X149806682Y-52906560D01*
X150080491Y-52969055D01*
X150080497Y-52969055D01*
X150080505Y-52969057D01*
X150266547Y-52990018D01*
X150359569Y-53000499D01*
X150359572Y-53000500D01*
X150359575Y-53000500D01*
X150640428Y-53000500D01*
X150640429Y-53000499D01*
X150783055Y-52984429D01*
X150919494Y-52969057D01*
X150919499Y-52969056D01*
X150919509Y-52969055D01*
X151193318Y-52906560D01*
X151458408Y-52813801D01*
X151711445Y-52691945D01*
X151949248Y-52542523D01*
X152168825Y-52367416D01*
X152367416Y-52168825D01*
X152542523Y-51949248D01*
X152691945Y-51711445D01*
X152813801Y-51458408D01*
X152905207Y-51197185D01*
X162299500Y-51197185D01*
X162299500Y-52314172D01*
X162315279Y-52413800D01*
X162315280Y-52413803D01*
X162315281Y-52413805D01*
X162376472Y-52533899D01*
X162376473Y-52533900D01*
X162376476Y-52533904D01*
X162471774Y-52629202D01*
X162471778Y-52629205D01*
X162471780Y-52629207D01*
X162591874Y-52690398D01*
X162591876Y-52690398D01*
X162591878Y-52690399D01*
X162691507Y-52706179D01*
X162691512Y-52706179D01*
X164308493Y-52706179D01*
X164408121Y-52690399D01*
X164408121Y-52690398D01*
X164408126Y-52690398D01*
X164528220Y-52629207D01*
X164623528Y-52533899D01*
X164684719Y-52413805D01*
X164684720Y-52413800D01*
X164700500Y-52314172D01*
X164700500Y-51197185D01*
X164684720Y-51097557D01*
X164684719Y-51097555D01*
X164684719Y-51097553D01*
X164623528Y-50977459D01*
X164623526Y-50977457D01*
X164623523Y-50977453D01*
X164528225Y-50882155D01*
X164528221Y-50882152D01*
X164528220Y-50882151D01*
X164408126Y-50820960D01*
X164408124Y-50820959D01*
X164408121Y-50820958D01*
X164308493Y-50805179D01*
X164308488Y-50805179D01*
X162691512Y-50805179D01*
X162691507Y-50805179D01*
X162591878Y-50820958D01*
X162471778Y-50882152D01*
X162471774Y-50882155D01*
X162376476Y-50977453D01*
X162376473Y-50977457D01*
X162315279Y-51097557D01*
X162299500Y-51197185D01*
X152905207Y-51197185D01*
X152906560Y-51193318D01*
X152969055Y-50919509D01*
X153000500Y-50640425D01*
X153000500Y-50359575D01*
X153000499Y-50359568D01*
X173999500Y-50359568D01*
X173999500Y-50640431D01*
X174030942Y-50919494D01*
X174030945Y-50919512D01*
X174093439Y-51193317D01*
X174093443Y-51193329D01*
X174186200Y-51458411D01*
X174308053Y-51711442D01*
X174308055Y-51711445D01*
X174457477Y-51949248D01*
X174632584Y-52168825D01*
X174831175Y-52367416D01*
X175050752Y-52542523D01*
X175288555Y-52691945D01*
X175541592Y-52813801D01*
X175740680Y-52883465D01*
X175806670Y-52906556D01*
X175806682Y-52906560D01*
X176080491Y-52969055D01*
X176080497Y-52969055D01*
X176080505Y-52969057D01*
X176266547Y-52990018D01*
X176359569Y-53000499D01*
X176359572Y-53000500D01*
X176359575Y-53000500D01*
X176640428Y-53000500D01*
X176640429Y-53000499D01*
X176783055Y-52984429D01*
X176919494Y-52969057D01*
X176919499Y-52969056D01*
X176919509Y-52969055D01*
X177193318Y-52906560D01*
X177458408Y-52813801D01*
X177711445Y-52691945D01*
X177949248Y-52542523D01*
X178168825Y-52367416D01*
X178367416Y-52168825D01*
X178542523Y-51949248D01*
X178691945Y-51711445D01*
X178813801Y-51458408D01*
X178906560Y-51193318D01*
X178969055Y-50919509D01*
X179000500Y-50640425D01*
X179000500Y-50359575D01*
X178969055Y-50080491D01*
X178906560Y-49806682D01*
X178890053Y-49759509D01*
X178883465Y-49740680D01*
X178813801Y-49541592D01*
X178691945Y-49288555D01*
X178542523Y-49050752D01*
X178367416Y-48831175D01*
X178168825Y-48632584D01*
X177949248Y-48457477D01*
X177711445Y-48308055D01*
X177711442Y-48308053D01*
X177458411Y-48186200D01*
X177193329Y-48093443D01*
X177193317Y-48093439D01*
X176919512Y-48030945D01*
X176919494Y-48030942D01*
X176640431Y-47999500D01*
X176640425Y-47999500D01*
X176359575Y-47999500D01*
X176359568Y-47999500D01*
X176080505Y-48030942D01*
X176080487Y-48030945D01*
X175806682Y-48093439D01*
X175806670Y-48093443D01*
X175541588Y-48186200D01*
X175288557Y-48308053D01*
X175050753Y-48457476D01*
X174831175Y-48632583D01*
X174632583Y-48831175D01*
X174457476Y-49050753D01*
X174308053Y-49288557D01*
X174186200Y-49541588D01*
X174093443Y-49806670D01*
X174093439Y-49806682D01*
X174030945Y-50080487D01*
X174030942Y-50080505D01*
X173999500Y-50359568D01*
X153000499Y-50359568D01*
X152969055Y-50080491D01*
X152906560Y-49806682D01*
X152890053Y-49759509D01*
X152883465Y-49740680D01*
X152813801Y-49541592D01*
X152691945Y-49288555D01*
X152542523Y-49050752D01*
X152367416Y-48831175D01*
X152168825Y-48632584D01*
X151949248Y-48457477D01*
X151711445Y-48308055D01*
X151711442Y-48308053D01*
X151458411Y-48186200D01*
X151193329Y-48093443D01*
X151193317Y-48093439D01*
X150919512Y-48030945D01*
X150919494Y-48030942D01*
X150640431Y-47999500D01*
X150640425Y-47999500D01*
X150359575Y-47999500D01*
X150359568Y-47999500D01*
X150080505Y-48030942D01*
X150080487Y-48030945D01*
X149806682Y-48093439D01*
X149806670Y-48093443D01*
X149541588Y-48186200D01*
X149288557Y-48308053D01*
X149050753Y-48457476D01*
X148831175Y-48632583D01*
X148632583Y-48831175D01*
X148457476Y-49050753D01*
X148308053Y-49288557D01*
X148186200Y-49541588D01*
X148093443Y-49806670D01*
X148093439Y-49806682D01*
X148030945Y-50080487D01*
X148030942Y-50080505D01*
X147999500Y-50359568D01*
X146506993Y-50359568D01*
X146507418Y-50350369D01*
X146507418Y-50350368D01*
X146510359Y-50286748D01*
X146517296Y-50136689D01*
X146518353Y-50125292D01*
X146524601Y-50080505D01*
X146567809Y-49770757D01*
X146569909Y-49759520D01*
X146651869Y-49411049D01*
X146654992Y-49400070D01*
X146768763Y-49060623D01*
X146772886Y-49049984D01*
X146917482Y-48722503D01*
X146922574Y-48712277D01*
X147096768Y-48399541D01*
X147102794Y-48389809D01*
X147305103Y-48094472D01*
X147311985Y-48085360D01*
X147540682Y-47809951D01*
X147548376Y-47801511D01*
X147801511Y-47548376D01*
X147809951Y-47540682D01*
X148085360Y-47311985D01*
X148094472Y-47305103D01*
X148389814Y-47102790D01*
X148399541Y-47096768D01*
X148712277Y-46922574D01*
X148722503Y-46917482D01*
X149049984Y-46772886D01*
X149060623Y-46768763D01*
X149400070Y-46654992D01*
X149411049Y-46651869D01*
X149759520Y-46569909D01*
X149770757Y-46567809D01*
X150125301Y-46518352D01*
X150136687Y-46517296D01*
X150497145Y-46500632D01*
X150502872Y-46500500D01*
X150565892Y-46500500D01*
X176434108Y-46500500D01*
X176497128Y-46500500D01*
X176502855Y-46500632D01*
G37*
%TD.AperFunction*%
%TD*%
M02*
