%TF.GenerationSoftware,KiCad,Pcbnew,9.0.7*%
%TF.CreationDate,2026-03-08T23:24:15-05:00*%
%TF.ProjectId,Evil_Beeper_Circuit,4576696c-5f42-4656-9570-65725f436972,rev?*%
%TF.SameCoordinates,Original*%
%TF.FileFunction,Legend,Top*%
%TF.FilePolarity,Positive*%
%FSLAX46Y46*%
G04 Gerber Fmt 4.6, Leading zero omitted, Abs format (unit mm)*
G04 Created by KiCad (PCBNEW 9.0.7) date 2026-03-08 23:24:15*
%MOMM*%
%LPD*%
G01*
G04 APERTURE LIST*
%ADD10C,0.100000*%
%ADD11C,0.150000*%
%ADD12C,0.120000*%
G04 APERTURE END LIST*
D10*
X180000000Y-50500000D02*
G75*
G02*
X173000000Y-50500000I-3500000J0D01*
G01*
X173000000Y-50500000D02*
G75*
G02*
X180000000Y-50500000I3500000J0D01*
G01*
X154000000Y-87500000D02*
G75*
G02*
X147000000Y-87500000I-3500000J0D01*
G01*
X147000000Y-87500000D02*
G75*
G02*
X154000000Y-87500000I3500000J0D01*
G01*
X154000000Y-50500000D02*
G75*
G02*
X147000000Y-50500000I-3500000J0D01*
G01*
X147000000Y-50500000D02*
G75*
G02*
X154000000Y-50500000I3500000J0D01*
G01*
X180000000Y-87500000D02*
G75*
G02*
X173000000Y-87500000I-3500000J0D01*
G01*
X173000000Y-87500000D02*
G75*
G02*
X180000000Y-87500000I3500000J0D01*
G01*
X173307142Y-73457419D02*
X172830952Y-73457419D01*
X172830952Y-73457419D02*
X172830952Y-72457419D01*
X173592857Y-73409800D02*
X173735714Y-73457419D01*
X173735714Y-73457419D02*
X173973809Y-73457419D01*
X173973809Y-73457419D02*
X174069047Y-73409800D01*
X174069047Y-73409800D02*
X174116666Y-73362180D01*
X174116666Y-73362180D02*
X174164285Y-73266942D01*
X174164285Y-73266942D02*
X174164285Y-73171704D01*
X174164285Y-73171704D02*
X174116666Y-73076466D01*
X174116666Y-73076466D02*
X174069047Y-73028847D01*
X174069047Y-73028847D02*
X173973809Y-72981228D01*
X173973809Y-72981228D02*
X173783333Y-72933609D01*
X173783333Y-72933609D02*
X173688095Y-72885990D01*
X173688095Y-72885990D02*
X173640476Y-72838371D01*
X173640476Y-72838371D02*
X173592857Y-72743133D01*
X173592857Y-72743133D02*
X173592857Y-72647895D01*
X173592857Y-72647895D02*
X173640476Y-72552657D01*
X173640476Y-72552657D02*
X173688095Y-72505038D01*
X173688095Y-72505038D02*
X173783333Y-72457419D01*
X173783333Y-72457419D02*
X174021428Y-72457419D01*
X174021428Y-72457419D02*
X174164285Y-72505038D01*
X175116666Y-73457419D02*
X174545238Y-73457419D01*
X174830952Y-73457419D02*
X174830952Y-72457419D01*
X174830952Y-72457419D02*
X174735714Y-72600276D01*
X174735714Y-72600276D02*
X174640476Y-72695514D01*
X174640476Y-72695514D02*
X174545238Y-72743133D01*
D11*
X154833333Y-71859580D02*
X154785714Y-71907200D01*
X154785714Y-71907200D02*
X154642857Y-71954819D01*
X154642857Y-71954819D02*
X154547619Y-71954819D01*
X154547619Y-71954819D02*
X154404762Y-71907200D01*
X154404762Y-71907200D02*
X154309524Y-71811961D01*
X154309524Y-71811961D02*
X154261905Y-71716723D01*
X154261905Y-71716723D02*
X154214286Y-71526247D01*
X154214286Y-71526247D02*
X154214286Y-71383390D01*
X154214286Y-71383390D02*
X154261905Y-71192914D01*
X154261905Y-71192914D02*
X154309524Y-71097676D01*
X154309524Y-71097676D02*
X154404762Y-71002438D01*
X154404762Y-71002438D02*
X154547619Y-70954819D01*
X154547619Y-70954819D02*
X154642857Y-70954819D01*
X154642857Y-70954819D02*
X154785714Y-71002438D01*
X154785714Y-71002438D02*
X154833333Y-71050057D01*
X155214286Y-71050057D02*
X155261905Y-71002438D01*
X155261905Y-71002438D02*
X155357143Y-70954819D01*
X155357143Y-70954819D02*
X155595238Y-70954819D01*
X155595238Y-70954819D02*
X155690476Y-71002438D01*
X155690476Y-71002438D02*
X155738095Y-71050057D01*
X155738095Y-71050057D02*
X155785714Y-71145295D01*
X155785714Y-71145295D02*
X155785714Y-71240533D01*
X155785714Y-71240533D02*
X155738095Y-71383390D01*
X155738095Y-71383390D02*
X155166667Y-71954819D01*
X155166667Y-71954819D02*
X155785714Y-71954819D01*
D10*
X162714285Y-58433609D02*
X162857142Y-58481228D01*
X162857142Y-58481228D02*
X162904761Y-58528847D01*
X162904761Y-58528847D02*
X162952380Y-58624085D01*
X162952380Y-58624085D02*
X162952380Y-58766942D01*
X162952380Y-58766942D02*
X162904761Y-58862180D01*
X162904761Y-58862180D02*
X162857142Y-58909800D01*
X162857142Y-58909800D02*
X162761904Y-58957419D01*
X162761904Y-58957419D02*
X162380952Y-58957419D01*
X162380952Y-58957419D02*
X162380952Y-57957419D01*
X162380952Y-57957419D02*
X162714285Y-57957419D01*
X162714285Y-57957419D02*
X162809523Y-58005038D01*
X162809523Y-58005038D02*
X162857142Y-58052657D01*
X162857142Y-58052657D02*
X162904761Y-58147895D01*
X162904761Y-58147895D02*
X162904761Y-58243133D01*
X162904761Y-58243133D02*
X162857142Y-58338371D01*
X162857142Y-58338371D02*
X162809523Y-58385990D01*
X162809523Y-58385990D02*
X162714285Y-58433609D01*
X162714285Y-58433609D02*
X162380952Y-58433609D01*
X163238095Y-57957419D02*
X163809523Y-57957419D01*
X163523809Y-58957419D02*
X163523809Y-57957419D01*
X164666666Y-58957419D02*
X164095238Y-58957419D01*
X164380952Y-58957419D02*
X164380952Y-57957419D01*
X164380952Y-57957419D02*
X164285714Y-58100276D01*
X164285714Y-58100276D02*
X164190476Y-58195514D01*
X164190476Y-58195514D02*
X164095238Y-58243133D01*
D11*
X150333333Y-78859580D02*
X150285714Y-78907200D01*
X150285714Y-78907200D02*
X150142857Y-78954819D01*
X150142857Y-78954819D02*
X150047619Y-78954819D01*
X150047619Y-78954819D02*
X149904762Y-78907200D01*
X149904762Y-78907200D02*
X149809524Y-78811961D01*
X149809524Y-78811961D02*
X149761905Y-78716723D01*
X149761905Y-78716723D02*
X149714286Y-78526247D01*
X149714286Y-78526247D02*
X149714286Y-78383390D01*
X149714286Y-78383390D02*
X149761905Y-78192914D01*
X149761905Y-78192914D02*
X149809524Y-78097676D01*
X149809524Y-78097676D02*
X149904762Y-78002438D01*
X149904762Y-78002438D02*
X150047619Y-77954819D01*
X150047619Y-77954819D02*
X150142857Y-77954819D01*
X150142857Y-77954819D02*
X150285714Y-78002438D01*
X150285714Y-78002438D02*
X150333333Y-78050057D01*
X151285714Y-78954819D02*
X150714286Y-78954819D01*
X151000000Y-78954819D02*
X151000000Y-77954819D01*
X151000000Y-77954819D02*
X150904762Y-78097676D01*
X150904762Y-78097676D02*
X150809524Y-78192914D01*
X150809524Y-78192914D02*
X150714286Y-78240533D01*
X169333333Y-81954819D02*
X169000000Y-81478628D01*
X168761905Y-81954819D02*
X168761905Y-80954819D01*
X168761905Y-80954819D02*
X169142857Y-80954819D01*
X169142857Y-80954819D02*
X169238095Y-81002438D01*
X169238095Y-81002438D02*
X169285714Y-81050057D01*
X169285714Y-81050057D02*
X169333333Y-81145295D01*
X169333333Y-81145295D02*
X169333333Y-81288152D01*
X169333333Y-81288152D02*
X169285714Y-81383390D01*
X169285714Y-81383390D02*
X169238095Y-81431009D01*
X169238095Y-81431009D02*
X169142857Y-81478628D01*
X169142857Y-81478628D02*
X168761905Y-81478628D01*
X170285714Y-81954819D02*
X169714286Y-81954819D01*
X170000000Y-81954819D02*
X170000000Y-80954819D01*
X170000000Y-80954819D02*
X169904762Y-81097676D01*
X169904762Y-81097676D02*
X169809524Y-81192914D01*
X169809524Y-81192914D02*
X169714286Y-81240533D01*
X165144761Y-87580057D02*
X165049523Y-87532438D01*
X165049523Y-87532438D02*
X164954285Y-87437200D01*
X164954285Y-87437200D02*
X164811428Y-87294342D01*
X164811428Y-87294342D02*
X164716190Y-87246723D01*
X164716190Y-87246723D02*
X164620952Y-87246723D01*
X164668571Y-87484819D02*
X164573333Y-87437200D01*
X164573333Y-87437200D02*
X164478095Y-87341961D01*
X164478095Y-87341961D02*
X164430476Y-87151485D01*
X164430476Y-87151485D02*
X164430476Y-86818152D01*
X164430476Y-86818152D02*
X164478095Y-86627676D01*
X164478095Y-86627676D02*
X164573333Y-86532438D01*
X164573333Y-86532438D02*
X164668571Y-86484819D01*
X164668571Y-86484819D02*
X164859047Y-86484819D01*
X164859047Y-86484819D02*
X164954285Y-86532438D01*
X164954285Y-86532438D02*
X165049523Y-86627676D01*
X165049523Y-86627676D02*
X165097142Y-86818152D01*
X165097142Y-86818152D02*
X165097142Y-87151485D01*
X165097142Y-87151485D02*
X165049523Y-87341961D01*
X165049523Y-87341961D02*
X164954285Y-87437200D01*
X164954285Y-87437200D02*
X164859047Y-87484819D01*
X164859047Y-87484819D02*
X164668571Y-87484819D01*
X166049523Y-87484819D02*
X165478095Y-87484819D01*
X165763809Y-87484819D02*
X165763809Y-86484819D01*
X165763809Y-86484819D02*
X165668571Y-86627676D01*
X165668571Y-86627676D02*
X165573333Y-86722914D01*
X165573333Y-86722914D02*
X165478095Y-86770533D01*
X157738095Y-78764819D02*
X157738095Y-79574342D01*
X157738095Y-79574342D02*
X157785714Y-79669580D01*
X157785714Y-79669580D02*
X157833333Y-79717200D01*
X157833333Y-79717200D02*
X157928571Y-79764819D01*
X157928571Y-79764819D02*
X158119047Y-79764819D01*
X158119047Y-79764819D02*
X158214285Y-79717200D01*
X158214285Y-79717200D02*
X158261904Y-79669580D01*
X158261904Y-79669580D02*
X158309523Y-79574342D01*
X158309523Y-79574342D02*
X158309523Y-78764819D01*
X159309523Y-79764819D02*
X158738095Y-79764819D01*
X159023809Y-79764819D02*
X159023809Y-78764819D01*
X159023809Y-78764819D02*
X158928571Y-78907676D01*
X158928571Y-78907676D02*
X158833333Y-79002914D01*
X158833333Y-79002914D02*
X158738095Y-79050533D01*
D10*
%TO.C,LS1*%
X176350000Y-75500000D02*
X178350000Y-75500000D01*
X177350000Y-76500000D02*
X177350000Y-74500000D01*
X180150000Y-73000000D02*
G75*
G02*
X168150000Y-73000000I-6000000J0D01*
G01*
X168150000Y-73000000D02*
G75*
G02*
X180150000Y-73000000I6000000J0D01*
G01*
D12*
%TO.C,C2*%
X151280000Y-69880000D02*
X158720000Y-69880000D01*
X151280000Y-73120000D02*
X151280000Y-69880000D01*
X158720000Y-69880000D02*
X158720000Y-73120000D01*
X158720000Y-73120000D02*
X151280000Y-73120000D01*
D10*
%TO.C,BT1*%
X159500000Y-73255679D02*
X159500000Y-69055679D01*
X163500000Y-73255679D02*
X159500000Y-73255679D01*
X163500000Y-73255679D02*
X167500000Y-73255679D01*
X167500000Y-73255679D02*
X167500000Y-69055679D01*
X174511358Y-58755679D02*
G75*
G02*
X152488642Y-58755679I-11011358J0D01*
G01*
X152488642Y-58755679D02*
G75*
G02*
X174511358Y-58755679I11011358J0D01*
G01*
D12*
%TO.C,C1*%
X147980199Y-74305000D02*
X148380199Y-74305000D01*
X148180199Y-74105000D02*
X148180199Y-74505000D01*
X150250000Y-73420000D02*
X150250000Y-74660000D01*
X150250000Y-76340000D02*
X150250000Y-77580000D01*
X150290000Y-73420000D02*
X150290000Y-74660000D01*
X150290000Y-76340000D02*
X150290000Y-77580000D01*
X150330000Y-73422000D02*
X150330000Y-74660000D01*
X150330000Y-76340000D02*
X150330000Y-77578000D01*
X150370000Y-73423000D02*
X150370000Y-74660000D01*
X150370000Y-76340000D02*
X150370000Y-77577000D01*
X150410000Y-73426000D02*
X150410000Y-74660000D01*
X150410000Y-76340000D02*
X150410000Y-77574000D01*
X150450000Y-73429000D02*
X150450000Y-74660000D01*
X150450000Y-76340000D02*
X150450000Y-77571000D01*
X150490000Y-73434000D02*
X150490000Y-74660000D01*
X150490000Y-76340000D02*
X150490000Y-77566000D01*
X150530000Y-73439000D02*
X150530000Y-74660000D01*
X150530000Y-76340000D02*
X150530000Y-77561000D01*
X150570000Y-73444000D02*
X150570000Y-74660000D01*
X150570000Y-76340000D02*
X150570000Y-77556000D01*
X150610000Y-73451000D02*
X150610000Y-74660000D01*
X150610000Y-76340000D02*
X150610000Y-77549000D01*
X150650000Y-73458000D02*
X150650000Y-74660000D01*
X150650000Y-76340000D02*
X150650000Y-77542000D01*
X150690000Y-73466000D02*
X150690000Y-74660000D01*
X150690000Y-76340000D02*
X150690000Y-77534000D01*
X150730000Y-73475000D02*
X150730000Y-74660000D01*
X150730000Y-76340000D02*
X150730000Y-77525000D01*
X150770000Y-73485000D02*
X150770000Y-74660000D01*
X150770000Y-76340000D02*
X150770000Y-77515000D01*
X150810000Y-73495000D02*
X150810000Y-74660000D01*
X150810000Y-76340000D02*
X150810000Y-77505000D01*
X150850000Y-73507000D02*
X150850000Y-74660000D01*
X150850000Y-76340000D02*
X150850000Y-77493000D01*
X150890000Y-73519000D02*
X150890000Y-74660000D01*
X150890000Y-76340000D02*
X150890000Y-77481000D01*
X150930000Y-73532000D02*
X150930000Y-74660000D01*
X150930000Y-76340000D02*
X150930000Y-77468000D01*
X150970000Y-73546000D02*
X150970000Y-74660000D01*
X150970000Y-76340000D02*
X150970000Y-77454000D01*
X151010000Y-73561000D02*
X151010000Y-74660000D01*
X151010000Y-76340000D02*
X151010000Y-77439000D01*
X151050000Y-73577000D02*
X151050000Y-74660000D01*
X151050000Y-76340000D02*
X151050000Y-77423000D01*
X151090000Y-73594000D02*
X151090000Y-74660000D01*
X151090000Y-76340000D02*
X151090000Y-77406000D01*
X151130000Y-73611000D02*
X151130000Y-74660000D01*
X151130000Y-76340000D02*
X151130000Y-77389000D01*
X151170000Y-73630000D02*
X151170000Y-74660000D01*
X151170000Y-76340000D02*
X151170000Y-77370000D01*
X151210000Y-73650000D02*
X151210000Y-74660000D01*
X151210000Y-76340000D02*
X151210000Y-77350000D01*
X151250000Y-73671000D02*
X151250000Y-74660000D01*
X151250000Y-76340000D02*
X151250000Y-77329000D01*
X151290000Y-73693000D02*
X151290000Y-74660000D01*
X151290000Y-76340000D02*
X151290000Y-77307000D01*
X151330000Y-73716000D02*
X151330000Y-74660000D01*
X151330000Y-76340000D02*
X151330000Y-77284000D01*
X151370000Y-73740000D02*
X151370000Y-74660000D01*
X151370000Y-76340000D02*
X151370000Y-77260000D01*
X151410000Y-73766000D02*
X151410000Y-74660000D01*
X151410000Y-76340000D02*
X151410000Y-77234000D01*
X151450000Y-73792000D02*
X151450000Y-74660000D01*
X151450000Y-76340000D02*
X151450000Y-77208000D01*
X151490000Y-73820000D02*
X151490000Y-74660000D01*
X151490000Y-76340000D02*
X151490000Y-77180000D01*
X151530000Y-73850000D02*
X151530000Y-74660000D01*
X151530000Y-76340000D02*
X151530000Y-77150000D01*
X151570000Y-73881000D02*
X151570000Y-74660000D01*
X151570000Y-76340000D02*
X151570000Y-77119000D01*
X151610000Y-73914000D02*
X151610000Y-74660000D01*
X151610000Y-76340000D02*
X151610000Y-77086000D01*
X151650000Y-73948000D02*
X151650000Y-74660000D01*
X151650000Y-76340000D02*
X151650000Y-77052000D01*
X151690000Y-73984000D02*
X151690000Y-74660000D01*
X151690000Y-76340000D02*
X151690000Y-77016000D01*
X151730000Y-74022000D02*
X151730000Y-74660000D01*
X151730000Y-76340000D02*
X151730000Y-76978000D01*
X151770000Y-74062000D02*
X151770000Y-74660000D01*
X151770000Y-76340000D02*
X151770000Y-76938000D01*
X151810000Y-74104000D02*
X151810000Y-74660000D01*
X151810000Y-76340000D02*
X151810000Y-76896000D01*
X151850000Y-74149000D02*
X151850000Y-76851000D01*
X151890000Y-74197000D02*
X151890000Y-76803000D01*
X151930000Y-74247000D02*
X151930000Y-76753000D01*
X151970000Y-74301000D02*
X151970000Y-76699000D01*
X152010000Y-74358000D02*
X152010000Y-76642000D01*
X152050000Y-74420000D02*
X152050000Y-76580000D01*
X152090000Y-74487000D02*
X152090000Y-76513000D01*
X152130000Y-74560000D02*
X152130000Y-76440000D01*
X152170000Y-74641000D02*
X152170000Y-76359000D01*
X152210000Y-74732000D02*
X152210000Y-76268000D01*
X152250000Y-74837000D02*
X152250000Y-76163000D01*
X152290000Y-74963000D02*
X152290000Y-76037000D01*
X152330000Y-75130000D02*
X152330000Y-75870000D01*
X152370000Y-75500000D02*
G75*
G02*
X148130000Y-75500000I-2120000J0D01*
G01*
X148130000Y-75500000D02*
G75*
G02*
X152370000Y-75500000I2120000J0D01*
G01*
%TO.C,R1*%
X166230000Y-80130000D02*
X172770000Y-80130000D01*
X166230000Y-80460000D02*
X166230000Y-80130000D01*
X166230000Y-82540000D02*
X166230000Y-82870000D01*
X166230000Y-82870000D02*
X172770000Y-82870000D01*
X172770000Y-80130000D02*
X172770000Y-80460000D01*
X172770000Y-82870000D02*
X172770000Y-82540000D01*
%TO.C,Q1*%
X166290000Y-85200000D02*
X166290000Y-88800000D01*
X166301522Y-85161522D02*
G75*
G02*
X170740001Y-87000000I1838478J-1838478D01*
G01*
X170740000Y-87000000D02*
G75*
G02*
X166301522Y-88838478I-2600000J0D01*
G01*
%TO.C,U1*%
X153360000Y-76660000D02*
X153360000Y-78310000D01*
X153360000Y-80310000D02*
X153360000Y-81960000D01*
X153360000Y-81960000D02*
X163640000Y-81960000D01*
X163640000Y-76660000D02*
X153360000Y-76660000D01*
X163640000Y-81960000D02*
X163640000Y-76660000D01*
X153300000Y-84450000D02*
X163700000Y-84450000D01*
X163700000Y-74170000D01*
X153300000Y-74170000D01*
X153300000Y-84450000D01*
X153360000Y-78310000D02*
G75*
G02*
X153360000Y-80310000I0J-1000000D01*
G01*
%TD*%
M02*
